<svg width="159" height="167" viewBox="0 0 159 167" fill="none" xmlns="http://www.w3.org/2000/svg">
<path fill-rule="evenodd" clip-rule="evenodd" d="M94.5689 0.394359C94.5689 0.836939 93.0844 0.941392 90.4242 0.685619C86.7668 0.334099 85.8307 0.508183 82.4549 2.16803C79.357 3.69128 78.9101 4.09905 80.1038 4.31331C80.9138 4.4586 81.4088 4.85766 81.2039 5.19913C80.9873 5.56003 82.8258 5.8225 85.5854 5.82451L90.3403 5.82785L87.8123 7.40266C84.6252 9.38858 85.5639 10.1278 90.5524 9.55999C93.9477 9.17299 94.1161 9.21517 92.6537 10.0843C91.1067 11.0036 91.1685 11.0504 94.9306 11.8191C100.412 12.9393 101.141 13.2024 100.717 13.9088C100.261 14.6688 101.076 14.96 105.286 15.5432C108.314 15.963 108.426 16.0447 107.025 16.816L105.528 17.6409L107.042 18.7993C108.337 19.7902 108.368 19.896 107.255 19.5345C100.976 17.495 97.7547 17.0658 91.0032 17.3698C85.0754 17.6362 82.9344 18.0447 78.6303 19.73C71.2673 22.6131 67.1448 24.6486 69.2565 24.358C70.8302 24.141 70.7541 24.3111 68.118 26.911C66.4461 28.5595 65.2939 30.3024 65.2939 31.1828C65.2939 32.001 64.8899 33.4834 64.3962 34.4784C63.1276 37.0341 62.4484 40.6384 63.2349 40.6384C63.5908 40.6384 64.9895 39.0857 66.3433 37.1875C67.6971 35.2892 68.9175 34.084 69.0555 34.5092C69.5154 35.93 70.3611 35.306 72.0903 32.2689C74.0068 28.903 74.7472 28.4182 74.1343 30.9297C73.6295 33.0007 74.1792 33.0442 76.2298 31.0971L77.8158 29.5906L77.3247 31.2317L76.8335 32.8728L78.7077 31.6455C79.7382 30.9699 81.1844 29.8571 81.9202 29.1721C82.9123 28.2481 83.4477 28.1209 83.9909 28.68C84.5341 29.2391 85.6602 28.8902 88.3451 27.3308C91.1041 25.7279 91.9667 25.4674 91.9667 26.2368C91.9667 27.4888 93.219 27.5351 94.9118 26.3452C95.6176 25.8498 96.9994 24.9117 97.983 24.2609L99.7701 23.0778L99.3655 25.1621C98.8997 27.5598 99.0701 27.6054 103.411 26.2502C107.24 25.0543 107.109 25.067 106.586 25.9388C106.301 26.4129 107.235 26.4932 109.475 26.1872C111.295 25.9388 112.784 25.8786 112.784 26.054C112.784 26.2294 110.79 30.4108 108.352 35.3468C93.7727 64.8618 83.017 101.188 80.5553 129.228C80.1878 133.416 79.9074 134.382 79.1475 134.082C78.6258 133.876 77.1158 133.707 75.7926 133.707H73.3868L72.2302 126.51C68.7978 105.151 61.5318 82.099 54.8577 71.3947C53.7993 69.6967 52.9334 68.1587 52.9334 67.9759C52.9334 67.7931 54.7192 67.7389 56.9024 67.8561C60.1962 68.0322 60.8084 67.8996 60.5007 67.0754C60.0069 65.7503 60.5026 65.8213 63.0515 67.443C64.4007 68.3013 65.3434 68.5491 65.6049 68.1145C65.8755 67.6632 66.6673 67.771 67.9007 68.4279C68.9364 68.9789 70.2642 69.4295 70.8516 69.4295C71.4391 69.4295 72.6908 70.0536 73.6328 70.8169C74.6945 71.6759 75.438 71.9203 75.5877 71.4583C75.7627 70.9193 76.0821 70.9287 76.7418 71.4925C77.4697 72.1138 77.6564 72.0174 77.6656 71.0177C77.6734 70.0904 78.0364 70.3428 79.061 71.9899C79.8228 73.2139 80.6288 73.9102 80.8533 73.5366C81.0777 73.1637 81.9508 73.8942 82.7945 75.161C84.0475 77.0438 85.4612 78.162 85.4612 77.2715C85.4612 75.9745 82.6423 69.4483 81.6014 68.3355C80.6535 67.3218 80.4818 66.7854 81.0426 66.5933C82.2461 66.1802 71.6499 62.1788 68.0634 61.6914C65.3603 61.3238 58.9458 62.0878 55.6579 63.1691C54.7179 63.4778 54.7003 63.4242 55.5356 62.7969C56.3416 62.1916 56.3592 61.9633 55.6338 61.4818C55.0132 61.0694 55.4413 60.7668 57.0976 60.4474C58.385 60.1983 59.4389 59.7356 59.4389 59.4189C59.4389 59.1015 60.9027 58.6349 62.6924 58.3818C64.4814 58.1287 65.7819 57.6479 65.5815 57.3145C65.3811 56.981 66.3322 56.7012 67.6951 56.6931L70.1731 56.6784L68.5467 55.3687L66.9203 54.0591L69.8478 54.0343C77.162 53.9714 73.8513 50.8492 66.1956 50.5901C63.4665 50.4977 61.0803 50.7836 60.0895 51.3212C56.125 53.4739 52.305 56.9375 51.0012 59.5622L49.5928 62.3991L49.855 57.21C49.9994 54.3564 49.9278 52.0209 49.6956 52.0209C49.4633 52.0209 48.5252 52.8498 47.6112 53.8622C45.6628 56.0202 44.8984 59.35 45.7942 61.7765L46.4298 63.4959L44.5939 62.1507C43.5843 61.4102 41.3685 60.4447 39.6705 60.0048C36.0183 59.0587 28.8414 59.6399 27.887 60.9596C27.5292 61.4537 26.2723 62.3717 25.0935 62.9984C23.2642 63.9713 20.416 67.52 20.4082 68.8356C20.403 69.7201 22.7873 69.0178 24.7969 67.5427C27.0315 65.9023 27.334 66.0262 26.2379 68.1346C25.3635 69.8152 25.9204 69.7703 28.3918 67.9585C29.4958 67.1497 30.1822 66.8484 29.918 67.2889C29.2532 68.3957 30.5009 68.2913 32.8423 67.0452C33.9222 66.4707 35.1524 66.1206 35.5753 66.2679C35.9981 66.4152 37.3253 66.1152 38.5249 65.6017C40.1675 64.8979 40.6398 64.8712 40.4375 65.4945C40.1318 66.4393 39.6393 66.7366 34.7178 68.9475C30.2817 70.9401 27.6008 73.236 25.0116 77.2587C23.2707 79.9638 23.0078 80.9648 23.0078 84.8897C23.0078 87.3738 23.1854 89.8833 23.4027 90.4658C24.0104 92.0962 24.9595 91.7213 24.9595 89.8512C24.9595 88.8093 25.3284 88.1773 25.9353 88.1773C26.5488 88.1773 26.9112 87.5405 26.9112 86.4639C26.9112 85.5218 27.1831 84.9232 27.5149 85.1348C27.8467 85.3457 28.3073 84.9071 28.5376 84.1599C28.7679 83.4127 29.2434 82.9841 29.5941 83.2071C29.9454 83.4301 30.5738 82.6815 30.9915 81.5426C31.4085 80.4043 32.0792 79.473 32.4812 79.473C32.8833 79.473 33.7479 78.4479 34.4036 77.1951C35.0691 75.9236 35.9571 75.0605 36.4151 75.2413C36.8835 75.4261 37.7976 74.4667 38.5496 72.9996C39.3225 71.4925 39.8767 70.9173 39.8937 71.6056C39.9307 73.1202 41.5578 73.1141 42.6501 71.5956C43.1178 70.9454 44.3311 70.0355 45.346 69.5742L47.1916 68.7359L45.8749 70.458C43.3462 73.767 40.0101 88.1773 41.7731 88.1773C42.1264 88.1773 42.5375 87.8017 42.6865 87.3417C42.8355 86.8823 43.1607 87.8177 43.4099 89.4207C43.9349 92.8013 45.4962 96.212 46.5183 96.212C46.9346 96.212 47.1083 95.3851 46.9398 94.2033C46.7824 93.0986 46.8897 92.1946 47.1786 92.1946C47.4674 92.1946 47.5175 90.7919 47.2892 89.0772C46.9782 86.7431 47.0693 86.0836 47.6528 86.4552C48.386 86.9212 48.2715 85.3102 47.3568 82.2838C47.2092 81.7943 47.3998 81.6069 47.7914 81.8559C48.2552 82.1512 48.425 81.3859 48.2982 79.5761C48.1934 78.0776 48.3151 76.638 48.5688 76.3769C48.8225 76.1158 49.0301 74.614 49.0301 73.0398C49.0301 71.4657 49.2838 70.0167 49.5934 69.8199C50.9954 68.928 58.5483 88.6922 61.6866 101.465C64.8717 114.428 67.5657 133.679 66.2008 133.728C61.1076 133.909 55.7744 135.261 53.3829 136.976C51.8834 138.052 49.611 139.116 48.3327 139.341C47.055 139.565 45.022 140.499 43.8152 141.415C42.6084 142.331 41.2845 143.081 40.8727 143.081C40.4609 143.081 39.6321 143.64 39.031 144.325C38.1417 145.336 38.0962 145.703 38.789 146.295C43.2414 150.098 71.6245 151.358 86.7623 148.424C92.7135 147.271 98.2361 146.858 113.76 146.404C124.494 146.091 134.54 145.646 136.083 145.415C138.538 145.048 138.784 144.864 138.044 143.947C135.622 140.943 126.235 139.099 113.25 139.075C108.908 139.068 106.425 138.764 105.443 138.121C103.791 137.039 98.8255 135.976 92.4065 135.328L87.9677 134.88L88.3802 129.774C90.9226 98.3011 99.707 64.4078 112.892 35.2009C115.923 28.4858 116.482 28.5233 116.623 35.4493C116.659 37.2383 116.995 38.6297 117.39 38.6297C117.864 38.6297 117.958 40.098 117.68 43.1492C117.288 47.4492 117.321 47.6038 118.366 46.3297C119.123 45.4077 119.355 45.3233 119.112 46.0571C118.917 46.6443 118.555 48.9041 118.305 51.0789C117.88 54.7949 117.915 54.9529 118.906 53.6948C119.939 52.3825 119.954 52.3899 119.661 54.0296C118.706 59.3593 118.598 62.0644 119.339 62.0644C119.887 62.0644 120 62.9502 119.72 65.0479C118.966 70.7104 121.637 69.003 123.839 62.4152C124.557 60.2652 125.145 57.8187 125.145 56.977C125.145 56.1361 125.438 55.2616 125.796 55.034C126.153 54.8063 126.446 55.0902 126.446 55.664C126.446 56.2378 126.739 56.7079 127.097 56.7079C128.068 56.7079 127.883 50.6436 126.732 44.795C125.686 39.472 123.007 32.7483 120.478 29.0925C119.066 27.051 119.723 27.065 122.055 29.1266C122.995 29.9575 123.193 29.9702 123.193 29.1989C123.193 28.6854 124.398 29.5424 125.87 31.1038C128.828 34.24 129.699 34.5902 129.699 32.6431C129.699 30.078 130.793 30.7302 132.501 34.3137C134.21 37.8999 135.186 38.7596 135.711 37.1399C135.857 36.6886 137.058 38.0586 138.379 40.1844C139.701 42.3109 141.057 43.875 141.393 43.6614C141.73 43.4472 142.638 44.789 143.413 46.6423C144.845 50.0672 145.908 50.9603 146.03 48.8405C146.067 48.1957 146.391 48.809 146.751 50.2017C147.248 52.1307 147.6 52.568 148.225 52.0336C148.856 51.4947 149.145 51.97 149.474 54.0845C149.791 56.128 150.147 56.74 150.856 56.4601C151.561 56.1816 151.917 56.7795 152.224 58.754C152.453 60.2231 152.894 61.5863 153.205 61.7845C154.06 62.3282 155.171 58.734 154.982 56.037C154.89 54.7286 155.033 53.2944 155.3 52.8505C155.566 52.4066 155.572 50.9088 155.313 49.5215C155.053 48.1341 154.877 46.4401 154.92 45.7565C155.156 42.0666 145.288 31.2397 138.807 28.0794C136.481 26.9452 133.507 25.8136 132.198 25.5645C130.871 25.3128 129.648 24.6225 129.433 24.0038C129.221 23.3938 128.879 22.5247 128.673 22.0721C128.46 21.6027 129.837 21.9502 131.882 22.8803C134.06 23.8725 135.554 24.2348 135.692 23.8056C135.832 23.3751 137.539 23.7768 140.079 24.8387C145.087 26.9338 145.564 26.9733 144.65 25.2157C144.133 24.2214 144.755 24.4926 146.954 26.22C151.313 29.6448 152.228 29.3797 149.857 25.3791C148.696 23.4186 148.678 23.2452 149.697 23.8089C150.327 24.1571 151.98 25.3744 153.371 26.514C156.05 28.7095 157.022 29.061 157.022 27.835C157.022 27.3154 157.324 27.3409 157.998 27.9167C159.65 29.3281 159.191 27.1922 157.119 23.8304C155.82 21.7212 154.186 20.2388 151.66 18.8776C149.622 17.7795 148.185 16.587 148.354 16.1331C148.801 14.9359 140.056 13.6162 134.525 14.0467C129.879 14.4083 123.915 16.5054 122.484 18.2817C121.06 20.0473 120.652 19.2044 121.596 16.4498C122.675 13.3022 122.785 12.2838 121.99 12.7893C121.687 12.9821 121.415 12.2724 121.385 11.2111C121.314 8.62261 119.721 5.59618 117.72 4.24635C115.68 2.87107 114.473 2.82688 114.992 4.14725C115.209 4.69964 115.583 5.6531 115.823 6.26575C116.143 7.08328 116.026 7.23259 115.387 6.8255C114.722 6.40301 114.637 6.57642 115.026 7.55264C115.307 8.25769 115.622 11.2446 115.726 14.1907L115.916 19.5472L114.612 15.9818C113.741 13.6021 112.146 11.2386 109.815 8.87838C105.431 4.43784 94.5689 -1.60696 94.5689 0.394359ZM18.454 136.439C18.454 137.205 19.3322 140.393 20.4056 143.523C21.5825 146.954 22.3573 150.551 22.3573 152.581V155.948L15.6891 155.564C11.6082 155.33 9.65195 155.406 10.6473 155.76C11.5418 156.078 14.0302 156.39 16.177 156.453C21.9188 156.621 23.7755 157.705 18.4214 157.765C16.0775 157.79 13.8285 158.153 13.4232 158.57C13.0075 158.998 12.1709 159.113 11.5041 158.833C10.3903 158.366 10.3975 158.306 11.6231 157.787C12.8741 157.257 12.8689 157.235 11.4989 157.189C9.31626 157.117 9.10613 158.288 11.065 159.609C12.3947 160.506 12.8924 160.588 13.1005 159.946C13.2801 159.392 13.6379 159.315 14.1258 159.724C15.2773 160.69 21.7067 162.501 21.7067 161.86C21.7067 161.548 20.243 160.932 18.454 160.49C14.4088 159.491 14.2455 158.481 18.1287 158.481C20.1721 158.481 21.0562 158.758 21.0562 159.397C21.0562 161.484 36.0508 163.932 37.1965 162.032C37.5185 161.497 37.9986 161.441 38.6381 161.865C39.4806 162.422 39.4786 162.578 38.6212 163.158C37.3949 163.986 30.674 164.005 27.2547 163.189C24.8418 162.613 23.674 162.738 24.4078 163.493C24.5815 163.672 26.9138 164.169 29.5915 164.597C38.0363 165.948 42.209 164.051 38.2425 160.663L36.3442 159.042L38.439 160.108C40.904 161.361 42.0301 163.164 41.2052 164.537C40.2163 166.184 31.413 166.202 24.7403 164.571C18.7922 163.117 17.3226 162.896 17.9615 163.555C18.7324 164.347 28.049 166.495 32.4409 166.891C37.7286 167.368 42.0457 166.238 42.412 164.28C42.6735 162.882 40.42 160.134 37.9101 158.79C36.8354 158.214 35.8056 156.719 35.0724 154.669C32.4071 147.219 26.7739 139.253 22.0958 136.316C19.4864 134.679 18.454 134.714 18.454 136.439ZM4.7923 157.142C4.7923 157.51 5.74341 157.79 6.9066 157.765C8.67871 157.725 8.81013 157.624 7.7198 157.142C5.92231 156.347 4.7923 156.347 4.7923 157.142ZM0.23841 159.022C1.71777 159.972 6.56311 160.746 5.76813 159.907C5.41033 159.528 3.8002 159.034 2.19008 158.808C0.258578 158.536 -0.405639 158.609 0.23841 159.022ZM6.74396 160.307C6.74396 160.624 8.28057 161.235 10.1594 161.664C12.0382 162.094 14.2793 162.656 15.14 162.912C16.1712 163.22 16.5608 163.137 16.2805 162.671C16.0469 162.282 14.3177 161.605 12.4383 161.168C10.5588 160.731 8.50827 160.228 7.88244 160.051C7.2566 159.875 6.74396 159.99 6.74396 160.307Z" fill="#594C03"/>
</svg>
