<svg width="28" height="41" viewBox="0 0 28 41" fill="none" xmlns="http://www.w3.org/2000/svg">
<path d="M22.4 0.144043H11.2C9.71479 0.144043 8.29041 0.811419 7.2402 1.99936C6.19 3.18729 5.6 4.79848 5.6 6.47848V14.9244H7.46667V6.47848C7.46667 5.35848 7.86 4.28435 8.56013 3.4924C9.26027 2.70044 10.2099 2.25552 11.2 2.25552H22.4C23.3901 2.25552 24.3397 2.70044 25.0399 3.4924C25.74 4.28435 26.1333 5.35848 26.1333 6.47848V33.9277C26.1333 35.0477 25.74 36.1218 25.0399 36.9138C24.3397 37.7057 23.3901 38.1506 22.4 38.1506H11.2C10.2099 38.1506 9.26027 37.7057 8.56013 36.9138C7.86 36.1218 7.46667 35.0477 7.46667 33.9277V25.4818H5.6V33.9277C5.6 35.6077 6.19 37.2189 7.2402 38.4068C8.29041 39.5947 9.71479 40.2621 11.2 40.2621H22.4C23.8852 40.2621 25.3096 39.5947 26.3598 38.4068C27.41 37.2189 28 35.6077 28 33.9277V6.47848C28 4.79848 27.41 3.18729 26.3598 1.99936C25.3096 0.811419 23.8852 0.144043 22.4 0.144043ZM0 19.1473H19.1333L13.0667 12.285L14.3061 10.7014L22.7061 20.2031L14.3061 29.7047L13.0667 28.1211L19.1333 21.2588H0V19.1473Z" fill="black"/>
</svg>
