<svg width="53" height="56" viewBox="0 0 53 56" fill="none" xmlns="http://www.w3.org/2000/svg">
<path fill-rule="evenodd" clip-rule="evenodd" d="M26.885 0.0306398C26.4608 0.124645 26.1606 0.331281 25.9463 0.676733C25.743 1.00433 25.73 1.23693 25.73 4.55625C25.73 8.44727 25.7362 8.48583 26.4234 8.89012C26.8633 9.14902 27.6542 9.13532 28.0282 8.8624C28.6719 8.3927 28.6996 8.21609 28.6996 4.56019C28.6996 1.59509 28.6779 1.17623 28.5072 0.84283C28.196 0.234865 27.511 -0.108067 26.885 0.0306398ZM6.84394 6.30882C6.21147 6.69283 5.97245 7.5139 6.30606 8.15649C6.44817 8.43028 10.4528 12.3345 11.3018 13.0268C12.0077 13.6025 13.1671 13.3458 13.557 12.5273C13.9796 11.6402 13.7817 11.3088 11.5723 9.20457C8.38176 6.16584 8.29234 6.09396 7.70486 6.09451C7.39446 6.09473 7.05875 6.17833 6.84394 6.30882ZM45.5591 6.52805C45.3356 6.58163 44.8468 6.94987 44.2392 7.52256C43.7084 8.02271 42.5904 9.07682 41.7546 9.86512C40.9189 10.6534 40.164 11.4314 40.0772 11.5941C39.856 12.0086 39.8813 12.6593 40.1349 13.0733C40.5379 13.7318 41.3959 13.9508 42.0873 13.5717C42.2797 13.4662 43.5252 12.3312 44.8553 11.0492C47.5589 8.44332 47.6661 8.28873 47.3469 7.45605C47.0567 6.69919 46.3581 6.33665 45.5591 6.52805ZM25.1801 11.2358C23.0465 11.4949 20.7194 12.409 18.5515 13.8392C16.7822 15.0066 14.8753 17.2136 13.8043 19.3337C13.3103 20.3114 12.7235 22.0378 12.4576 23.2955C12.1836 24.591 12.1836 27.478 12.4576 28.7736C13.0794 31.7148 14.1722 33.8295 16.376 36.3563C17.8163 38.0077 18.5245 38.9726 19.0533 40.0038L19.5028 40.8803L19.5798 42.6082C19.6493 44.1698 19.6849 44.3935 19.9492 44.9314C20.2771 45.5991 20.7097 46.01 21.4403 46.3484C21.9208 46.5709 22.089 46.5776 27.215 46.5776H32.4947L33.0729 46.3173C33.391 46.1741 33.8056 45.8819 33.9941 45.6678C34.5951 44.9861 34.6783 44.6567 34.7086 42.8371C34.7349 41.2647 34.7533 41.1413 35.0604 40.4665C35.5138 39.4705 36.0874 38.6632 37.749 36.6828C40.1085 33.8707 41.0188 32.2589 41.7094 29.6709C42.039 28.4363 42.0514 28.3073 42.0564 26.0893C42.0611 24.0339 42.0341 23.6775 41.8037 22.7476C41.0763 19.8127 39.7137 17.4251 37.5115 15.2272C35.9814 13.7 33.1609 12.1509 30.8448 11.5659C29.7003 11.2767 29.2836 11.2269 27.7099 11.1907C26.7117 11.1677 25.5733 11.188 25.1801 11.2358ZM30.2398 14.4776C31.3779 14.7824 32.8757 15.4671 33.9436 16.1708C36.2906 17.7174 38.0564 20.2544 38.8263 23.1859C39.1286 24.3377 39.243 26.8307 39.0455 27.9668C38.667 30.1439 37.5739 32.2753 35.7474 34.3979C34.2804 36.1027 34.0677 36.3718 33.4815 37.2647C32.1271 39.328 31.7686 40.3467 31.7275 42.2499L31.6978 43.6194L27.2336 43.648C23.0399 43.6749 22.7628 43.6647 22.664 43.4806C22.606 43.3727 22.558 42.7682 22.5573 42.1371C22.5557 40.6681 22.4327 40.1419 21.7772 38.7986C21.1546 37.523 20.3288 36.3407 19.0204 34.8525C17.3724 32.9779 16.6999 31.9596 16.0169 30.3054C15.3902 28.7873 15.2237 27.8629 15.2382 25.9798C15.2522 24.1669 15.4671 23.0855 16.152 21.3819C16.8178 19.7258 18.4155 17.6552 19.867 16.5675C21.3885 15.4275 23.6679 14.4619 25.4551 14.2005C26.6589 14.0245 29.0689 14.164 30.2398 14.4776ZM0.684261 22.1954C-0.313826 22.8015 -0.194372 24.4289 0.875212 24.7958C1.47193 25.0005 7.46969 24.9882 7.96709 24.7811C8.99102 24.355 9.07055 22.786 8.09809 22.1954C7.7692 21.9956 7.52491 21.9815 4.39117 21.9815C1.25744 21.9815 1.01314 21.9956 0.684261 22.1954ZM44.9019 22.1954C43.9295 22.786 44.009 24.355 45.0329 24.7811C45.5303 24.9882 51.5281 25.0005 52.1248 24.7958C53.1944 24.4289 53.3138 22.8015 52.3157 22.1954C51.9869 21.9956 51.7426 21.9815 48.6088 21.9815C45.4751 21.9815 45.2308 21.9956 44.9019 22.1954ZM22.5952 48.1501C21.8107 48.4055 21.0354 49.1501 20.7332 49.9382C20.5768 50.3461 20.551 50.7359 20.5801 52.246L20.6153 54.063L21.0565 54.7028C21.3753 55.1652 21.665 55.4338 22.1014 55.6713L22.7052 56H27.215C31.6369 56 31.7334 55.9954 32.1722 55.7614C32.7072 55.4762 33.3816 54.7587 33.6327 54.2076C33.7775 53.8897 33.8145 53.451 33.8145 52.048C33.8146 50.306 33.8111 50.2804 33.4835 49.6423C33.1158 48.9262 32.4617 48.3531 31.8045 48.1713C31.3555 48.047 22.9709 48.0279 22.5952 48.1501ZM30.7898 52.0557V53.0966H27.16H23.5302V52.0557V51.0149H27.16H30.7898V52.0557Z" fill="#013563"/>
</svg>
