<svg width="164" height="115" viewBox="0 0 164 115" fill="none" xmlns="http://www.w3.org/2000/svg">
<path fill-rule="evenodd" clip-rule="evenodd" d="M56.0542 12.5746C55.8038 12.8398 55.6816 13.1039 55.659 13.4291C55.6248 13.92 55.7454 14.2127 56.2684 14.908C56.7739 15.5802 57.0605 15.8591 58.2861 16.8725C58.7866 17.2863 59.2601 17.7253 59.5098 18.0069C59.7337 18.2596 60.0906 18.6164 60.3027 18.8C60.7024 19.1457 61.6635 19.8207 62.2397 20.1602C62.6811 20.4204 63.022 20.8182 63.3325 21.4359C63.85 22.465 64.4457 23.2184 64.9826 23.5226C65.486 23.8078 66.7461 23.8182 67.1204 23.5403C67.4668 23.2831 67.4779 22.9909 67.1752 22.1093C66.9142 21.3491 66.7095 20.9729 66.229 20.37C65.822 19.8593 65.7903 19.8315 65.3243 19.5761C64.6446 19.2036 64.4277 18.982 63.6754 17.8924C62.7854 16.6033 61.2394 14.7627 60.6343 14.2717C60.4219 14.0994 60.2844 14.038 60.0134 13.9948C59.591 13.9273 59.5033 13.8391 59.6906 13.6699C59.8152 13.5573 59.8165 13.5339 59.7079 13.3583C59.4764 12.9843 58.7464 12.4568 58.148 12.2312C57.3088 11.9149 56.5616 12.0375 56.0542 12.5746ZM63.5138 9.3845C63.2819 9.66584 63.1818 10.2836 63.2852 10.7956C63.3318 11.0264 63.3667 11.0909 63.4895 11.1727C64.313 11.7215 64.9735 12.5398 65.4244 13.5694C65.7604 14.3367 65.9756 14.7433 66.4813 15.566C67.0344 16.4657 67.2573 17.0247 67.1321 17.1983C67.0857 17.2626 67.1014 17.3292 67.1914 17.4499C67.3227 17.6258 68.0495 18.3959 68.4717 18.8062C68.8462 19.1702 69.1286 19.5679 69.1333 19.7378C69.1354 19.8169 69.26 20.0923 69.4101 20.3499L69.683 20.8182L70.1244 21.0113C70.8463 21.327 71.2987 21.2701 71.4133 20.8492C71.4945 20.5508 71.6555 20.4731 72.034 20.5498C72.2154 20.5865 72.3842 20.6015 72.4091 20.583C72.4368 20.5624 72.2665 20.2782 71.9712 19.852C71.26 18.826 69.6508 15.6264 69.023 13.9904C68.6495 13.0172 68.3146 12.5665 67.722 12.2393L67.4419 12.0847L67.5203 11.7723C67.6281 11.3428 67.6137 11.1183 67.4553 10.7531C67.3419 10.4918 67.289 10.4196 67.1334 10.3131C66.8989 10.1525 66.4997 10.0478 66.0899 10.0393C65.5504 10.0282 65.4169 9.77725 65.7994 9.49325C65.9472 9.38349 65.9595 9.35346 65.8932 9.26409C65.7192 9.02977 64.9634 8.8611 64.3881 8.92825C64.0827 8.96395 63.6926 9.16746 63.5138 9.3845ZM53.8646 18.3236C53.5818 18.8805 53.6221 19.6682 53.9692 20.3657C54.2153 20.8603 54.5758 21.1994 55.385 21.6975C56.2414 22.2246 56.5624 22.4957 57.4113 23.4086C58.6972 24.7914 60.1119 26.0645 61.1009 26.7286C61.674 27.1136 62.1214 27.3152 62.8372 27.5111C64.2448 27.8964 64.7247 28.3021 65.196 29.5053C65.4346 30.1145 65.6641 30.4872 65.8564 30.5779C65.9173 30.6066 66.2741 30.5728 66.6493 30.5028C67.3146 30.3788 67.3637 30.3801 68.6078 30.5547C69.3096 30.6532 70.0549 30.7859 70.264 30.8496L70.6441 30.9656L70.9276 30.7551C71.0835 30.6394 71.4507 30.2732 71.7437 29.9414C72.0366 29.6097 72.3359 29.2939 72.4089 29.2397C72.4819 29.1855 72.6814 29.1309 72.8523 29.1183C73.0231 29.1057 73.2162 29.0558 73.2812 29.0076C73.4847 28.8564 73.7748 28.3844 74.331 27.2994C74.9238 26.143 74.989 26.0373 75.0851 26.0755C75.164 26.1069 75.1635 26.3436 75.0825 27.1853C74.9572 28.4884 75.0394 29.1572 75.427 29.9885L75.635 30.4347L76.0484 30.6517C76.437 30.8558 76.4811 30.8949 76.7857 31.3052C76.9869 31.5761 77.2862 32.0831 77.5748 32.6419C77.8305 33.1371 78.1017 33.6521 78.1774 33.7863C78.5752 34.4918 78.7186 34.9851 78.5995 35.2376C78.4553 35.5431 78.1143 35.6098 77.4462 35.4631C76.9205 35.3477 76.4599 35.37 75.7128 35.547C75.0747 35.6982 74.6582 35.6811 74.2182 35.4855C73.9082 35.3478 73.374 35.2406 73.2939 35.3001C73.2716 35.3167 73.1191 35.3621 72.9553 35.4009C72.7032 35.4606 72.5634 35.4428 72.0464 35.2853C71.483 35.1136 71.1371 35.0806 70.699 35.1569C70.6099 35.1724 70.4801 35.1536 70.4105 35.1152C70.2995 35.0539 70.287 35.0033 70.3093 34.7062C70.3233 34.5197 70.3101 34.225 70.2799 34.0511C70.1896 33.5303 70.1698 32.8951 70.2322 32.5209C70.3249 31.9652 70.1871 31.9359 69.8631 32.4424C69.7503 32.6187 69.6698 32.8748 69.6074 33.2555C69.5163 33.812 69.4786 33.9029 69.3587 33.8552C69.2165 33.7987 69.1939 33.5441 69.2699 32.8556C69.3556 32.0786 69.3138 31.6922 69.1151 31.4245C68.9394 31.1879 68.7499 31.1385 68.5337 31.2728C68.4207 31.3431 68.3456 31.3591 68.3259 31.3171C68.2751 31.2086 67.9946 31.0975 67.7137 31.0746C67.3283 31.043 66.9918 31.1153 66.7736 31.2764C66.668 31.3543 66.3346 31.5053 66.0326 31.6118C65.3257 31.8612 64.7715 32.2438 64.4874 32.6785C64.2516 33.0394 64.0213 33.5994 63.891 34.129C63.7666 34.6348 63.7346 34.6379 63.1725 34.1985C62.6264 33.7716 62.1304 33.5597 61.3512 33.4206C60.6624 33.2976 60.2362 33.1159 59.3623 32.5726C58.8641 32.263 58.2835 31.9922 58.0164 31.9448C57.8721 31.9193 57.7648 31.9412 57.6625 32.0171C57.4687 32.1611 57.3643 32.1059 56.5997 31.4559C56.1663 31.0874 55.8529 30.7715 55.5116 30.3593C54.9775 29.7141 54.7972 29.5876 54.4569 29.6192C54.0398 29.6579 53.5078 30.0762 52.9044 30.84C52.4301 31.4402 52.3688 32.0104 52.7267 32.4923C53.1431 33.0531 54.215 33.5754 55.5143 33.8507C56.1387 33.9831 56.419 33.9792 56.6122 33.8358C56.7335 33.7457 56.7651 33.7535 57.0138 33.9358C57.3336 34.17 57.66 34.3177 58.2129 34.4783C58.782 34.6436 59.8144 34.7823 59.9157 34.707C59.9624 34.6724 60.0244 34.5384 60.0537 34.4093C60.2241 33.6568 60.3298 33.6269 60.5843 34.2592C60.7823 34.7511 61.26 35.1561 61.8789 35.3571C62.1431 35.4428 62.2535 35.4399 62.6499 35.3363C63.1181 35.214 63.5525 35.1944 63.8718 35.2811C64.081 35.338 64.3399 35.6616 64.3687 35.9021C64.3816 36.0101 64.4938 36.2047 64.7179 36.5085C65.552 37.6385 66.6167 38.146 67.9996 38.0727C68.643 38.0387 68.8443 37.9807 69.1771 37.7336C69.6222 37.4031 69.6559 37.4154 70.0088 38.0377C70.1937 38.3637 70.4207 38.69 70.6248 38.9232C71.0657 39.4271 72.0667 40.3823 72.4579 40.6727C72.7264 40.872 72.9206 41.0898 73.6429 42.0009C74.2529 42.7703 74.5837 43.1507 74.7682 43.2945C75.3361 43.7371 76.538 44.2378 77.2157 44.3141C77.6268 44.3604 77.6801 44.3453 78.1438 44.0509C78.3645 43.9108 78.6358 43.8095 79.1162 43.6878C79.7315 43.532 79.8011 43.502 80.0257 43.2957C80.4988 42.8613 80.8353 42.1552 81.2918 40.6395C81.625 39.5326 81.6728 39.4282 81.8642 39.3871C81.9433 39.3701 82.0653 39.3138 82.1352 39.2619C82.2955 39.1428 83.1525 38.1458 83.5257 37.6441C84.0882 36.888 84.862 35.9833 85.2231 35.6597C85.5181 35.3954 85.6106 35.278 85.6844 35.0742C85.8818 34.5295 85.9455 33.6656 85.9656 31.2585C85.9788 29.6777 85.9529 29.1892 85.8484 29.0484C85.8049 28.9899 85.5995 28.8999 85.3861 28.8457C84.9689 28.7399 84.7962 28.5889 84.8433 28.3713C84.8583 28.3018 84.97 27.9972 85.0914 27.6946C85.3996 26.926 85.4423 26.427 85.2437 25.9159C85.1542 25.6853 84.9419 25.5207 84.7187 25.5088C84.475 25.4958 83.3078 25.7787 83.0964 25.902C82.9768 25.9718 82.7238 26.1711 82.5342 26.3447C82.3447 26.5184 82.1244 26.6955 82.0446 26.7384C81.563 26.9971 77.6023 25.9027 76.8621 25.3063C76.5327 25.0409 76.2942 24.9871 75.8405 25.0757C75.5965 25.1234 75.4104 25.1266 75.3645 25.0838C75.2588 24.9856 75.3648 24.4378 75.533 24.2123C75.7242 23.9562 75.6704 23.7828 75.212 23.1763C74.7793 22.6038 74.3319 22.1534 74.0208 21.9771C73.7517 21.8246 71.7976 21.4635 71.6261 21.5345C71.4674 21.6003 71.4501 21.696 71.5055 22.2002C71.5589 22.6859 71.5073 22.9084 71.3435 22.8996C71.2857 22.8965 71.1123 22.8111 70.9584 22.7099C70.196 22.2089 70.2952 22.1832 69.0123 23.2147C67.8056 24.185 67.295 24.5551 66.715 24.8798C66.1519 25.1949 66.0998 25.2778 66.1275 25.814C66.1493 26.2383 66.08 26.607 65.7968 27.5711C65.6341 28.1247 65.5313 28.2913 65.2837 28.4026C65.0782 28.495 64.9992 28.4291 64.9073 28.088C64.8075 27.7172 64.6678 27.5325 64.3505 27.3514C63.9745 27.1367 63.8002 26.8921 63.8337 26.6259C63.9148 25.9807 63.3569 24.7563 62.6407 24.0078C62.2268 23.5752 61.8278 23.3054 60.9076 22.836C59.6897 22.2147 59.6786 22.204 59.4362 21.4285C59.2284 20.7637 59.0263 20.5634 58.2229 20.2264L57.7907 20.0451L57.2078 19.266C56.5676 18.4103 56.5693 18.4118 55.6782 17.9547C54.8124 17.5105 54.2159 17.6319 53.8646 18.3236ZM81.3379 14.1565C81.0639 14.4862 80.8535 15.0878 80.749 15.8401C80.644 16.5967 80.6803 17.2841 80.8603 17.9413C80.9922 18.4228 81.0296 18.4976 81.3667 18.9527C81.7105 19.4168 81.7511 19.4547 82.0952 19.6325C82.804 19.9987 83.4044 19.9207 84.165 19.3636C84.5432 19.0866 84.6309 18.9986 84.7228 18.8037C84.9978 18.2205 84.9364 17.4248 84.5389 16.4218C84.4285 16.1433 84.2295 15.6422 84.0968 15.3083C83.7832 14.5197 83.477 14.0885 83.1623 13.9924C82.7851 13.8772 81.9602 13.7582 81.818 13.7984C81.6612 13.8427 81.4967 13.9654 81.3379 14.1565ZM82.8321 21.8031C82.8765 22.2794 82.9443 22.7113 82.9827 22.7631C83.1256 22.9555 83.5617 22.8213 83.8023 22.5108C83.9282 22.3482 83.9816 22.3086 84.0685 22.3133C84.1895 22.3199 84.4145 22.5985 84.5843 22.9522C84.6999 23.1931 84.7505 23.2029 84.7322 22.9809C84.7256 22.9001 84.7213 22.4281 84.7226 21.932C84.7252 20.9375 84.6995 20.69 84.5766 20.5244C84.4434 20.345 84.3551 20.4055 84.3065 20.7094C84.2339 21.1621 84.128 21.188 83.1753 20.9859C82.9658 20.9415 82.7847 20.9123 82.7729 20.9211C82.7611 20.9299 82.7877 21.3268 82.8321 21.8031Z" fill="#C40505"/>
<path fill-rule="evenodd" clip-rule="evenodd" d="M148.447 46.9396C148.375 46.5833 148.229 46.3322 147.977 46.1271C147.597 45.8177 147.289 45.748 146.422 45.7753C145.584 45.8017 145.193 45.8752 143.663 46.2927C143.039 46.4632 142.41 46.5973 142.037 46.6392C141.702 46.6767 141.207 46.7628 140.935 46.8304C140.424 46.9578 139.323 47.3539 138.715 47.6287C138.25 47.8392 137.73 47.8887 137.049 47.7875C135.913 47.6187 134.957 47.672 134.401 47.9351C133.88 48.1817 133.148 49.2028 133.16 49.6674C133.171 50.0972 133.403 50.274 134.295 50.5331C135.064 50.7565 135.488 50.8056 136.255 50.7598C136.905 50.7211 136.946 50.7113 137.422 50.478C138.115 50.1377 138.42 50.088 139.74 50.1001C141.301 50.1143 143.689 49.9104 144.436 49.6989C144.698 49.6246 144.827 49.5478 145.018 49.3517C145.315 49.0461 145.437 49.0253 145.468 49.275C145.488 49.4411 145.507 49.4557 145.712 49.4678C146.15 49.4938 146.998 49.2015 147.526 48.8432C148.265 48.3407 148.594 47.6613 148.447 46.9396ZM146.767 54.85C146.671 54.4995 146.225 54.0635 145.748 53.854C145.533 53.7595 145.461 53.751 145.324 53.8041C144.404 54.1604 143.358 54.2293 142.26 54.006C141.442 53.8396 140.987 53.7817 140.026 53.7219C138.975 53.6564 138.392 53.5174 138.322 53.3157C138.296 53.241 138.233 53.2156 138.083 53.2197C137.864 53.2258 136.82 53.3763 136.243 53.485C135.732 53.5814 135.245 53.5834 135.104 53.4897C135.039 53.4461 134.743 53.3896 134.447 53.3641L133.908 53.3178L133.498 53.5669C132.826 53.9741 132.613 54.3754 132.89 54.7103C133.087 54.9477 133.058 55.1236 132.778 55.3881C132.644 55.5148 132.535 55.6438 132.536 55.6747C132.537 55.7091 132.866 55.7334 133.383 55.7372C134.627 55.7463 138.158 56.2705 139.852 56.6975C140.859 56.9515 141.419 56.9371 142.026 56.6418L142.312 56.5023L142.522 56.7454C142.81 57.0797 143.002 57.1968 143.39 57.2772C143.668 57.3347 143.757 57.3331 143.933 57.2674C144.199 57.1684 144.513 56.903 144.755 56.5739C145.074 56.1406 145.355 56.1758 145.367 56.6505C145.372 56.8339 145.389 56.8612 145.5 56.8584C145.791 56.851 146.362 56.3317 146.637 55.8244C146.783 55.5549 146.841 55.1202 146.767 54.85ZM145.018 41.8563C144.726 41.3062 144.061 40.8872 143.293 40.7699C142.749 40.6867 142.266 40.786 141.395 41.1597C140.474 41.5553 140.069 41.6614 138.838 41.8294C136.973 42.0841 135.124 42.5067 134.015 42.9317C133.373 43.178 132.951 43.4269 132.381 43.8979C131.259 44.8242 130.653 44.9825 129.402 44.6763C128.769 44.5212 128.333 44.4944 128.149 44.5991C128.091 44.6323 127.914 44.9424 127.755 45.2885C127.475 45.9019 127.446 45.9412 126.589 46.855C126.106 47.3705 125.571 47.9018 125.399 48.0356L125.086 48.279L125.095 48.6307C125.1 48.8242 125.188 49.3336 125.29 49.7627C125.392 50.1919 125.478 50.617 125.48 50.7076C125.482 50.7981 125.413 50.9921 125.325 51.1386C125.237 51.2851 125.167 51.471 125.169 51.5517C125.175 51.8044 125.394 52.3116 125.959 53.3875C126.561 54.5342 126.61 54.6479 126.524 54.7044C126.453 54.7507 126.26 54.6144 125.621 54.0655C124.63 53.2156 124.038 52.8989 123.138 52.7379L122.655 52.6514L122.241 52.8638C121.852 53.0635 121.795 53.0769 121.285 53.0898C120.949 53.0983 120.364 53.0514 119.743 52.966C119.193 52.8903 118.618 52.8158 118.465 52.8005C117.661 52.72 117.177 52.5538 117.04 52.3118C116.873 52.0191 117.015 51.7029 117.518 51.2425C117.913 50.8802 118.159 50.492 118.444 49.7815C118.687 49.1747 118.94 48.845 119.351 48.5986C119.642 48.425 120.035 48.0511 120.033 47.9516C120.032 47.9239 120.083 47.7736 120.145 47.6178C120.241 47.3781 120.336 47.2743 120.761 46.9434C121.224 46.5826 121.449 46.3196 121.638 45.9188C121.677 45.8373 121.767 45.7422 121.838 45.7076C121.952 45.6523 122 45.6711 122.229 45.8598C122.373 45.9782 122.621 46.1365 122.78 46.2117C123.256 46.4369 123.786 46.7852 124.055 47.0508C124.455 47.4452 124.557 47.3497 124.331 46.7949C124.252 46.6019 124.089 46.3893 123.815 46.1201C123.413 45.7265 123.361 45.6436 123.468 45.5732C123.596 45.4897 123.817 45.6174 124.334 46.0744C124.918 46.5901 125.257 46.7778 125.589 46.7693C125.883 46.7619 126.032 46.6359 126.047 46.3826C126.054 46.2501 126.084 46.1797 126.13 46.1878C126.247 46.2086 126.499 46.0438 126.679 45.828C126.926 45.5319 127.06 45.2162 127.054 44.9459C127.051 44.8151 127.119 44.4568 127.205 44.1495C127.408 43.4302 127.414 42.759 127.223 42.278C127.064 41.8788 126.739 41.3697 126.383 40.9597C126.042 40.5681 126.057 40.5402 126.738 40.3342C127.399 40.1341 127.857 39.8514 128.417 39.2961C128.913 38.8053 129.305 38.5621 130.249 38.1615C130.788 37.9331 131.342 37.6153 131.533 37.4248C131.637 37.3219 131.681 37.2218 131.678 37.0949C131.671 36.8543 131.776 36.8008 132.745 36.5507C133.294 36.4088 133.731 36.3346 134.263 36.2929C135.095 36.2278 135.302 36.1534 135.471 35.8579C135.679 35.4958 135.643 34.8221 135.367 33.8921C135.15 33.1612 134.72 32.7841 134.122 32.7992C133.426 32.8168 132.386 33.3908 131.416 34.2918C130.949 34.7249 130.792 34.9555 130.798 35.1952C130.802 35.3459 130.777 35.3671 130.486 35.4653C130.112 35.5915 129.804 35.7728 129.356 36.1313C128.895 36.5003 128.189 37.2622 128.192 37.388C128.194 37.4458 128.267 37.5733 128.356 37.6712C128.871 38.2419 128.835 38.3452 128.174 38.1898C127.659 38.069 127.055 38.2259 126.536 38.6151C126.315 38.7812 126.254 38.8729 126.111 39.2554C125.942 39.7072 125.708 40.0725 125.454 40.283C125.288 40.4208 124.876 40.4462 124.663 40.3317C124.568 40.2803 124.345 40.26 123.969 40.2684C122.569 40.2999 121.545 40.8764 120.811 42.0456C120.469 42.5896 120.401 42.7869 120.412 43.1999C120.426 43.7524 120.396 43.7728 119.686 43.7034C119.315 43.667 118.919 43.6647 118.611 43.6973C117.948 43.7676 116.595 44.0353 116.134 44.1876C115.817 44.2921 115.528 44.3255 114.371 44.3913C113.394 44.447 112.894 44.4984 112.671 44.5663C111.985 44.7752 110.887 45.4676 110.436 45.9761C110.162 46.2846 110.144 46.3367 110.118 46.8836C110.105 47.1439 110.032 47.4231 109.856 47.8844C109.63 48.4754 109.614 48.5493 109.653 48.8508C109.736 49.4856 110.118 50.165 111.092 51.4067C111.803 52.3135 111.861 52.4123 111.784 52.5919C111.753 52.6661 111.729 52.7979 111.731 52.8846C111.736 53.0836 112.057 54.3541 112.252 54.9462C112.545 55.8385 112.839 56.9882 112.895 57.4682C112.941 57.8603 112.984 58.0031 113.108 58.1802C113.438 58.6537 114.106 59.2012 116.056 60.5987C117.337 61.5165 117.75 61.7757 117.925 61.7712C117.998 61.7694 118.189 61.6536 118.355 61.5108C118.681 61.2315 118.903 61.1773 119.054 61.3406C119.102 61.3927 119.286 61.6585 119.463 61.9311C119.912 62.6232 120.295 62.9444 120.825 63.0758C121.064 63.1351 121.32 63.0566 121.458 62.8815C121.608 62.6903 122.048 61.5766 122.068 61.3336C122.08 61.196 122.063 60.8755 122.03 60.6214C121.997 60.3672 121.979 60.086 121.99 59.9964C122.056 59.4554 125.22 56.8552 126.131 56.5941C126.536 56.4779 126.717 56.3144 126.905 55.8937C127.006 55.6675 127.11 55.514 127.172 55.5011C127.312 55.4713 127.698 55.872 127.785 56.1385C127.884 56.4412 128.057 56.4969 128.814 56.4713C129.529 56.4471 130.153 56.3408 130.475 56.1884C130.753 56.0566 132.169 54.6711 132.209 54.4906C132.247 54.3235 132.179 54.2545 131.736 54.0104C131.31 53.7752 131.158 53.6055 131.259 53.477C131.295 53.4317 131.464 53.3394 131.635 53.2719C132.48 52.9381 132.444 53.0336 132.34 51.3962C132.241 49.8559 132.233 49.2274 132.301 48.5683C132.367 47.9286 132.329 47.8385 131.876 47.5534C131.518 47.3278 131.257 47.0598 130.634 46.2757C130.276 45.8255 130.199 45.6462 130.251 45.3804C130.293 45.1599 130.392 45.1334 130.723 45.2542C131.083 45.3856 131.313 45.3777 131.643 45.223C132.034 45.0397 132.333 45.038 132.531 45.218C133.01 45.6544 134.328 45.9021 135.349 45.7479C135.939 45.6588 136.388 45.4883 137.299 45.0077C138.504 44.3715 138.519 44.3686 139.29 44.616C139.951 44.8281 140.23 44.7783 140.966 44.3168L141.362 44.0686L142.331 44.0405C143.396 44.0097 143.394 44.0102 144.278 43.5462C145.136 43.0954 145.38 42.5395 145.018 41.8563ZM132.651 66.6395C132.539 66.2271 132.17 65.7103 131.616 65.1936C131.06 64.6738 130.479 64.3091 129.84 64.0786C129.372 63.9099 129.289 63.8975 128.725 63.9111C128.149 63.925 128.095 63.9363 127.753 64.1148C127.048 64.4823 126.767 65.0165 126.784 65.9561C126.793 66.4233 126.815 66.5453 126.921 66.7319C127.238 67.2908 127.922 67.6973 128.968 67.9487C129.258 68.0186 129.781 68.1439 130.129 68.2273C130.952 68.4242 131.479 68.422 131.738 68.2207C132.048 67.9793 132.618 67.3753 132.667 67.2363C132.721 67.0831 132.715 66.8786 132.651 66.6395ZM125.561 63.47C125.147 63.233 124.756 63.0403 124.692 63.0419C124.453 63.048 124.312 63.4804 124.427 63.8547C124.488 64.0506 124.489 64.1168 124.436 64.185C124.361 64.2799 124.005 64.3034 123.619 64.2388C123.356 64.1948 123.319 64.2304 123.511 64.3429C123.58 64.3839 123.968 64.6511 124.371 64.9369C125.18 65.5097 125.397 65.6307 125.602 65.6255C125.825 65.6199 125.826 65.5132 125.606 65.2992C125.279 64.9803 125.319 64.8792 126.03 64.2185C126.186 64.0733 126.314 63.9425 126.314 63.9278C126.313 63.9131 125.975 63.7071 125.561 63.47Z" fill="#05ABC4"/>
<path fill-rule="evenodd" clip-rule="evenodd" d="M109.621 8.31869C109.266 8.2412 108.977 8.27269 108.688 8.42058C108.251 8.64387 108.063 8.89734 107.738 9.7014C107.424 10.4787 107.334 10.8668 107.099 12.4345C107.003 13.0746 106.871 13.7047 106.759 14.0626C106.659 14.3838 106.537 14.872 106.49 15.1475C106.4 15.6666 106.318 16.8344 106.324 17.501C106.329 18.0117 106.165 18.5073 105.797 19.09C105.184 20.0611 104.847 20.9572 104.863 21.572C104.879 22.1486 105.518 23.2298 105.948 23.4066C106.345 23.5701 106.601 23.4293 107.198 22.7175C107.713 22.1038 107.929 21.7356 108.196 21.0152C108.423 20.4051 108.431 20.3638 108.409 19.8345C108.378 19.0626 108.455 18.7634 108.999 17.5607C109.642 16.1379 110.419 13.8714 110.527 13.1022C110.565 12.8322 110.546 12.6833 110.444 12.4297C110.284 12.0342 110.315 11.9141 110.555 11.9869C110.716 12.0355 110.736 12.0245 110.83 11.8415C111.031 11.4515 111.106 10.5569 110.991 9.92997C110.829 9.05075 110.34 8.47576 109.621 8.31869ZM116.181 13.048C115.821 12.9946 115.242 13.2268 114.858 13.5784C114.685 13.7368 114.648 13.7998 114.641 13.9467C114.596 14.9321 114.237 15.9169 113.59 16.8314C113.107 17.5127 112.871 17.9056 112.428 18.7604C111.944 19.6953 111.582 20.1731 111.369 20.1555C111.29 20.149 111.241 20.1966 111.185 20.3355C111.102 20.5381 110.818 21.5547 110.685 22.1262C110.567 22.6331 110.372 23.0787 110.229 23.1701C110.163 23.2126 109.992 23.4606 109.849 23.7212L109.59 24.195L109.652 24.6712C109.753 25.4499 110.035 25.807 110.453 25.6884C110.749 25.6043 110.899 25.7019 111.028 26.0645C111.09 26.2383 111.164 26.3901 111.192 26.4018C111.224 26.4149 111.379 26.1234 111.591 25.652C112.102 24.5172 114.006 21.4979 115.08 20.1206C115.719 19.3012 115.932 18.7836 115.907 18.1093L115.895 17.7906L116.202 17.6969C116.624 17.5681 116.808 17.4404 117.039 17.1173C117.203 16.8861 117.238 16.8039 117.249 16.6162C117.265 16.3334 117.149 15.9387 116.946 15.5844C116.678 15.118 116.824 14.875 117.263 15.0556C117.433 15.1254 117.465 15.1204 117.507 15.0178C117.617 14.7487 117.373 14.0166 117.02 13.56C116.832 13.3175 116.458 13.0891 116.181 13.048ZM103.586 9.40513C102.965 9.44997 102.313 9.88947 101.896 10.5445C101.6 11.009 101.496 11.4912 101.487 12.4382C101.477 13.4406 101.411 13.8541 101.068 15.0483C100.548 16.8574 100.188 18.72 100.13 19.906C100.096 20.5933 100.154 21.079 100.354 21.791C100.749 23.1911 100.65 23.8094 99.8646 24.8305C99.4671 25.3475 99.2668 25.7351 99.2883 25.946C99.2951 26.0127 99.5074 26.3 99.7601 26.5844C100.208 27.0887 100.232 27.1313 100.723 28.2834C101 28.9333 101.27 29.638 101.323 29.8493L101.419 30.2335L101.745 30.3673C101.924 30.4409 102.425 30.5662 102.859 30.6458C103.293 30.7253 103.716 30.8185 103.8 30.853C103.884 30.8874 104.033 31.0297 104.132 31.1691C104.231 31.3086 104.372 31.4478 104.447 31.4785C104.681 31.5745 105.233 31.5796 106.445 31.4966C107.738 31.4081 107.861 31.4094 107.878 31.5112C107.892 31.5947 107.69 31.716 106.929 32.0796C105.752 32.6426 105.223 33.0567 104.713 33.8152L104.439 34.2222L104.466 34.6867C104.492 35.1236 104.481 35.1812 104.287 35.6524C104.159 35.9634 103.88 36.4797 103.551 37.0135C103.26 37.4865 102.96 37.9829 102.884 38.1165C102.486 38.8189 102.139 39.1951 101.862 39.2232C101.527 39.2572 101.295 39.0003 101.076 38.3544C100.905 37.8461 100.649 37.4643 100.113 36.9174C99.6562 36.4502 99.4566 36.0858 99.3974 35.6095C99.3556 35.274 99.1724 34.7628 99.0804 34.725C99.0547 34.7144 98.9376 34.6076 98.8202 34.4877C98.6396 34.3031 98.5829 34.1745 98.4516 33.6521C98.3085 33.0827 98.1588 32.7704 97.8683 32.4355C97.8094 32.3674 97.7586 32.2469 97.7556 32.1677C97.7509 32.0415 97.7877 32.0048 98.0528 31.871C98.2193 31.7871 98.4642 31.6242 98.5971 31.5091C98.9954 31.1642 99.5276 30.8207 99.8792 30.6815C100.401 30.4749 100.356 30.3422 99.7564 30.326C99.5479 30.3203 99.2878 30.3832 98.9307 30.5258C98.4087 30.7341 98.3117 30.7486 98.2907 30.6217C98.2658 30.4712 98.4716 30.321 99.0986 30.0319C99.8062 29.7055 100.115 29.4712 100.241 29.1639C100.353 28.8922 100.297 28.7049 100.072 28.5894C99.9534 28.529 99.9012 28.4732 99.9269 28.4347C99.9934 28.3356 99.9441 28.039 99.8192 27.7873C99.648 27.4419 99.4132 27.1918 99.1635 27.0883C99.0426 27.0382 98.7423 26.8311 98.4961 26.6281C97.9196 26.1527 97.3079 25.8762 96.7907 25.8571C96.3613 25.8413 95.7646 25.9326 95.2455 26.0937C94.7496 26.2476 94.7305 26.2219 94.8167 25.5159C94.9004 24.8301 94.8262 24.2977 94.5444 23.5607C94.2952 22.9093 94.2312 22.452 94.2457 21.4264C94.2539 20.8418 94.1867 20.2068 94.0897 19.9543C94.0374 19.818 93.9635 19.7377 93.8461 19.6894C93.6235 19.5979 93.6169 19.4803 93.7788 18.4932C93.8706 17.9337 93.9791 17.5036 94.1556 17.0003C94.4319 16.2124 94.4472 15.9934 94.2452 15.7191C93.9978 15.3828 93.367 15.1436 92.4046 15.0211C91.6482 14.9248 91.1298 15.1656 90.9023 15.719C90.6375 16.3629 90.7427 17.5468 91.1757 18.7978C91.3838 19.3991 91.5312 19.6365 91.753 19.7276C91.8923 19.7849 91.9019 19.8159 91.8742 20.122C91.8386 20.5155 91.8803 20.8702 92.0275 21.4248C92.179 21.9958 92.5914 22.9487 92.7078 22.9965C92.7613 23.0185 92.9076 23.0026 93.0329 22.9612C93.7631 22.7197 93.843 22.7946 93.434 23.3371C93.1157 23.7591 93.0155 24.3753 93.1622 25.0071C93.2248 25.2768 93.2841 25.3696 93.5763 25.6547C93.9216 25.9917 94.1616 26.3525 94.2518 26.6697C94.3108 26.8776 94.1676 27.2651 93.977 27.4134C93.8915 27.4799 93.7829 27.6757 93.6388 28.0234C93.1028 29.3166 93.2169 30.4867 93.9906 31.6299C94.3505 32.1618 94.5035 32.3039 94.8856 32.461C95.3967 32.6711 95.4035 32.7062 95.0537 33.3275C94.8703 33.653 94.7084 34.0146 94.6142 34.3089C94.4107 34.9444 94.1097 36.2903 94.0629 36.7736C94.0308 37.1054 93.9448 37.3833 93.5381 38.4685C93.1948 39.385 93.0401 39.863 93.0122 40.0946C92.9262 40.807 93.1167 42.0909 93.4 42.7088C93.5719 43.0836 93.6122 43.1213 94.102 43.3659C94.3351 43.4823 94.5611 43.6619 94.912 44.0095C95.3615 44.4548 95.4229 44.4988 95.7146 44.5845C96.3287 44.7651 97.1047 44.6894 98.6336 44.2998C99.7502 44.0152 99.8639 44.0023 99.9974 44.1446C100.053 44.2034 100.163 44.2786 100.244 44.3116C100.428 44.3873 101.72 44.6063 102.34 44.6671C103.275 44.7585 104.445 44.9541 104.907 45.0961C105.285 45.212 105.433 45.2306 105.645 45.1889C106.211 45.0774 106.982 44.6875 109.047 43.4669C110.404 42.6654 110.808 42.3921 110.874 42.2305C110.902 42.1633 110.873 41.9415 110.81 41.7315C110.685 41.3209 110.726 41.0958 110.936 41.024C111.003 41.0011 111.32 40.9399 111.641 40.8879C112.456 40.7559 112.904 40.5358 113.238 40.1034C113.389 39.9084 113.42 39.6425 113.316 39.4458C113.202 39.231 112.36 38.3798 112.146 38.2627C112.025 38.1965 111.724 38.0829 111.479 38.0103C111.233 37.9378 110.968 37.8407 110.891 37.7947C110.422 37.5165 109.32 33.5717 109.449 32.633C109.506 32.2153 109.429 31.9839 109.12 31.6421C108.954 31.4582 108.856 31.301 108.869 31.2398C108.898 31.099 109.42 30.9078 109.699 30.9356C110.016 30.9671 110.137 30.832 110.419 30.1288C110.685 29.4648 110.84 28.8512 110.831 28.4949C110.822 28.1867 110.126 26.3324 109.977 26.2226C109.839 26.1209 109.749 26.1553 109.347 26.4619C108.959 26.7572 108.743 26.8276 108.666 26.6832C108.639 26.6322 108.623 26.4403 108.63 26.2568C108.666 25.3482 108.739 25.4197 107.198 24.8546C105.749 24.3231 105.171 24.0774 104.595 23.7491C104.037 23.4304 103.939 23.4285 103.496 23.7278C103.144 23.9647 102.794 24.095 101.825 24.3489C101.269 24.4947 101.074 24.4926 100.851 24.3384C100.667 24.2104 100.682 24.1091 100.926 23.8553C101.192 23.5794 101.278 23.3651 101.269 23.001C101.259 22.5696 101.378 22.2949 101.623 22.1866C102.215 21.9241 102.974 20.8182 103.245 19.8218C103.401 19.2459 103.427 18.7664 103.354 17.7394C103.259 16.3799 103.262 16.3649 103.8 15.7592C104.26 15.24 104.327 14.9644 104.202 14.105L104.135 13.6428L104.5 12.7444C104.902 11.7578 104.901 11.76 104.833 10.7641C104.768 9.79641 104.357 9.34947 103.586 9.40513ZM121.271 30.7216C120.849 30.6572 120.227 30.7868 119.531 31.0844C118.83 31.3838 118.262 31.7683 117.794 32.2599C117.45 32.6201 117.406 32.6905 117.19 33.2124C116.971 33.7446 116.959 33.7987 116.984 34.184C117.036 34.9775 117.412 35.45 118.278 35.8131C118.709 35.9936 118.83 36.0232 119.043 36.0015C119.683 35.9365 120.331 35.4749 120.983 34.6197C121.164 34.3822 121.489 33.9547 121.706 33.6696C122.218 32.9963 122.429 32.5131 122.349 32.1951C122.254 31.8137 121.931 31.0482 121.824 30.9474C121.705 30.8363 121.516 30.7589 121.271 30.7216ZM115.51 35.9293C115.126 36.2122 114.792 36.4922 114.768 36.5516C114.677 36.7725 115.016 37.0759 115.404 37.1217C115.608 37.1456 115.669 37.1708 115.71 37.2474C115.767 37.3541 115.644 37.6895 115.43 38.0164C115.283 38.239 115.301 38.2872 115.481 38.1575C115.547 38.1102 115.948 37.8638 116.372 37.6098C117.222 37.1008 117.421 36.9516 117.499 36.7614C117.583 36.5555 117.486 36.5112 117.202 36.6259C116.778 36.7968 116.702 36.7196 116.384 35.8022C116.314 35.6005 116.246 35.4309 116.233 35.4253C116.219 35.4197 115.894 35.6465 115.51 35.9293Z" fill="#006917"/>
<path fill-rule="evenodd" clip-rule="evenodd" d="M161.872 86.3692C161.522 86.3345 161.471 86.367 161.333 86.713C161.065 87.3814 161.251 87.4906 161.857 87.022C162.456 86.5589 162.459 86.4278 161.872 86.3692ZM159.739 83.7985C159.486 83.549 159.199 83.3143 159.103 83.2768C158.805 83.1605 158.424 83.4023 158.316 83.7756C158.221 84.1023 158.269 84.1935 158.88 84.8653C159.247 85.2686 159.659 85.6262 159.797 85.6599C160.128 85.7416 160.536 85.4119 160.576 85.0287C160.61 84.7071 160.503 84.5492 159.739 83.7985ZM156.157 81.2127C155.344 80.7072 154.853 80.8038 154.782 81.4834L154.738 81.8975L155.592 82.4995C156.306 83.0022 156.503 83.0779 156.784 82.9582C157.548 82.6336 157.291 81.9181 156.157 81.2127ZM152.484 79.4163C151.785 79.1008 151.535 79.0576 151.281 79.2083C150.539 79.6477 150.836 80.2246 152.064 80.7312C152.973 81.1064 153.477 80.9922 153.54 80.3971C153.586 79.9589 153.493 79.8722 152.484 79.4163ZM148.486 78.1713C147.491 77.9242 147.21 77.9409 146.995 78.2603C146.558 78.909 147.173 79.4378 148.518 79.5706C149.395 79.6571 149.477 79.6178 149.533 79.0871C149.592 78.536 149.448 78.4102 148.486 78.1713ZM144.421 77.4855C143.15 77.3784 142.964 77.423 142.82 77.87C142.611 78.5156 142.972 78.7941 144.124 78.8755C145.023 78.9389 145.161 78.9097 145.346 78.6168C145.502 78.3691 145.495 78.193 145.318 77.9139C145.128 77.6141 144.953 77.5305 144.421 77.4855ZM140.014 77.2697C138.984 77.2366 138.582 77.4601 138.638 78.0336C138.69 78.5661 138.942 78.6914 139.928 78.6774C140.791 78.665 141.242 78.4557 141.285 78.0469C141.338 77.548 140.931 77.2991 140.014 77.2697ZM136.164 77.3873C134.647 77.4031 134.14 77.7883 134.695 78.5055C134.953 78.8398 135.08 78.8713 135.866 78.7946C136.852 78.6986 137.095 78.5704 137.143 78.1218C137.197 77.6138 136.885 77.38 136.164 77.3873ZM132.35 77.7571C130.853 77.6539 129.933 78.2524 130.486 78.9684C130.704 79.2506 131.034 79.2928 132.068 79.1717C132.784 79.0877 132.827 79.064 132.947 78.6928C133.095 78.2336 132.812 77.7889 132.35 77.7571ZM128.51 78.2048C128.216 78.0792 126.641 78.2423 126.408 78.4226C126.179 78.5996 126.175 79.2402 126.402 79.4432C126.655 79.67 128.352 79.62 128.667 79.3764C128.802 79.2722 128.901 79.0159 128.887 78.8067C128.857 78.3661 128.846 78.3482 128.51 78.2048ZM124.395 78.5899C124.138 78.4353 122.59 78.6738 122.277 78.916C122.079 79.0688 122.023 79.2367 122.095 79.4555C122.274 80.001 122.583 80.1056 123.618 79.9709C124.578 79.846 124.626 79.8242 124.746 79.4511C124.865 79.0825 124.752 78.8053 124.395 78.5899ZM119.776 78.9899C118.716 78.9839 118.201 79.1312 118.018 79.4918C117.885 79.7546 117.914 79.8835 118.164 80.1516C118.425 80.4302 118.62 80.4706 119.357 80.398C120.288 80.3064 120.664 80.1212 120.705 79.7351C120.751 79.3051 120.362 78.9931 119.776 78.9899ZM115.849 79.2595C115.617 79.236 115.114 79.2361 114.731 79.2597C114.059 79.3014 114.03 79.3174 113.904 79.7077C113.693 80.3608 114.124 80.6646 115.217 80.6334C116.217 80.6048 116.493 80.4741 116.543 80.006C116.588 79.5749 116.342 79.3099 115.849 79.2595ZM111.133 79.1744C110.083 79.0876 109.68 79.2703 109.717 79.8168C109.752 80.3286 110.058 80.5009 111.046 80.5642C111.983 80.6244 112.334 80.4714 112.386 79.979C112.441 79.4548 112.133 79.2568 111.133 79.1744ZM107.092 78.7003C106.303 78.4985 106.052 78.4979 105.794 78.6973C105.352 79.0392 105.487 79.6216 106.056 79.8312C106.935 80.1545 107.744 80.2504 107.989 80.0606C108.21 79.8896 108.298 79.2452 108.13 79.0277C108.098 78.9853 107.63 78.8379 107.092 78.7003ZM103.046 77.6116C102.171 77.238 101.964 77.2439 101.65 77.6517C101.243 78.1802 101.759 78.6842 103.127 79.0938C103.695 79.2639 104.137 79.0768 104.183 78.6468C104.223 78.2696 103.901 77.977 103.046 77.6116ZM99.3594 75.8914C98.5831 75.3765 98.1823 75.3211 97.8986 75.6895C97.597 76.0811 97.8285 76.5286 98.6181 77.0803C99.4387 77.6538 99.6297 77.7021 99.9862 77.4265C100.553 76.988 100.383 76.57 99.3594 75.8914ZM96.2047 73.6891C95.936 73.4513 95.6045 73.1579 95.4684 73.0371C95.3321 72.9163 95.0568 72.8531 94.8564 72.8965C94.557 72.9616 94.4819 73.0417 94.434 73.3471C94.3293 74.0162 95.6152 75.2682 96.2626 75.1277C96.975 74.973 96.9499 74.3485 96.2047 73.6891ZM93.1045 71.4053C92.7339 71.6918 92.6007 71.8681 92.6784 71.9687C92.9875 72.3685 93.7142 72.0611 93.773 71.5057C93.8273 70.9923 93.6693 70.9686 93.1045 71.4053Z" fill="black"/>
<path fill-rule="evenodd" clip-rule="evenodd" d="M83.7662 54.5699C83.4228 54.4959 83.3684 54.5224 83.1918 54.8505C82.8506 55.4844 83.0223 55.6138 83.6776 55.2168C84.3251 54.8243 84.343 54.6944 83.7662 54.5699ZM81.9381 51.7747C81.7143 51.4982 81.4564 51.2326 81.3652 51.1845C81.0822 51.0352 80.6756 51.2323 80.5264 51.5911C80.3957 51.905 80.4323 52.0009 80.9637 52.7375C81.2824 53.1796 81.6519 53.5815 81.7845 53.6306C82.105 53.7492 82.5471 53.4677 82.6308 53.0916C82.7009 52.7759 82.612 52.6069 81.9381 51.7747ZM78.6712 48.8006C77.9208 48.2065 77.4223 48.247 77.2741 48.9142L77.1837 49.3206L77.9648 50.0153C78.617 50.5954 78.8039 50.6928 79.097 50.6058C79.8931 50.3697 79.7185 49.6297 78.6712 48.8006ZM75.2249 46.6006C74.5666 46.2082 74.3229 46.137 74.053 46.258C73.2665 46.6107 73.4959 47.2174 74.6588 47.8596C75.5199 48.3351 76.0335 48.2787 76.1632 47.6945C76.2589 47.2643 76.176 47.1676 75.2249 46.6006ZM71.3939 44.9118C70.4329 44.5537 70.1518 44.5386 69.902 44.8317C69.3948 45.4268 69.9457 46.0217 71.2669 46.3056C72.1283 46.4907 72.2147 46.461 72.3305 45.94C72.4508 45.399 72.3222 45.2578 71.3939 44.9118ZM67.4324 43.7709C66.1815 43.5208 65.9916 43.5441 65.7976 43.9719C65.5175 44.5897 65.8449 44.9072 66.98 45.1183C67.8658 45.2829 68.0064 45.2695 68.223 44.9993C68.4062 44.771 68.4192 44.5952 68.2751 44.2979C68.1203 43.9785 67.956 43.8758 67.4324 43.7709ZM63.0776 43.0582C62.0586 42.909 61.6334 43.0856 61.6244 43.6617C61.6163 44.1967 61.8518 44.3496 62.8338 44.4472C63.6925 44.5325 64.1636 44.3754 64.2528 43.9742C64.3617 43.4844 63.9855 43.1911 63.0776 43.0582ZM59.2392 42.74C57.73 42.5841 57.1835 42.9096 57.6533 43.6849C57.8723 44.0462 57.9951 44.0919 58.7843 44.1045C59.7751 44.1206 60.0311 44.0207 60.1291 43.5803C60.2399 43.0818 59.9566 42.8142 59.2392 42.74ZM55.4081 42.6763C53.9329 42.4045 52.9503 42.8951 53.4194 43.6691C53.6042 43.9741 53.9269 44.0533 54.9678 44.0498C55.6885 44.0472 55.7343 44.0286 55.8954 43.6734C56.0947 43.2339 55.8632 42.76 55.4081 42.6763ZM51.5421 42.687C51.264 42.529 49.6813 42.5131 49.4292 42.6658C49.1817 42.8158 49.1056 43.4518 49.3079 43.6792C49.5339 43.9331 51.2254 44.0752 51.566 43.8688C51.7117 43.7805 51.8388 43.537 51.8483 43.3275C51.8686 42.8865 51.8594 42.8674 51.5421 42.687ZM47.4097 42.6044C47.1726 42.4219 45.6076 42.4838 45.2689 42.6891C45.0553 42.8185 44.9798 42.9789 45.0266 43.2044C45.1432 43.7667 45.4384 43.9055 46.4819 43.8887C47.4503 43.8732 47.4997 43.8569 47.6616 43.4998C47.8216 43.1471 47.7406 42.8588 47.4097 42.6044ZM42.7754 42.4797C41.7232 42.354 41.1945 42.442 40.9724 42.7798C40.8105 43.0258 40.8243 43.1571 41.043 43.4517C41.2704 43.7581 41.4596 43.8202 42.1997 43.8314C43.1353 43.8456 43.5303 43.7041 43.6146 43.3252C43.7084 42.9031 43.3571 42.5492 42.7754 42.4797ZM38.8429 42.3037C38.6156 42.2542 38.116 42.1974 37.7326 42.1776C37.0603 42.143 37.0292 42.1556 36.8599 42.5291C36.5763 43.1542 36.9701 43.5047 38.06 43.5973C39.0567 43.6819 39.3459 43.5833 39.4481 43.1238C39.5421 42.7007 39.3273 42.4095 38.8429 42.3037ZM34.1673 41.686C33.1336 41.4812 32.7127 41.6171 32.6876 42.1642C32.6642 42.6766 32.9491 42.8825 33.9237 43.0571C34.8483 43.2228 35.2138 43.1104 35.3214 42.6271C35.4356 42.1126 35.1517 41.881 34.1673 41.686ZM30.2062 40.7583C29.4451 40.4686 29.1954 40.4395 28.9165 40.6085C28.4385 40.8982 28.5065 41.4921 29.0489 41.7648C29.8856 42.1853 30.678 42.3721 30.9435 42.2112C31.1826 42.0663 31.343 41.436 31.2005 41.201C31.1727 41.155 30.7252 40.9558 30.2062 40.7583ZM26.3092 39.2193C25.4823 38.7492 25.2753 38.7316 24.917 39.1012C24.4529 39.5803 24.9091 40.1395 26.222 40.701C26.7673 40.9343 27.2275 40.7983 27.3213 40.3762C27.4036 40.006 27.1175 39.679 26.3092 39.2193ZM22.8407 37.0934C22.1276 36.494 21.7356 36.3937 21.4121 36.7277C21.0681 37.0826 21.2475 37.5534 21.9697 38.1909C22.7201 38.8534 22.9045 38.923 23.2898 38.6895C23.903 38.3179 23.7807 37.8833 22.8407 37.0934ZM19.9553 34.5487C19.7152 34.2821 19.4191 33.9531 19.2974 33.8177C19.1757 33.6823 18.9093 33.5883 18.7053 33.6088C18.4005 33.6397 18.3168 33.7107 18.2347 34.0087C18.0549 34.6617 19.191 36.051 19.8502 35.9846C20.5755 35.9114 20.6211 35.2881 19.9553 34.5487ZM17.1333 31.9292C16.7327 32.1719 16.5804 32.332 16.6463 32.4408C16.9082 32.8729 17.6649 32.6496 17.7862 32.1045C17.8981 31.6006 17.7439 31.5592 17.1333 31.9292Z" fill="black"/>
<path d="M125.634 57.552C125.762 61.072 125.442 64.144 124.674 66.768C123.906 69.328 122.85 71.536 121.506 73.392C120.162 75.184 118.594 76.656 116.802 77.808C115.074 78.96 113.282 79.856 111.426 80.496C107.074 82.096 102.114 82.704 96.5464 82.32C97.0584 84.688 97.3144 86.768 97.3144 88.56C97.3144 90.352 97.1224 91.92 96.7384 93.264C96.3544 94.608 95.8424 95.76 95.2024 96.72C94.5624 97.616 93.8584 98.384 93.0904 99.024C91.2984 100.496 89.0904 101.392 86.4664 101.712C82.6904 102.096 79.5544 101.616 77.0584 100.272C74.5624 98.928 72.5784 97.36 71.1064 95.568C69.3784 93.456 68.0344 91.024 67.0744 88.272C65.6024 83.28 64.7704 78.512 64.5784 73.968C64.4504 69.424 64.6104 65.392 65.0584 61.872C65.5704 57.84 66.3704 54.032 67.4584 50.448C68.2904 47.952 69.3464 45.808 70.6264 44.016C71.9704 42.16 73.3784 40.592 74.8504 39.312C76.3864 37.968 77.9864 36.912 79.6504 36.144C81.3144 35.312 82.9464 34.64 84.5464 34.128C88.3224 32.976 92.3224 32.528 96.5464 32.784C100.13 32.912 103.266 33.36 105.954 34.128C108.706 34.896 111.074 35.888 113.058 37.104C115.106 38.256 116.834 39.568 118.242 41.04C119.65 42.512 120.834 44.016 121.794 45.552C123.906 49.072 125.186 53.072 125.634 57.552ZM96.3544 55.632C95.2664 55.632 94.3064 56.048 93.4744 56.88C92.7064 57.712 92.3864 58.64 92.5144 59.664C92.6424 61.008 93.0264 61.936 93.6664 62.448C94.3704 62.96 95.2664 63.216 96.3544 63.216C97.4424 63.216 98.3384 62.896 99.0424 62.256C99.7464 61.616 100.098 60.752 100.098 59.664C100.098 58.64 99.7784 57.712 99.1384 56.88C98.4984 56.048 97.5704 55.632 96.3544 55.632Z" fill="#013563"/>
<path d="M155.546 79.2996C154.597 79.3404 153.754 79.5268 153.018 79.8587C152.28 80.174 151.665 80.6092 151.172 81.1642C150.662 81.72 150.282 82.3869 150.032 83.165C149.782 83.9432 149.677 84.8068 149.718 85.7559C149.763 86.8049 149.97 87.7386 150.339 88.5568C150.691 89.3758 151.171 90.0641 151.779 90.6219C152.37 91.1803 153.072 91.6005 153.885 91.8825C154.681 92.1653 155.545 92.2866 156.478 92.2465C157.494 92.2028 158.385 91.9893 159.153 91.606C159.904 91.2233 160.533 90.7209 161.04 90.0985C161.53 89.4768 161.892 88.769 162.125 87.9749C162.357 87.1809 162.455 86.3509 162.418 85.485C162.377 84.5359 162.19 83.6765 161.857 82.9068C161.506 82.1211 161.035 81.4574 160.445 80.9156C159.837 80.3578 159.118 79.9383 158.289 79.657C157.459 79.3758 156.545 79.2566 155.546 79.2996ZM156.279 89.9529C155.597 89.9823 155.009 89.8908 154.516 89.6784C154.022 89.4494 153.617 89.1415 153.3 88.7548C152.966 88.3688 152.722 87.9288 152.568 87.435C152.396 86.9253 152.298 86.3957 152.274 85.8462C152.25 85.28 152.302 84.7523 152.431 84.263C152.543 83.7577 152.741 83.3155 153.025 82.9362C153.292 82.5577 153.655 82.2586 154.112 82.0387C154.552 81.8029 155.089 81.6714 155.722 81.6442C156.371 81.6162 156.942 81.7001 157.434 81.8958C157.926 82.0915 158.347 82.3737 158.697 82.7424C159.029 83.0951 159.289 83.526 159.478 84.035C159.667 84.544 159.774 85.0983 159.8 85.6977C159.852 86.9133 159.586 87.9173 159.003 88.7097C158.403 89.4862 157.495 89.9006 156.279 89.9529Z" fill="black"/>
<path d="M16.0312 28.7543C17.0501 29.1257 17.924 29.4477 18.6528 29.7204C19.3593 29.9855 19.958 30.2016 20.449 30.3685C20.9326 30.5205 21.3233 30.616 21.6212 30.6551C21.9042 30.7015 22.1354 30.6805 22.3148 30.5921C22.5241 30.489 22.6893 30.2962 22.8102 30.0137C22.9162 29.7386 22.9177 29.4963 22.8146 29.287C22.7262 29.1076 22.4666 28.9011 22.0357 28.6674C21.5974 28.4188 21.0809 28.1623 20.4862 27.8978C19.8915 27.6334 19.2595 27.3687 18.5903 27.1038C17.9137 26.8239 17.2892 26.5556 16.7168 26.2987C16.9228 25.5098 17.1137 24.747 17.2896 24.0101C17.4505 23.2806 17.5775 22.6143 17.6705 22.0111C17.7636 21.4079 17.8227 20.8865 17.8477 20.4469C17.8577 20.0146 17.8149 19.7013 17.7191 19.507C17.6234 19.3126 17.4452 19.196 17.1846 19.1571C16.9166 19.1034 16.7003 19.117 16.5359 19.198C16.4013 19.2642 16.2432 19.5279 16.0615 19.9889C15.8725 20.435 15.6792 20.9668 15.4817 21.5843C15.2619 22.1941 15.0568 22.8339 14.8664 23.5036C14.6611 24.1807 14.4749 24.7833 14.3077 25.3115C13.8021 25.1147 13.2369 24.8914 12.6123 24.6417C11.9654 24.3844 11.3407 24.1533 10.7381 23.9484C10.1356 23.7435 9.59247 23.5837 9.10867 23.469C8.62487 23.3543 8.28578 23.3448 8.09141 23.4405C7.92694 23.5215 7.79193 23.6623 7.68637 23.863C7.58081 24.0636 7.5759 24.2611 7.67163 24.4554C7.76736 24.6498 7.99709 24.8711 8.36083 25.1192C8.70962 25.3748 9.15146 25.6495 9.68636 25.9434C10.2213 26.2373 10.8344 26.5391 11.5257 26.8489C12.2021 27.166 12.9157 27.4833 13.6666 27.8009C13.499 28.4037 13.3199 29.0585 13.1294 29.7655C12.9314 30.4575 12.7597 31.1273 12.6142 31.7749C12.4613 32.4075 12.3573 32.9696 12.3021 33.4613C12.2247 33.9453 12.2302 34.277 12.3185 34.4564C12.4216 34.6657 12.622 34.8086 12.9197 34.8849C13.2024 34.9686 13.4485 34.9589 13.6578 34.8558C13.8522 34.7601 14.0549 34.5116 14.266 34.1103C14.4548 33.7015 14.659 33.2108 14.8786 32.6382C15.0759 32.058 15.2772 31.4294 15.4825 30.7523C15.6655 30.0677 15.8484 29.4017 16.0312 28.7543Z" fill="black"/>
</svg>
