<svg width="690" height="318" viewBox="0 0 690 318" fill="none" xmlns="http://www.w3.org/2000/svg">
<path fill-rule="evenodd" clip-rule="evenodd" d="M447.615 114.201C447.344 114.487 447.213 114.772 447.188 115.122C447.151 115.652 447.282 115.968 447.846 116.718C448.391 117.443 448.7 117.744 450.022 118.837C450.562 119.283 451.073 119.757 451.342 120.061C451.584 120.333 451.969 120.718 452.198 120.916C452.629 121.289 453.666 122.017 454.287 122.384C454.763 122.664 455.131 123.093 455.466 123.76C456.024 124.87 456.667 125.683 457.246 126.011C457.789 126.318 459.148 126.33 459.552 126.03C459.926 125.752 459.938 125.437 459.611 124.486C459.33 123.666 459.109 123.26 458.591 122.61C458.152 122.059 458.117 122.029 457.615 121.753C456.881 121.352 456.647 121.113 455.836 119.937C454.876 118.547 453.208 116.561 452.555 116.031C452.326 115.845 452.178 115.779 451.886 115.733C451.43 115.66 451.335 115.565 451.537 115.382C451.672 115.261 451.673 115.235 451.556 115.046C451.306 114.643 450.519 114.074 449.873 113.83C448.968 113.489 448.162 113.621 447.615 114.201ZM455.662 110.759C455.411 111.063 455.303 111.729 455.415 112.282C455.465 112.531 455.503 112.6 455.635 112.688C456.524 113.28 457.236 114.163 457.723 115.274C458.085 116.101 458.317 116.54 458.863 117.428C459.459 118.398 459.7 119.001 459.565 119.188C459.515 119.258 459.532 119.33 459.629 119.46C459.77 119.65 460.554 120.48 461.01 120.923C461.414 121.316 461.719 121.745 461.724 121.928C461.726 122.013 461.86 122.31 462.022 122.588L462.317 123.093L462.793 123.302C463.571 123.642 464.059 123.581 464.183 123.127C464.271 122.805 464.444 122.721 464.853 122.804C465.048 122.843 465.23 122.86 465.257 122.84C465.287 122.817 465.103 122.511 464.785 122.051C464.018 120.944 462.282 117.493 461.605 115.728C461.202 114.678 460.84 114.192 460.201 113.839L459.899 113.672L459.984 113.335C460.1 112.872 460.084 112.63 459.913 112.236C459.791 111.954 459.734 111.876 459.566 111.761C459.313 111.588 458.883 111.475 458.441 111.466C457.859 111.454 457.715 111.183 458.127 110.877C458.287 110.758 458.3 110.726 458.228 110.629C458.041 110.377 457.225 110.195 456.605 110.267C456.275 110.306 455.854 110.525 455.662 110.759ZM445.253 120.402C444.947 121.003 444.991 121.853 445.365 122.605C445.631 123.139 446.02 123.505 446.893 124.042C447.817 124.61 448.163 124.903 449.079 125.888C450.466 127.379 451.992 128.753 453.059 129.469C453.677 129.884 454.16 130.102 454.932 130.313C456.45 130.729 456.968 131.167 457.476 132.464C457.734 133.122 457.981 133.524 458.189 133.622C458.254 133.652 458.639 133.616 459.044 133.541C459.762 133.407 459.815 133.408 461.157 133.596C461.914 133.703 462.718 133.846 462.943 133.915L463.353 134.04L463.659 133.813C463.827 133.688 464.223 133.293 464.539 132.935C464.855 132.577 465.178 132.236 465.257 132.178C465.336 132.12 465.551 132.061 465.735 132.047C465.92 132.033 466.128 131.98 466.198 131.928C466.418 131.764 466.731 131.255 467.331 130.085C467.97 128.837 468.04 128.723 468.144 128.765C468.229 128.798 468.229 129.054 468.141 129.962C468.006 131.367 468.095 132.089 468.513 132.986L468.737 133.467L469.183 133.701C469.602 133.921 469.65 133.963 469.979 134.406C470.196 134.698 470.518 135.245 470.83 135.848C471.106 136.382 471.398 136.938 471.48 137.083C471.909 137.844 472.064 138.376 471.935 138.648C471.78 138.978 471.412 139.05 470.691 138.891C470.124 138.767 469.627 138.791 468.821 138.982C468.133 139.145 467.684 139.127 467.209 138.916C466.874 138.767 466.298 138.651 466.212 138.716C466.188 138.733 466.023 138.782 465.847 138.824C465.575 138.889 465.424 138.87 464.866 138.7C464.258 138.514 463.885 138.479 463.413 138.561C463.316 138.578 463.176 138.557 463.101 138.516C462.982 138.45 462.968 138.395 462.992 138.075C463.007 137.874 462.993 137.556 462.96 137.368C462.863 136.806 462.842 136.121 462.909 135.717C463.009 135.118 462.86 135.086 462.511 135.633C462.389 135.823 462.302 136.099 462.235 136.51C462.137 137.11 462.096 137.208 461.967 137.157C461.813 137.096 461.789 136.821 461.871 136.079C461.963 135.24 461.918 134.824 461.704 134.535C461.514 134.28 461.31 134.226 461.077 134.371C460.955 134.447 460.874 134.464 460.853 134.419C460.798 134.302 460.495 134.182 460.192 134.157C459.776 134.123 459.413 134.201 459.178 134.375C459.064 134.459 458.704 134.622 458.379 134.737C457.616 135.006 457.018 135.419 456.712 135.888C456.457 136.277 456.209 136.881 456.069 137.452C455.934 137.998 455.9 138.001 455.293 137.527C454.704 137.067 454.169 136.838 453.329 136.688C452.586 136.555 452.126 136.359 451.183 135.773C450.646 135.439 450.02 135.147 449.731 135.096C449.576 135.068 449.46 135.092 449.35 135.174C449.14 135.329 449.028 135.27 448.203 134.569C447.736 134.171 447.397 133.83 447.029 133.386C446.453 132.69 446.259 132.553 445.892 132.587C445.442 132.629 444.868 133.08 444.217 133.904C443.705 134.552 443.639 135.167 444.025 135.687C444.474 136.292 445.631 136.855 447.032 137.152C447.706 137.295 448.008 137.291 448.217 137.136C448.347 137.039 448.381 137.047 448.65 137.244C448.995 137.496 449.347 137.656 449.943 137.829C450.557 138.007 451.671 138.157 451.78 138.076C451.831 138.038 451.897 137.894 451.929 137.755C452.113 136.943 452.227 136.911 452.501 137.593C452.715 138.123 453.23 138.56 453.898 138.777C454.183 138.87 454.302 138.866 454.73 138.755C455.235 138.623 455.703 138.601 456.048 138.695C456.273 138.756 456.553 139.106 456.584 139.365C456.598 139.481 456.719 139.691 456.961 140.019C457.86 141.238 459.009 141.786 460.501 141.706C461.195 141.67 461.412 141.607 461.771 141.341C462.251 140.984 462.287 140.997 462.668 141.669C462.867 142.02 463.112 142.372 463.333 142.624C463.808 143.168 464.888 144.198 465.31 144.511C465.6 144.726 465.809 144.961 466.588 145.944C467.246 146.774 467.603 147.184 467.802 147.339C468.415 147.817 469.711 148.357 470.442 148.439C470.886 148.489 470.943 148.473 471.444 148.155C471.682 148.004 471.974 147.895 472.492 147.764C473.156 147.596 473.231 147.563 473.474 147.341C473.984 146.872 474.347 146.11 474.839 144.475C475.199 143.281 475.25 143.169 475.457 143.124C475.542 143.106 475.674 143.045 475.749 142.989C475.922 142.861 476.847 141.785 477.249 141.244C477.856 140.428 478.691 139.453 479.08 139.103C479.398 138.818 479.498 138.692 479.578 138.472C479.791 137.884 479.86 136.952 479.881 134.356C479.896 132.65 479.868 132.123 479.755 131.972C479.708 131.908 479.486 131.811 479.256 131.753C478.806 131.639 478.62 131.476 478.671 131.241C478.687 131.166 478.807 130.838 478.938 130.511C479.271 129.682 479.317 129.144 479.103 128.592C479.006 128.344 478.777 128.166 478.536 128.153C478.273 128.139 477.014 128.444 476.786 128.577C476.657 128.653 476.384 128.868 476.18 129.055C475.975 129.242 475.738 129.433 475.652 129.48C475.132 129.759 470.859 128.578 470.061 127.935C469.706 127.649 469.448 127.59 468.959 127.686C468.696 127.738 468.495 127.741 468.445 127.695C468.331 127.589 468.446 126.998 468.627 126.755C468.833 126.478 468.775 126.291 468.281 125.637C467.814 125.02 467.332 124.534 466.996 124.343C466.706 124.179 464.598 123.789 464.413 123.866C464.242 123.937 464.223 124.04 464.283 124.584C464.34 125.108 464.285 125.348 464.108 125.339C464.045 125.335 463.858 125.243 463.692 125.134C462.87 124.594 462.977 124.566 461.593 125.679C460.291 126.725 459.741 127.124 459.115 127.475C458.507 127.815 458.451 127.904 458.481 128.483C458.505 128.94 458.43 129.338 458.124 130.378C457.949 130.975 457.838 131.155 457.571 131.275C457.349 131.375 457.264 131.303 457.165 130.936C457.057 130.536 456.906 130.336 456.564 130.141C456.159 129.909 455.971 129.645 456.007 129.358C456.094 128.662 455.492 127.342 454.72 126.534C454.273 126.067 453.843 125.776 452.85 125.27C451.536 124.6 451.524 124.588 451.263 123.752C451.039 123.035 450.821 122.819 449.954 122.455L449.488 122.259L448.859 121.419C448.168 120.496 448.17 120.497 447.209 120.004C446.275 119.525 445.632 119.656 445.253 120.402ZM474.889 115.907C474.594 116.263 474.367 116.912 474.254 117.723C474.141 118.539 474.18 119.281 474.374 119.99C474.516 120.509 474.557 120.59 474.92 121.081C475.291 121.582 475.335 121.622 475.706 121.814C476.471 122.209 477.118 122.125 477.939 121.524C478.347 121.225 478.441 121.13 478.541 120.92C478.837 120.291 478.771 119.433 478.342 118.351C478.223 118.05 478.009 117.51 477.865 117.15C477.527 116.299 477.197 115.834 476.857 115.73C476.45 115.606 475.56 115.477 475.407 115.521C475.238 115.569 475.06 115.701 474.889 115.907ZM476.501 124.156C476.549 124.67 476.622 125.136 476.663 125.191C476.818 125.399 477.288 125.254 477.548 124.919C477.683 124.744 477.741 124.701 477.835 124.706C477.965 124.713 478.208 125.014 478.391 125.395C478.516 125.655 478.57 125.666 478.551 125.426C478.544 125.339 478.539 124.83 478.54 124.295C478.543 123.222 478.515 122.955 478.383 122.776C478.239 122.583 478.144 122.648 478.091 122.976C478.013 123.464 477.899 123.492 476.871 123.274C476.645 123.226 476.45 123.195 476.437 123.204C476.424 123.214 476.453 123.642 476.501 124.156Z" fill="#013563"/>
<path fill-rule="evenodd" clip-rule="evenodd" d="M552.989 151.422C552.91 151.037 552.754 150.766 552.482 150.545C552.071 150.211 551.739 150.136 550.804 150.166C549.9 150.194 549.478 150.273 547.828 150.724C547.155 150.908 546.476 151.052 546.073 151.098C545.713 151.138 545.178 151.231 544.885 151.304C544.334 151.441 543.146 151.869 542.49 152.165C541.989 152.392 541.428 152.446 540.693 152.336C539.467 152.154 538.436 152.212 537.836 152.496C537.274 152.762 536.485 153.863 536.498 154.364C536.509 154.828 536.759 155.019 537.722 155.298C538.552 155.539 539.009 155.592 539.837 155.543C540.538 155.501 540.582 155.49 541.095 155.239C541.843 154.872 542.172 154.818 543.596 154.831C545.28 154.846 547.855 154.626 548.662 154.398C548.945 154.318 549.084 154.235 549.289 154.024C549.61 153.694 549.742 153.672 549.775 153.941C549.797 154.12 549.816 154.136 550.038 154.149C550.51 154.177 551.426 153.862 551.994 153.475C552.792 152.933 553.147 152.2 552.989 151.422ZM551.176 159.955C551.072 159.577 550.591 159.107 550.077 158.88C549.845 158.779 549.767 158.769 549.619 158.827C548.627 159.211 547.498 159.285 546.314 159.045C545.432 158.865 544.941 158.803 543.905 158.738C542.771 158.667 542.142 158.517 542.067 158.3C542.039 158.219 541.97 158.192 541.809 158.196C541.573 158.203 540.446 158.365 539.824 158.482C539.272 158.586 538.747 158.589 538.595 158.488C538.524 158.441 538.205 158.38 537.886 158.352L537.305 158.302L536.862 158.571C536.138 159.01 535.908 159.443 536.207 159.804C536.419 160.06 536.387 160.25 536.086 160.535C535.941 160.672 535.824 160.811 535.824 160.845C535.825 160.882 536.181 160.908 536.738 160.912C538.08 160.922 541.89 161.487 543.717 161.948C544.803 162.222 545.407 162.206 546.062 161.888L546.371 161.737L546.597 162C546.908 162.36 547.114 162.487 547.533 162.573C547.833 162.635 547.93 162.634 548.119 162.563C548.406 162.456 548.745 162.17 549.006 161.815C549.35 161.347 549.653 161.385 549.666 161.897C549.671 162.095 549.69 162.124 549.809 162.121C550.123 162.114 550.739 161.553 551.036 161.006C551.194 160.715 551.256 160.246 551.176 159.955ZM549.289 145.938C548.975 145.345 548.257 144.893 547.429 144.766C546.842 144.676 546.32 144.784 545.382 145.187C544.388 145.613 543.951 145.728 542.623 145.909C540.611 146.184 538.616 146.64 537.42 147.098C536.727 147.364 536.273 147.632 535.658 148.141C534.447 149.14 533.794 149.31 532.444 148.98C531.761 148.813 531.291 148.784 531.092 148.897C531.029 148.933 530.838 149.267 530.668 149.641C530.365 150.302 530.333 150.345 529.41 151.33C528.889 151.887 528.311 152.46 528.125 152.604L527.788 152.867L527.798 153.246C527.803 153.455 527.898 154.004 528.008 154.467C528.118 154.93 528.211 155.389 528.213 155.486C528.216 155.584 528.14 155.793 528.046 155.951C527.951 156.109 527.875 156.31 527.877 156.397C527.884 156.67 528.12 157.217 528.73 158.377C529.379 159.614 529.432 159.737 529.339 159.798C529.262 159.848 529.055 159.701 528.365 159.109C527.297 158.192 526.658 157.85 525.687 157.677L525.166 157.583L524.719 157.812C524.299 158.028 524.238 158.042 523.688 158.056C523.326 158.065 522.694 158.015 522.024 157.923C521.431 157.841 520.81 157.761 520.645 157.744C519.779 157.657 519.256 157.478 519.108 157.217C518.929 156.901 519.081 156.56 519.624 156.063C520.05 155.673 520.316 155.254 520.623 154.487C520.885 153.833 521.158 153.477 521.602 153.211C521.915 153.024 522.34 152.621 522.337 152.513C522.336 152.483 522.391 152.321 522.458 152.153C522.561 151.895 522.664 151.783 523.122 151.426C523.622 151.037 523.865 150.753 524.069 150.32C524.111 150.233 524.207 150.13 524.284 150.093C524.407 150.033 524.459 150.053 524.706 150.257C524.862 150.385 525.129 150.555 525.301 150.636C525.814 150.879 526.385 151.255 526.676 151.542C527.107 151.967 527.218 151.864 526.973 151.266C526.888 151.057 526.713 150.828 526.416 150.538C525.984 150.113 525.927 150.024 526.043 149.948C526.181 149.858 526.419 149.995 526.977 150.488C527.607 151.045 527.973 151.247 528.331 151.238C528.648 151.23 528.809 151.094 528.824 150.821C528.832 150.678 528.865 150.602 528.914 150.611C529.041 150.633 529.312 150.455 529.506 150.223C529.772 149.903 529.917 149.563 529.911 149.271C529.907 149.13 529.981 148.743 530.074 148.412C530.293 147.636 530.299 146.912 530.093 146.393C529.921 145.962 529.572 145.413 529.187 144.971C528.819 144.548 528.836 144.518 529.57 144.296C530.284 144.08 530.777 143.775 531.381 143.176C531.916 142.647 532.34 142.385 533.358 141.952C533.939 141.706 534.536 141.363 534.743 141.158C534.855 141.047 534.902 140.939 534.899 140.802C534.892 140.542 535.005 140.485 536.05 140.215C536.642 140.062 537.114 139.982 537.687 139.937C538.585 139.866 538.808 139.786 538.991 139.467C539.215 139.077 539.177 138.35 538.879 137.347C538.644 136.558 538.181 136.152 537.536 136.168C536.785 136.187 535.662 136.806 534.616 137.778C534.113 138.245 533.943 138.494 533.95 138.753C533.954 138.915 533.927 138.938 533.613 139.044C533.209 139.18 532.877 139.376 532.394 139.762C531.896 140.16 531.135 140.982 531.139 141.118C531.14 141.18 531.22 141.318 531.315 141.424C531.871 142.039 531.832 142.151 531.119 141.983C530.564 141.853 529.912 142.022 529.352 142.442C529.113 142.621 529.048 142.72 528.893 143.132C528.711 143.62 528.459 144.014 528.186 144.241C528.006 144.39 527.561 144.417 527.332 144.293C527.229 144.238 526.988 144.216 526.583 144.225C525.073 144.259 523.968 144.881 523.176 146.142C522.808 146.729 522.734 146.942 522.745 147.388C522.761 147.984 522.729 148.006 521.963 147.931C521.562 147.891 521.135 147.889 520.803 147.924C520.088 148 518.628 148.289 518.131 148.453C517.789 148.566 517.478 148.602 516.229 148.673C515.175 148.733 514.636 148.788 514.396 148.862C513.655 149.087 512.471 149.834 511.984 150.382C511.689 150.715 511.669 150.771 511.641 151.361C511.628 151.642 511.549 151.943 511.359 152.441C511.115 153.078 511.098 153.158 511.14 153.483C511.229 154.168 511.642 154.901 512.692 156.241C513.459 157.219 513.521 157.325 513.439 157.519C513.405 157.599 513.379 157.741 513.381 157.835C513.387 158.049 513.733 159.42 513.943 160.059C514.26 161.021 514.576 162.262 514.637 162.779C514.687 163.202 514.733 163.356 514.866 163.547C515.223 164.058 515.943 164.649 518.047 166.156C519.429 167.146 519.875 167.426 520.063 167.421C520.141 167.419 520.348 167.294 520.527 167.14C520.879 166.839 521.118 166.781 521.281 166.957C521.332 167.013 521.531 167.3 521.722 167.594C522.207 168.34 522.619 168.687 523.192 168.828C523.45 168.892 523.726 168.808 523.874 168.619C524.037 168.413 524.51 167.211 524.533 166.949C524.545 166.801 524.527 166.455 524.492 166.181C524.456 165.907 524.437 165.603 524.448 165.507C524.519 164.923 527.933 162.118 528.915 161.836C529.353 161.711 529.548 161.535 529.75 161.081C529.86 160.837 529.972 160.671 530.038 160.657C530.19 160.625 530.606 161.057 530.7 161.345C530.807 161.671 530.992 161.732 531.809 161.704C532.581 161.678 533.254 161.563 533.601 161.399C533.902 161.257 535.429 159.762 535.472 159.567C535.513 159.387 535.439 159.313 534.962 159.049C534.502 158.796 534.338 158.612 534.447 158.474C534.486 158.425 534.668 158.325 534.852 158.253C535.765 157.892 535.726 157.996 535.613 156.229C535.507 154.568 535.497 153.89 535.571 153.179C535.642 152.489 535.602 152.391 535.113 152.084C534.727 151.84 534.445 151.551 533.773 150.706C533.387 150.22 533.304 150.026 533.359 149.74C533.405 149.502 533.512 149.473 533.869 149.604C534.257 149.745 534.506 149.737 534.861 149.57C535.283 149.372 535.606 149.37 535.819 149.565C536.336 150.035 537.758 150.303 538.859 150.136C539.496 150.04 539.98 149.856 540.962 149.338C542.262 148.651 542.279 148.648 543.111 148.915C543.824 149.144 544.125 149.09 544.919 148.592L545.345 148.325L546.391 148.294C547.54 148.261 547.537 148.262 548.491 147.761C549.417 147.275 549.68 146.675 549.289 145.938ZM535.948 172.673C535.828 172.228 535.429 171.67 534.833 171.113C534.232 170.552 533.605 170.159 532.916 169.91C532.411 169.728 532.322 169.715 531.713 169.73C531.093 169.745 531.034 169.757 530.665 169.949C529.904 170.346 529.601 170.922 529.62 171.936C529.63 172.44 529.653 172.571 529.767 172.772C530.11 173.375 530.847 173.814 531.975 174.085C532.289 174.16 532.852 174.296 533.228 174.386C534.115 174.598 534.684 174.596 534.963 174.378C535.298 174.118 535.913 173.466 535.966 173.317C536.024 173.151 536.018 172.931 535.948 172.673ZM528.3 169.254C527.854 168.998 527.432 168.79 527.363 168.792C527.105 168.798 526.954 169.265 527.078 169.669C527.143 169.88 527.144 169.951 527.086 170.025C527.006 170.127 526.622 170.153 526.205 170.083C525.922 170.036 525.882 170.074 526.089 170.195C526.164 170.24 526.582 170.528 527.017 170.836C527.89 171.454 528.123 171.585 528.345 171.579C528.585 171.573 528.586 171.458 528.349 171.227C527.996 170.883 528.039 170.774 528.806 170.061C528.975 169.905 529.113 169.763 529.112 169.748C529.112 169.732 528.747 169.509 528.3 169.254Z" fill="#05ABC4"/>
<path fill-rule="evenodd" clip-rule="evenodd" d="M508.934 100.703C508.55 100.62 508.239 100.654 507.927 100.813C507.456 101.054 507.254 101.328 506.903 102.195C506.564 103.034 506.466 103.452 506.213 105.143C506.109 105.834 505.968 106.513 505.847 106.9C505.738 107.246 505.607 107.773 505.556 108.07C505.459 108.63 505.371 109.89 505.377 110.609C505.383 111.16 505.205 111.694 504.809 112.323C504.148 113.37 503.784 114.337 503.802 115C503.818 115.622 504.508 116.789 504.971 116.979C505.4 117.156 505.676 117.004 506.32 116.236C506.875 115.574 507.108 115.177 507.397 114.4C507.642 113.742 507.65 113.697 507.626 113.126C507.593 112.293 507.676 111.971 508.263 110.673C508.956 109.138 509.794 106.693 509.911 105.864C509.952 105.572 509.932 105.412 509.822 105.138C509.65 104.712 509.682 104.582 509.942 104.661C510.115 104.713 510.137 104.701 510.238 104.504C510.455 104.083 510.536 103.118 510.411 102.442C510.237 101.493 509.71 100.873 508.934 100.703ZM516.01 105.805C515.622 105.748 514.998 105.998 514.583 106.377C514.397 106.548 514.357 106.616 514.349 106.775C514.301 107.838 513.913 108.9 513.215 109.886C512.694 110.621 512.439 111.045 511.962 111.967C511.44 112.976 511.049 113.491 510.819 113.472C510.734 113.465 510.682 113.517 510.621 113.666C510.531 113.885 510.225 114.982 510.081 115.598C509.954 116.145 509.744 116.626 509.59 116.724C509.519 116.77 509.334 117.038 509.18 117.319L508.9 117.83L508.967 118.344C509.077 119.184 509.38 119.569 509.831 119.441C510.151 119.35 510.312 119.455 510.451 119.847C510.518 120.034 510.598 120.198 510.629 120.21C510.663 120.225 510.83 119.91 511.059 119.402C511.61 118.177 513.664 114.92 514.823 113.435C515.512 112.551 515.742 111.992 515.714 111.265L515.702 110.921L516.033 110.82C516.488 110.681 516.687 110.543 516.936 110.195C517.113 109.945 517.151 109.857 517.162 109.654C517.18 109.349 517.055 108.923 516.836 108.541C516.547 108.038 516.704 107.776 517.178 107.971C517.361 108.046 517.395 108.041 517.441 107.93C517.56 107.64 517.296 106.85 516.915 106.357C516.713 106.096 516.309 105.849 516.01 105.805ZM502.424 101.875C501.754 101.924 501.051 102.398 500.601 103.104C500.282 103.606 500.169 104.126 500.159 105.147C500.149 106.229 500.077 106.675 499.707 107.963C499.146 109.914 498.759 111.924 498.695 113.203C498.659 113.945 498.721 114.468 498.938 115.237C499.364 116.747 499.256 117.414 498.409 118.515C497.98 119.073 497.764 119.491 497.788 119.719C497.795 119.791 498.024 120.101 498.297 120.407C498.78 120.951 498.806 120.997 499.335 122.24C499.634 122.941 499.925 123.701 499.982 123.929L500.086 124.344L500.437 124.488C500.63 124.568 501.171 124.703 501.639 124.789C502.108 124.874 502.564 124.975 502.655 125.012C502.745 125.049 502.906 125.203 503.013 125.353C503.119 125.504 503.272 125.654 503.352 125.687C503.605 125.79 504.2 125.796 505.508 125.706C506.902 125.611 507.036 125.612 507.054 125.722C507.069 125.812 506.85 125.943 506.03 126.335C504.76 126.943 504.19 127.389 503.639 128.208L503.344 128.647L503.373 129.148C503.401 129.619 503.389 129.681 503.18 130.189C503.042 130.525 502.741 131.082 502.386 131.658C502.072 132.168 501.748 132.703 501.667 132.848C501.237 133.605 500.862 134.011 500.564 134.041C500.203 134.078 499.952 133.801 499.716 133.104C499.531 132.556 499.255 132.144 498.678 131.554C498.184 131.05 497.969 130.657 497.905 130.143C497.86 129.781 497.663 129.23 497.563 129.189C497.536 129.178 497.409 129.062 497.283 128.933C497.088 128.734 497.027 128.595 496.885 128.032C496.731 127.417 496.569 127.081 496.256 126.719C496.192 126.646 496.137 126.516 496.134 126.43C496.129 126.294 496.169 126.255 496.455 126.11C496.634 126.02 496.899 125.844 497.042 125.72C497.472 125.348 498.046 124.977 498.425 124.827C498.988 124.604 498.939 124.461 498.293 124.444C498.068 124.437 497.787 124.505 497.402 124.659C496.839 124.884 496.734 124.899 496.711 124.763C496.685 124.6 496.907 124.438 497.583 124.126C498.346 123.774 498.679 123.522 498.815 123.19C498.936 122.897 498.876 122.695 498.633 122.57C498.505 122.505 498.449 122.445 498.476 122.403C498.548 122.296 498.495 121.977 498.36 121.705C498.176 121.332 497.922 121.063 497.653 120.951C497.523 120.897 497.199 120.674 496.933 120.455C496.311 119.942 495.651 119.643 495.093 119.623C494.63 119.606 493.986 119.704 493.426 119.878C492.891 120.044 492.871 120.016 492.964 119.255C493.054 118.515 492.974 117.941 492.67 117.146C492.401 116.443 492.332 115.95 492.348 114.843C492.357 114.213 492.284 113.528 492.18 113.255C492.123 113.108 492.043 113.022 491.917 112.969C491.677 112.871 491.67 112.744 491.844 111.679C491.943 111.076 492.06 110.612 492.251 110.069C492.549 109.219 492.565 108.982 492.347 108.687C492.08 108.324 491.4 108.066 490.362 107.934C489.546 107.83 488.987 108.09 488.741 108.686C488.456 109.381 488.569 110.658 489.036 112.008C489.261 112.656 489.42 112.912 489.659 113.011C489.809 113.073 489.82 113.106 489.79 113.436C489.751 113.861 489.796 114.243 489.955 114.842C490.118 115.457 490.563 116.485 490.689 116.537C490.747 116.561 490.905 116.544 491.04 116.499C491.827 116.238 491.914 116.319 491.472 116.904C491.129 117.36 491.021 118.024 491.179 118.706C491.247 118.997 491.311 119.097 491.626 119.405C491.998 119.768 492.257 120.157 492.354 120.499C492.418 120.724 492.264 121.142 492.058 121.302C491.966 121.373 491.849 121.585 491.693 121.96C491.115 123.355 491.238 124.617 492.073 125.85C492.461 126.424 492.626 126.577 493.038 126.747C493.59 126.973 493.597 127.011 493.219 127.681C493.022 128.033 492.847 128.423 492.745 128.74C492.526 129.426 492.201 130.878 492.151 131.399C492.116 131.757 492.023 132.057 491.585 133.227C491.214 134.216 491.047 134.732 491.017 134.981C490.925 135.75 491.13 137.135 491.436 137.801C491.621 138.206 491.665 138.246 492.193 138.51C492.444 138.636 492.688 138.83 493.067 139.205C493.552 139.685 493.618 139.732 493.932 139.825C494.595 140.02 495.432 139.938 497.081 139.518C498.286 139.211 498.409 139.197 498.553 139.35C498.612 139.414 498.732 139.495 498.818 139.53C499.017 139.612 500.411 139.848 501.08 139.914C502.088 140.013 503.351 140.224 503.849 140.377C504.256 140.502 504.416 140.522 504.644 140.477C505.256 140.357 506.087 139.936 508.315 138.619C509.778 137.755 510.214 137.46 510.286 137.285C510.316 137.213 510.285 136.974 510.216 136.747C510.082 136.304 510.125 136.061 510.352 135.984C510.424 135.959 510.767 135.893 511.113 135.837C511.992 135.695 512.475 135.457 512.836 134.991C512.999 134.78 513.032 134.494 512.92 134.282C512.796 134.05 511.888 133.132 511.658 133.005C511.527 132.934 511.203 132.811 510.938 132.733C510.673 132.655 510.387 132.55 510.304 132.5C509.798 132.2 508.609 127.945 508.748 126.932C508.81 126.482 508.727 126.232 508.394 125.863C508.215 125.665 508.108 125.495 508.122 125.429C508.154 125.278 508.718 125.071 509.019 125.101C509.36 125.135 509.49 124.989 509.795 124.231C510.082 123.515 510.249 122.853 510.239 122.468C510.23 122.136 509.479 120.136 509.318 120.017C509.169 119.907 509.072 119.945 508.638 120.275C508.22 120.594 507.987 120.67 507.904 120.514C507.875 120.459 507.857 120.252 507.865 120.054C507.904 119.074 507.982 119.151 506.321 118.541C504.757 117.968 504.133 117.703 503.512 117.349C502.91 117.005 502.805 117.003 502.326 117.326C501.947 117.581 501.569 117.722 500.524 117.996C499.924 118.153 499.714 118.151 499.474 117.985C499.274 117.846 499.291 117.737 499.555 117.463C499.841 117.166 499.933 116.935 499.924 116.542C499.913 116.076 500.042 115.78 500.306 115.663C500.945 115.38 501.763 114.187 502.056 113.112C502.225 112.491 502.252 111.974 502.174 110.866C502.071 109.399 502.074 109.383 502.654 108.73C503.151 108.17 503.224 107.872 503.088 106.945L503.016 106.447L503.41 105.478C503.843 104.413 503.843 104.416 503.769 103.341C503.698 102.298 503.256 101.815 502.424 101.875ZM521.501 124.87C521.045 124.801 520.375 124.941 519.624 125.262C518.868 125.585 518.255 125.999 517.75 126.53C517.38 126.918 517.331 126.994 517.099 127.557C516.862 128.131 516.85 128.19 516.877 128.605C516.933 129.461 517.338 129.971 518.273 130.363C518.738 130.557 518.868 130.589 519.098 130.566C519.788 130.496 520.487 129.998 521.19 129.075C521.385 128.819 521.737 128.358 521.971 128.05C522.523 127.324 522.75 126.803 522.664 126.46C522.561 126.048 522.213 125.223 522.097 125.114C521.969 124.994 521.765 124.911 521.501 124.87ZM515.287 130.488C514.872 130.793 514.512 131.095 514.486 131.159C514.388 131.398 514.753 131.725 515.173 131.774C515.392 131.8 515.458 131.827 515.502 131.91C515.563 132.025 515.432 132.387 515.2 132.74C515.042 132.98 515.061 133.032 515.256 132.892C515.326 132.841 515.759 132.575 516.216 132.301C517.134 131.752 517.348 131.591 517.432 131.386C517.523 131.164 517.419 131.116 517.112 131.24C516.654 131.424 516.572 131.341 516.23 130.351C516.154 130.133 516.081 129.95 516.066 129.944C516.051 129.938 515.701 130.183 515.287 130.488Z" fill="#006917"/>
<path d="M66.528 144.282C66.656 147.802 66.336 150.874 65.568 153.498C64.8 156.058 63.744 158.266 62.4 160.122C61.056 161.914 59.488 163.386 57.696 164.538C55.968 165.69 54.176 166.586 52.32 167.226C47.968 168.826 43.008 169.434 37.44 169.05C37.952 171.418 38.208 173.498 38.208 175.29C38.208 177.082 38.016 178.65 37.632 179.994C37.248 181.338 36.736 182.49 36.096 183.45C35.456 184.346 34.752 185.114 33.984 185.754C32.192 187.226 29.984 188.122 27.36 188.442C23.584 188.826 20.448 188.346 17.952 187.002C15.456 185.658 13.472 184.09 12 182.298C10.272 180.186 8.928 177.754 7.968 175.002C6.496 170.01 5.664 165.242 5.472 160.698C5.344 156.154 5.504 152.122 5.952 148.602C6.464 144.57 7.264 140.762 8.352 137.178C9.184 134.682 10.24 132.538 11.52 130.746C12.864 128.89 14.272 127.322 15.744 126.042C17.28 124.698 18.88 123.642 20.544 122.874C22.208 122.042 23.84 121.37 25.44 120.858C29.216 119.706 33.216 119.258 37.44 119.514C41.024 119.642 44.16 120.09 46.848 120.858C49.6 121.626 51.968 122.618 53.952 123.834C56 124.986 57.728 126.298 59.136 127.77C60.544 129.242 61.728 130.746 62.688 132.282C64.8 135.802 66.08 139.802 66.528 144.282ZM37.248 142.362C36.16 142.362 35.2 142.778 34.368 143.61C33.6 144.442 33.28 145.37 33.408 146.394C33.536 147.738 33.92 148.666 34.56 149.178C35.264 149.69 36.16 149.946 37.248 149.946C38.336 149.946 39.232 149.626 39.936 148.986C40.64 148.346 40.992 147.482 40.992 146.394C40.992 145.37 40.672 144.442 40.032 143.61C39.392 142.778 38.464 142.362 37.248 142.362ZM103.805 125.082C103.933 126.49 103.741 127.866 103.229 129.21C102.781 130.554 102.077 131.77 101.117 132.858C100.221 133.882 99.1012 134.746 97.7572 135.45C96.4132 136.09 94.9412 136.506 93.3412 136.698C91.6772 136.89 90.1092 136.794 88.6372 136.41C87.2292 135.962 85.9492 135.322 84.7972 134.49C83.6452 133.658 82.6852 132.666 81.9172 131.514C81.2132 130.298 80.7652 128.954 80.5732 127.482C80.4452 126.074 80.6052 124.73 81.0532 123.45C81.5652 122.106 82.3012 120.922 83.2612 119.898C84.2212 118.81 85.3732 117.914 86.7172 117.21C88.0612 116.506 89.5332 116.058 91.1332 115.866C92.7332 115.674 94.2372 115.802 95.6452 116.25C97.1172 116.634 98.4292 117.242 99.5812 118.074C100.733 118.906 101.693 119.93 102.461 121.146C103.229 122.362 103.677 123.674 103.805 125.082ZM107.933 179.034C107.421 181.914 106.429 184.122 104.957 185.658C103.485 187.13 101.981 188.218 100.445 188.922C98.5892 189.69 96.6052 190.106 94.4932 190.17C91.7412 190.298 89.5012 189.914 87.7732 189.018C86.0452 188.186 84.6692 187.226 83.6452 186.138C82.4932 184.922 81.5652 183.482 80.8612 181.818C79.5812 178.362 78.8132 174.81 78.5572 171.162C78.3652 167.45 78.4292 164.058 78.7492 160.986C79.0692 157.466 79.6452 154.01 80.4772 150.618C81.2452 147.674 82.3652 145.466 83.8372 143.994C85.3732 142.458 86.8772 141.338 88.3492 140.634C90.0772 139.866 91.9012 139.45 93.8212 139.386C96.7652 139.258 99.1332 139.77 100.925 140.922C102.781 142.01 104.253 143.29 105.341 144.762C106.557 146.426 107.453 148.41 108.029 150.714C108.477 152.826 108.829 155.29 109.085 158.106C109.277 160.538 109.309 163.514 109.181 167.034C109.117 170.49 108.701 174.49 107.933 179.034Z" fill="#C4A505"/>
<path d="M193.822 140.73C196.19 141.498 198.174 142.618 199.774 144.09C201.374 145.562 202.686 147.258 203.71 149.178C204.734 151.098 205.502 153.178 206.014 155.418C206.59 157.594 206.974 159.77 207.166 161.946C207.614 167.066 207.39 172.634 206.494 178.65C205.918 180.826 205.086 182.746 203.998 184.41C203.038 185.882 201.758 187.194 200.158 188.346C198.558 189.498 196.446 190.074 193.822 190.074C191.454 190.074 189.438 189.626 187.774 188.73C186.174 187.834 184.83 186.714 183.742 185.37C182.654 183.962 181.79 182.458 181.15 180.858C180.51 179.194 180.03 177.626 179.71 176.154C179.454 174.618 179.294 173.274 179.23 172.122C179.166 170.97 179.134 170.202 179.134 169.818C179.07 170.33 178.942 171.194 178.75 172.41C178.622 173.626 178.334 175.002 177.886 176.538C177.502 178.01 176.926 179.578 176.158 181.242C175.454 182.906 174.526 184.41 173.374 185.754C172.222 187.098 170.782 188.186 169.054 189.018C167.39 189.914 165.406 190.362 163.102 190.362C160.734 190.362 158.686 189.914 156.958 189.018C155.294 188.122 153.854 187.002 152.638 185.658C151.486 184.25 150.526 182.714 149.758 181.05C148.99 179.386 148.382 177.786 147.934 176.25C147.486 174.714 147.166 173.338 146.974 172.122C146.846 170.842 146.75 169.946 146.686 169.434C146.686 169.818 146.622 170.618 146.494 171.834C146.43 172.986 146.238 174.33 145.918 175.866C145.662 177.402 145.214 179.002 144.574 180.666C143.998 182.33 143.198 183.866 142.174 185.274C141.15 186.682 139.87 187.834 138.334 188.73C136.862 189.626 135.07 190.074 132.958 190.074C130.014 190.074 127.678 189.466 125.95 188.25C124.222 186.97 122.91 185.562 122.014 184.026C120.926 182.298 120.222 180.282 119.902 177.978C119.326 172.026 119.326 166.554 119.902 161.562C120.158 159.45 120.542 157.306 121.054 155.13C121.566 152.954 122.27 150.938 123.166 149.082C124.062 147.162 125.182 145.498 126.526 144.09C127.934 142.618 129.63 141.498 131.614 140.73C135.198 139.386 138.43 138.746 141.31 138.81C144.254 138.874 146.846 139.386 149.086 140.346C151.39 141.306 153.374 142.586 155.038 144.186C156.702 145.722 158.11 147.322 159.262 148.986C160.414 150.586 161.278 152.122 161.854 153.594C162.494 155.066 162.91 156.154 163.102 156.858C163.294 156.154 163.678 155.098 164.254 153.69C164.894 152.282 165.758 150.81 166.846 149.274C167.934 147.674 169.278 146.138 170.878 144.666C172.478 143.13 174.398 141.882 176.638 140.922C178.878 139.962 181.406 139.418 184.222 139.29C187.038 139.098 190.238 139.578 193.822 140.73ZM218.411 196.026C217.707 189.69 217.515 183.546 217.835 177.594C217.963 175.034 218.219 172.41 218.603 169.722C219.051 166.97 219.659 164.282 220.427 161.658C221.195 158.97 222.155 156.41 223.307 153.978C224.523 151.482 225.995 149.242 227.723 147.258C229.963 144.698 232.779 142.682 236.171 141.21C239.563 139.738 243.115 138.81 246.827 138.426C250.603 138.042 254.379 138.202 258.155 138.906C261.995 139.546 265.451 140.73 268.523 142.458C270.059 143.418 271.499 144.57 272.843 145.914C273.995 147.066 275.115 148.506 276.203 150.234C277.355 151.962 278.251 153.978 278.891 156.282C279.403 158.33 279.659 160.666 279.659 163.29C279.723 165.914 279.499 168.538 278.987 171.162C278.475 173.722 277.675 176.154 276.587 178.458C275.499 180.698 274.123 182.522 272.459 183.93C270.923 185.21 269.355 186.234 267.755 187.002C266.155 187.77 264.555 188.346 262.955 188.73C261.419 189.114 259.915 189.338 258.443 189.402C257.035 189.466 255.691 189.434 254.411 189.306C251.403 189.05 248.523 188.282 245.771 187.002C246.667 191.866 246.891 196.186 246.443 199.962C246.251 201.562 245.899 203.13 245.387 204.666C244.875 206.202 244.139 207.578 243.179 208.794C242.219 210.01 240.971 210.97 239.435 211.674C237.963 212.442 236.139 212.826 233.963 212.826C232.235 212.826 230.699 212.57 229.355 212.058C228.011 211.61 226.795 211.002 225.707 210.234C224.683 209.466 223.787 208.57 223.019 207.546C222.251 206.586 221.579 205.562 221.003 204.474C219.723 201.978 218.859 199.162 218.411 196.026ZM250.283 162.426C249.195 162.426 248.235 162.842 247.403 163.674C246.635 164.506 246.315 165.434 246.443 166.458C246.571 167.802 246.955 168.73 247.595 169.242C248.299 169.754 249.195 170.01 250.283 170.01C251.371 170.01 252.267 169.69 252.971 169.05C253.675 168.41 254.027 167.546 254.027 166.458C254.027 165.434 253.707 164.506 253.067 163.674C252.427 162.842 251.499 162.426 250.283 162.426Z" fill="#038E00"/>
<path d="M336.544 177.594C335.52 179.45 334.304 181.082 332.896 182.49C331.552 183.834 330.24 184.954 328.96 185.85C327.488 186.938 325.984 187.802 324.448 188.442C323.168 188.954 321.92 189.338 320.704 189.594C319.552 189.914 318.528 190.138 317.632 190.266C316.544 190.458 315.584 190.554 314.752 190.554C311.232 190.554 308.128 190.202 305.44 189.498C302.816 188.794 300.512 187.898 298.528 186.81C296.544 185.658 294.848 184.346 293.44 182.874C292.096 181.402 291.008 179.898 290.176 178.362C288.064 174.842 286.912 170.778 286.72 166.17C286.72 162.458 287.104 159.258 287.872 156.57C288.704 153.818 289.76 151.482 291.04 149.562C292.384 147.578 293.888 145.946 295.552 144.666C297.28 143.386 299.008 142.362 300.736 141.594C304.832 139.802 309.504 139.002 314.752 139.194C317.824 139.194 320.544 139.546 322.912 140.25C325.28 140.954 327.328 141.882 329.056 143.034C330.848 144.186 332.32 145.498 333.472 146.97C334.688 148.378 335.68 149.85 336.448 151.386C338.24 154.906 339.264 158.938 339.52 163.482C339.52 166.49 339.232 169.146 338.656 171.45C338.144 173.754 337.44 175.802 336.544 177.594ZM314.176 162.426C313.088 162.426 312.128 162.842 311.296 163.674C310.528 164.506 310.208 165.434 310.336 166.458C310.464 167.802 310.848 168.73 311.488 169.242C312.192 169.754 313.088 170.01 314.176 170.01C315.264 170.01 316.16 169.69 316.864 169.05C317.568 168.41 317.92 167.546 317.92 166.458C317.92 165.434 317.6 164.506 316.96 163.674C316.32 162.842 315.392 162.426 314.176 162.426ZM348.538 169.338C348.09 165.69 347.866 161.882 347.866 157.914C347.866 153.882 347.962 150.138 348.154 146.682C348.346 142.714 348.634 138.81 349.018 134.97C349.402 131.45 350.17 128.282 351.322 125.466C351.834 124.314 352.442 123.162 353.146 122.01C353.914 120.858 354.81 119.834 355.834 118.938C356.858 118.042 358.042 117.338 359.386 116.826C360.794 116.25 362.362 115.962 364.09 115.962C366.522 116.026 368.794 116.794 370.906 118.266C371.738 118.906 372.602 119.706 373.498 120.666C374.394 121.626 375.194 122.842 375.898 124.314C376.666 125.786 377.306 127.514 377.818 129.498C378.394 131.482 378.778 133.786 378.97 136.41C379.354 141.53 379.546 146.426 379.546 151.098C379.546 155.77 379.482 159.93 379.354 163.578C379.162 167.866 378.874 171.866 378.49 175.578C378.17 178.394 377.434 180.858 376.282 182.97C375.77 183.866 375.13 184.762 374.362 185.658C373.658 186.554 372.762 187.354 371.674 188.058C370.65 188.698 369.434 189.21 368.026 189.594C366.618 189.978 365.018 190.138 363.226 190.074C361.562 190.01 360.058 189.658 358.714 189.018C357.434 188.442 356.282 187.674 355.258 186.714C354.234 185.754 353.37 184.666 352.666 183.45C351.962 182.17 351.354 180.89 350.842 179.61C349.69 176.602 348.922 173.178 348.538 169.338Z" fill="#05ABC4"/>
<path d="M453.519 166.65C453.647 170.426 453.295 173.85 452.463 176.922C452.079 178.266 451.567 179.61 450.927 180.954C450.351 182.234 449.551 183.45 448.527 184.602C447.503 185.69 446.287 186.65 444.879 187.482C443.535 188.314 441.903 188.89 439.983 189.21C439.983 189.21 439.599 189.242 438.831 189.306C438.063 189.37 437.071 189.338 435.855 189.21C434.703 189.082 433.423 188.826 432.015 188.442C430.671 187.994 429.391 187.29 428.175 186.33C426.959 185.306 425.903 183.962 425.007 182.298C424.175 180.634 423.695 178.522 423.567 175.962C423.311 173.466 423.055 171.226 422.799 169.242C422.479 167.578 422.127 166.042 421.743 164.634C421.359 163.162 420.847 162.426 420.207 162.426C420.399 164.794 420.495 166.842 420.495 168.57C420.559 170.298 420.559 171.77 420.495 172.986C420.431 174.394 420.367 175.61 420.303 176.634C419.983 179.066 419.247 181.21 418.095 183.066C417.135 184.73 415.695 186.234 413.775 187.578C411.919 188.858 409.327 189.498 405.999 189.498C402.671 189.498 400.047 188.826 398.127 187.482C396.207 186.074 394.735 184.538 393.711 182.874C392.559 180.89 391.791 178.65 391.407 176.154C390.895 172.314 390.511 168.058 390.255 163.386C390.063 159.354 389.999 154.65 390.063 149.274C390.191 143.834 390.639 137.882 391.407 131.418C391.663 128.538 392.367 125.978 393.519 123.738C393.967 122.778 394.543 121.85 395.247 120.954C395.951 120.058 396.815 119.258 397.839 118.554C398.863 117.85 400.047 117.306 401.391 116.922C402.735 116.474 404.271 116.25 405.999 116.25C408.943 116.314 411.439 116.986 413.487 118.266C415.535 119.546 417.167 121.37 418.383 123.738C419.663 126.106 420.559 128.954 421.071 132.282C421.583 135.61 421.743 139.354 421.551 143.514C427.055 140.826 432.047 139.738 436.527 140.25C438.447 140.442 440.335 141.018 442.191 141.978C444.111 142.938 445.839 144.442 447.375 146.49C448.911 148.474 450.223 151.098 451.311 154.362C452.399 157.626 453.135 161.722 453.519 166.65ZM512.314 177.594C511.29 179.45 510.074 181.082 508.666 182.49C507.322 183.834 506.01 184.954 504.73 185.85C503.258 186.938 501.754 187.802 500.218 188.442C498.938 188.954 497.69 189.338 496.474 189.594C495.322 189.914 494.298 190.138 493.402 190.266C492.314 190.458 491.354 190.554 490.522 190.554C487.002 190.554 483.898 190.202 481.21 189.498C478.586 188.794 476.282 187.898 474.298 186.81C472.314 185.658 470.618 184.346 469.21 182.874C467.866 181.402 466.778 179.898 465.946 178.362C463.834 174.842 462.682 170.778 462.49 166.17C462.49 162.458 462.874 159.258 463.642 156.57C464.474 153.818 465.53 151.482 466.81 149.562C468.154 147.578 469.658 145.946 471.322 144.666C473.05 143.386 474.778 142.362 476.506 141.594C480.602 139.802 485.274 139.002 490.522 139.194C493.594 139.194 496.314 139.546 498.682 140.25C501.05 140.954 503.098 141.882 504.826 143.034C506.618 144.186 508.09 145.498 509.242 146.97C510.458 148.378 511.45 149.85 512.218 151.386C514.01 154.906 515.034 158.938 515.29 163.482C515.29 166.49 515.002 169.146 514.426 171.45C513.914 173.754 513.21 175.802 512.314 177.594ZM489.946 162.426C488.858 162.426 487.898 162.842 487.066 163.674C486.298 164.506 485.978 165.434 486.106 166.458C486.234 167.802 486.618 168.73 487.258 169.242C487.962 169.754 488.858 170.01 489.946 170.01C491.034 170.01 491.93 169.69 492.634 169.05C493.338 168.41 493.69 167.546 493.69 166.458C493.69 165.434 493.37 164.506 492.73 163.674C492.09 162.842 491.162 162.426 489.946 162.426Z" fill="#C40505"/>
<path d="M66.528 144.282C66.656 147.802 66.336 150.874 65.568 153.498C64.8 156.058 63.744 158.266 62.4 160.122C61.056 161.914 59.488 163.386 57.696 164.538C55.968 165.69 54.176 166.586 52.32 167.226C47.968 168.826 43.008 169.434 37.44 169.05C37.952 171.418 38.208 173.498 38.208 175.29C38.208 177.082 38.016 178.65 37.632 179.994C37.248 181.338 36.736 182.49 36.096 183.45C35.456 184.346 34.752 185.114 33.984 185.754C32.192 187.226 29.984 188.122 27.36 188.442C23.584 188.826 20.448 188.346 17.952 187.002C15.456 185.658 13.472 184.09 12 182.298C10.272 180.186 8.928 177.754 7.968 175.002C6.496 170.01 5.664 165.242 5.472 160.698C5.344 156.154 5.504 152.122 5.952 148.602C6.464 144.57 7.264 140.762 8.352 137.178C9.184 134.682 10.24 132.538 11.52 130.746C12.864 128.89 14.272 127.322 15.744 126.042C17.28 124.698 18.88 123.642 20.544 122.874C22.208 122.042 23.84 121.37 25.44 120.858C29.216 119.706 33.216 119.258 37.44 119.514C41.024 119.642 44.16 120.09 46.848 120.858C49.6 121.626 51.968 122.618 53.952 123.834C56 124.986 57.728 126.298 59.136 127.77C60.544 129.242 61.728 130.746 62.688 132.282C64.8 135.802 66.08 139.802 66.528 144.282ZM37.248 142.362C36.16 142.362 35.2 142.778 34.368 143.61C33.6 144.442 33.28 145.37 33.408 146.394C33.536 147.738 33.92 148.666 34.56 149.178C35.264 149.69 36.16 149.946 37.248 149.946C38.336 149.946 39.232 149.626 39.936 148.986C40.64 148.346 40.992 147.482 40.992 146.394C40.992 145.37 40.672 144.442 40.032 143.61C39.392 142.778 38.464 142.362 37.248 142.362ZM103.805 125.082C103.933 126.49 103.741 127.866 103.229 129.21C102.781 130.554 102.077 131.77 101.117 132.858C100.221 133.882 99.1012 134.746 97.7572 135.45C96.4132 136.09 94.9412 136.506 93.3412 136.698C91.6772 136.89 90.1092 136.794 88.6372 136.41C87.2292 135.962 85.9492 135.322 84.7972 134.49C83.6452 133.658 82.6852 132.666 81.9172 131.514C81.2132 130.298 80.7652 128.954 80.5732 127.482C80.4452 126.074 80.6052 124.73 81.0532 123.45C81.5652 122.106 82.3012 120.922 83.2612 119.898C84.2212 118.81 85.3732 117.914 86.7172 117.21C88.0612 116.506 89.5332 116.058 91.1332 115.866C92.7332 115.674 94.2372 115.802 95.6452 116.25C97.1172 116.634 98.4292 117.242 99.5812 118.074C100.733 118.906 101.693 119.93 102.461 121.146C103.229 122.362 103.677 123.674 103.805 125.082ZM107.933 179.034C107.421 181.914 106.429 184.122 104.957 185.658C103.485 187.13 101.981 188.218 100.445 188.922C98.5892 189.69 96.6052 190.106 94.4932 190.17C91.7412 190.298 89.5012 189.914 87.7732 189.018C86.0452 188.186 84.6692 187.226 83.6452 186.138C82.4932 184.922 81.5652 183.482 80.8612 181.818C79.5812 178.362 78.8132 174.81 78.5572 171.162C78.3652 167.45 78.4292 164.058 78.7492 160.986C79.0692 157.466 79.6452 154.01 80.4772 150.618C81.2452 147.674 82.3652 145.466 83.8372 143.994C85.3732 142.458 86.8772 141.338 88.3492 140.634C90.0772 139.866 91.9012 139.45 93.8212 139.386C96.7652 139.258 99.1332 139.77 100.925 140.922C102.781 142.01 104.253 143.29 105.341 144.762C106.557 146.426 107.453 148.41 108.029 150.714C108.477 152.826 108.829 155.29 109.085 158.106C109.277 160.538 109.309 163.514 109.181 167.034C109.117 170.49 108.701 174.49 107.933 179.034Z" fill="#013563"/>
<path d="M193.822 140.73C196.19 141.498 198.174 142.618 199.774 144.09C201.374 145.562 202.686 147.258 203.71 149.178C204.734 151.098 205.502 153.178 206.014 155.418C206.59 157.594 206.974 159.77 207.166 161.946C207.614 167.066 207.39 172.634 206.494 178.65C205.918 180.826 205.086 182.746 203.998 184.41C203.038 185.882 201.758 187.194 200.158 188.346C198.558 189.498 196.446 190.074 193.822 190.074C191.454 190.074 189.438 189.626 187.774 188.73C186.174 187.834 184.83 186.714 183.742 185.37C182.654 183.962 181.79 182.458 181.15 180.858C180.51 179.194 180.03 177.626 179.71 176.154C179.454 174.618 179.294 173.274 179.23 172.122C179.166 170.97 179.134 170.202 179.134 169.818C179.07 170.33 178.942 171.194 178.75 172.41C178.622 173.626 178.334 175.002 177.886 176.538C177.502 178.01 176.926 179.578 176.158 181.242C175.454 182.906 174.526 184.41 173.374 185.754C172.222 187.098 170.782 188.186 169.054 189.018C167.39 189.914 165.406 190.362 163.102 190.362C160.734 190.362 158.686 189.914 156.958 189.018C155.294 188.122 153.854 187.002 152.638 185.658C151.486 184.25 150.526 182.714 149.758 181.05C148.99 179.386 148.382 177.786 147.934 176.25C147.486 174.714 147.166 173.338 146.974 172.122C146.846 170.842 146.75 169.946 146.686 169.434C146.686 169.818 146.622 170.618 146.494 171.834C146.43 172.986 146.238 174.33 145.918 175.866C145.662 177.402 145.214 179.002 144.574 180.666C143.998 182.33 143.198 183.866 142.174 185.274C141.15 186.682 139.87 187.834 138.334 188.73C136.862 189.626 135.07 190.074 132.958 190.074C130.014 190.074 127.678 189.466 125.95 188.25C124.222 186.97 122.91 185.562 122.014 184.026C120.926 182.298 120.222 180.282 119.902 177.978C119.326 172.026 119.326 166.554 119.902 161.562C120.158 159.45 120.542 157.306 121.054 155.13C121.566 152.954 122.27 150.938 123.166 149.082C124.062 147.162 125.182 145.498 126.526 144.09C127.934 142.618 129.63 141.498 131.614 140.73C135.198 139.386 138.43 138.746 141.31 138.81C144.254 138.874 146.846 139.386 149.086 140.346C151.39 141.306 153.374 142.586 155.038 144.186C156.702 145.722 158.11 147.322 159.262 148.986C160.414 150.586 161.278 152.122 161.854 153.594C162.494 155.066 162.91 156.154 163.102 156.858C163.294 156.154 163.678 155.098 164.254 153.69C164.894 152.282 165.758 150.81 166.846 149.274C167.934 147.674 169.278 146.138 170.878 144.666C172.478 143.13 174.398 141.882 176.638 140.922C178.878 139.962 181.406 139.418 184.222 139.29C187.038 139.098 190.238 139.578 193.822 140.73ZM218.411 196.026C217.707 189.69 217.515 183.546 217.835 177.594C217.963 175.034 218.219 172.41 218.603 169.722C219.051 166.97 219.659 164.282 220.427 161.658C221.195 158.97 222.155 156.41 223.307 153.978C224.523 151.482 225.995 149.242 227.723 147.258C229.963 144.698 232.779 142.682 236.171 141.21C239.563 139.738 243.115 138.81 246.827 138.426C250.603 138.042 254.379 138.202 258.155 138.906C261.995 139.546 265.451 140.73 268.523 142.458C270.059 143.418 271.499 144.57 272.843 145.914C273.995 147.066 275.115 148.506 276.203 150.234C277.355 151.962 278.251 153.978 278.891 156.282C279.403 158.33 279.659 160.666 279.659 163.29C279.723 165.914 279.499 168.538 278.987 171.162C278.475 173.722 277.675 176.154 276.587 178.458C275.499 180.698 274.123 182.522 272.459 183.93C270.923 185.21 269.355 186.234 267.755 187.002C266.155 187.77 264.555 188.346 262.955 188.73C261.419 189.114 259.915 189.338 258.443 189.402C257.035 189.466 255.691 189.434 254.411 189.306C251.403 189.05 248.523 188.282 245.771 187.002C246.667 191.866 246.891 196.186 246.443 199.962C246.251 201.562 245.899 203.13 245.387 204.666C244.875 206.202 244.139 207.578 243.179 208.794C242.219 210.01 240.971 210.97 239.435 211.674C237.963 212.442 236.139 212.826 233.963 212.826C232.235 212.826 230.699 212.57 229.355 212.058C228.011 211.61 226.795 211.002 225.707 210.234C224.683 209.466 223.787 208.57 223.019 207.546C222.251 206.586 221.579 205.562 221.003 204.474C219.723 201.978 218.859 199.162 218.411 196.026ZM250.283 162.426C249.195 162.426 248.235 162.842 247.403 163.674C246.635 164.506 246.315 165.434 246.443 166.458C246.571 167.802 246.955 168.73 247.595 169.242C248.299 169.754 249.195 170.01 250.283 170.01C251.371 170.01 252.267 169.69 252.971 169.05C253.675 168.41 254.027 167.546 254.027 166.458C254.027 165.434 253.707 164.506 253.067 163.674C252.427 162.842 251.499 162.426 250.283 162.426Z" fill="#038E00"/>
<path d="M336.544 177.594C335.52 179.45 334.304 181.082 332.896 182.49C331.552 183.834 330.24 184.954 328.96 185.85C327.488 186.938 325.984 187.802 324.448 188.442C323.168 188.954 321.92 189.338 320.704 189.594C319.552 189.914 318.528 190.138 317.632 190.266C316.544 190.458 315.584 190.554 314.752 190.554C311.232 190.554 308.128 190.202 305.44 189.498C302.816 188.794 300.512 187.898 298.528 186.81C296.544 185.658 294.848 184.346 293.44 182.874C292.096 181.402 291.008 179.898 290.176 178.362C288.064 174.842 286.912 170.778 286.72 166.17C286.72 162.458 287.104 159.258 287.872 156.57C288.704 153.818 289.76 151.482 291.04 149.562C292.384 147.578 293.888 145.946 295.552 144.666C297.28 143.386 299.008 142.362 300.736 141.594C304.832 139.802 309.504 139.002 314.752 139.194C317.824 139.194 320.544 139.546 322.912 140.25C325.28 140.954 327.328 141.882 329.056 143.034C330.848 144.186 332.32 145.498 333.472 146.97C334.688 148.378 335.68 149.85 336.448 151.386C338.24 154.906 339.264 158.938 339.52 163.482C339.52 166.49 339.232 169.146 338.656 171.45C338.144 173.754 337.44 175.802 336.544 177.594ZM314.176 162.426C313.088 162.426 312.128 162.842 311.296 163.674C310.528 164.506 310.208 165.434 310.336 166.458C310.464 167.802 310.848 168.73 311.488 169.242C312.192 169.754 313.088 170.01 314.176 170.01C315.264 170.01 316.16 169.69 316.864 169.05C317.568 168.41 317.92 167.546 317.92 166.458C317.92 165.434 317.6 164.506 316.96 163.674C316.32 162.842 315.392 162.426 314.176 162.426ZM348.538 169.338C348.09 165.69 347.866 161.882 347.866 157.914C347.866 153.882 347.962 150.138 348.154 146.682C348.346 142.714 348.634 138.81 349.018 134.97C349.402 131.45 350.17 128.282 351.322 125.466C351.834 124.314 352.442 123.162 353.146 122.01C353.914 120.858 354.81 119.834 355.834 118.938C356.858 118.042 358.042 117.338 359.386 116.826C360.794 116.25 362.362 115.962 364.09 115.962C366.522 116.026 368.794 116.794 370.906 118.266C371.738 118.906 372.602 119.706 373.498 120.666C374.394 121.626 375.194 122.842 375.898 124.314C376.666 125.786 377.306 127.514 377.818 129.498C378.394 131.482 378.778 133.786 378.97 136.41C379.354 141.53 379.546 146.426 379.546 151.098C379.546 155.77 379.482 159.93 379.354 163.578C379.162 167.866 378.874 171.866 378.49 175.578C378.17 178.394 377.434 180.858 376.282 182.97C375.77 183.866 375.13 184.762 374.362 185.658C373.658 186.554 372.762 187.354 371.674 188.058C370.65 188.698 369.434 189.21 368.026 189.594C366.618 189.978 365.018 190.138 363.226 190.074C361.562 190.01 360.058 189.658 358.714 189.018C357.434 188.442 356.282 187.674 355.258 186.714C354.234 185.754 353.37 184.666 352.666 183.45C351.962 182.17 351.354 180.89 350.842 179.61C349.69 176.602 348.922 173.178 348.538 169.338Z" fill="#05ABC4"/>
<path d="M453.519 166.65C453.647 170.426 453.295 173.85 452.463 176.922C452.079 178.266 451.567 179.61 450.927 180.954C450.351 182.234 449.551 183.45 448.527 184.602C447.503 185.69 446.287 186.65 444.879 187.482C443.535 188.314 441.903 188.89 439.983 189.21C439.983 189.21 439.599 189.242 438.831 189.306C438.063 189.37 437.071 189.338 435.855 189.21C434.703 189.082 433.423 188.826 432.015 188.442C430.671 187.994 429.391 187.29 428.175 186.33C426.959 185.306 425.903 183.962 425.007 182.298C424.175 180.634 423.695 178.522 423.567 175.962C423.311 173.466 423.055 171.226 422.799 169.242C422.479 167.578 422.127 166.042 421.743 164.634C421.359 163.162 420.847 162.426 420.207 162.426C420.399 164.794 420.495 166.842 420.495 168.57C420.559 170.298 420.559 171.77 420.495 172.986C420.431 174.394 420.367 175.61 420.303 176.634C419.983 179.066 419.247 181.21 418.095 183.066C417.135 184.73 415.695 186.234 413.775 187.578C411.919 188.858 409.327 189.498 405.999 189.498C402.671 189.498 400.047 188.826 398.127 187.482C396.207 186.074 394.735 184.538 393.711 182.874C392.559 180.89 391.791 178.65 391.407 176.154C390.895 172.314 390.511 168.058 390.255 163.386C390.063 159.354 389.999 154.65 390.063 149.274C390.191 143.834 390.639 137.882 391.407 131.418C391.663 128.538 392.367 125.978 393.519 123.738C393.967 122.778 394.543 121.85 395.247 120.954C395.951 120.058 396.815 119.258 397.839 118.554C398.863 117.85 400.047 117.306 401.391 116.922C402.735 116.474 404.271 116.25 405.999 116.25C408.943 116.314 411.439 116.986 413.487 118.266C415.535 119.546 417.167 121.37 418.383 123.738C419.663 126.106 420.559 128.954 421.071 132.282C421.583 135.61 421.743 139.354 421.551 143.514C427.055 140.826 432.047 139.738 436.527 140.25C438.447 140.442 440.335 141.018 442.191 141.978C444.111 142.938 445.839 144.442 447.375 146.49C448.911 148.474 450.223 151.098 451.311 154.362C452.399 157.626 453.135 161.722 453.519 166.65ZM512.314 177.594C511.29 179.45 510.074 181.082 508.666 182.49C507.322 183.834 506.01 184.954 504.73 185.85C503.258 186.938 501.754 187.802 500.218 188.442C498.938 188.954 497.69 189.338 496.474 189.594C495.322 189.914 494.298 190.138 493.402 190.266C492.314 190.458 491.354 190.554 490.522 190.554C487.002 190.554 483.898 190.202 481.21 189.498C478.586 188.794 476.282 187.898 474.298 186.81C472.314 185.658 470.618 184.346 469.21 182.874C467.866 181.402 466.778 179.898 465.946 178.362C463.834 174.842 462.682 170.778 462.49 166.17C462.49 162.458 462.874 159.258 463.642 156.57C464.474 153.818 465.53 151.482 466.81 149.562C468.154 147.578 469.658 145.946 471.322 144.666C473.05 143.386 474.778 142.362 476.506 141.594C480.602 139.802 485.274 139.002 490.522 139.194C493.594 139.194 496.314 139.546 498.682 140.25C501.05 140.954 503.098 141.882 504.826 143.034C506.618 144.186 508.09 145.498 509.242 146.97C510.458 148.378 511.45 149.85 512.218 151.386C514.01 154.906 515.034 158.938 515.29 163.482C515.29 166.49 515.002 169.146 514.426 171.45C513.914 173.754 513.21 175.802 512.314 177.594ZM489.946 162.426C488.858 162.426 487.898 162.842 487.066 163.674C486.298 164.506 485.978 165.434 486.106 166.458C486.234 167.802 486.618 168.73 487.258 169.242C487.962 169.754 488.858 170.01 489.946 170.01C491.034 170.01 491.93 169.69 492.634 169.05C493.338 168.41 493.69 167.546 493.69 166.458C493.69 165.434 493.37 164.506 492.73 163.674C492.09 162.842 491.162 162.426 489.946 162.426Z" fill="#C40505"/>
<path fill-rule="evenodd" clip-rule="evenodd" d="M552.568 220.67C551.378 220.552 551.204 220.662 550.733 221.84C549.823 224.116 550.454 224.488 552.517 222.892C554.557 221.316 554.567 220.869 552.568 220.67ZM545.309 211.919C544.445 211.07 543.471 210.271 543.144 210.143C542.129 209.747 540.829 210.57 540.463 211.841C540.142 212.953 540.302 213.264 542.383 215.551C543.632 216.923 545.036 218.141 545.503 218.256C546.633 218.534 548.02 217.411 548.158 216.107C548.274 215.012 547.908 214.474 545.309 211.919ZM533.113 203.116C530.346 201.396 528.676 201.724 528.431 204.038L528.282 205.448L531.191 207.497C533.621 209.208 534.29 209.466 535.248 209.058C537.85 207.953 536.975 205.518 533.113 203.116ZM520.609 197.001C518.231 195.927 517.379 195.78 516.513 196.293C513.988 197.789 514.998 199.753 519.179 201.478C522.275 202.755 523.99 202.366 524.204 200.34C524.362 198.848 524.045 198.553 520.609 197.001ZM507 192.763C503.612 191.922 502.655 191.979 501.923 193.066C500.436 195.275 502.529 197.075 507.107 197.527C510.092 197.821 510.373 197.688 510.564 195.881C510.763 194.005 510.273 193.576 507 192.763ZM493.161 190.429C488.833 190.064 488.2 190.216 487.709 191.738C486.999 193.936 488.229 194.884 492.149 195.161C495.209 195.377 495.679 195.277 496.308 194.28C496.84 193.437 496.816 192.837 496.214 191.887C495.568 190.866 494.972 190.582 493.161 190.429ZM478.156 189.694C474.652 189.582 473.282 190.343 473.473 192.295C473.651 194.108 474.507 194.535 477.866 194.487C480.804 194.445 482.337 193.732 482.484 192.34C482.664 190.642 481.278 189.795 478.156 189.694ZM465.05 190.095C459.885 190.149 458.162 191.461 460.049 193.902C460.929 195.04 461.362 195.147 464.037 194.886C467.394 194.559 468.222 194.123 468.384 192.596C468.566 190.866 467.505 190.07 465.05 190.095ZM452.067 191.355C446.972 191.003 443.837 193.041 445.722 195.479C446.464 196.439 447.586 196.583 451.106 196.17C453.543 195.884 453.69 195.804 454.099 194.54C454.603 192.977 453.638 191.463 452.067 191.355ZM438.994 192.879C437.992 192.452 432.632 193.007 431.838 193.621C431.059 194.223 431.046 196.404 431.818 197.095C432.68 197.867 438.457 197.697 439.529 196.868C439.988 196.513 440.324 195.64 440.276 194.928C440.175 193.428 440.136 193.367 438.994 192.879ZM424.984 194.19C424.111 193.664 418.841 194.476 417.775 195.301C417.102 195.821 416.909 196.393 417.153 197.137C417.764 198.994 418.816 199.35 422.339 198.892C425.609 198.467 425.77 198.392 426.18 197.122C426.586 195.867 426.201 194.924 424.984 194.19ZM409.26 195.552C405.652 195.532 403.898 196.034 403.277 197.262C402.824 198.156 402.921 198.595 403.774 199.507C404.661 200.456 405.325 200.593 407.833 200.346C411.003 200.034 412.285 199.404 412.424 198.089C412.579 196.626 411.254 195.564 409.26 195.552ZM395.89 196.471C395.102 196.391 393.39 196.391 392.086 196.472C389.798 196.614 389.698 196.668 389.269 197.997C388.551 200.22 390.018 201.254 393.74 201.148C397.144 201.05 398.084 200.605 398.253 199.012C398.408 197.545 397.569 196.642 395.89 196.471ZM379.837 196.181C376.261 195.886 374.89 196.508 375.016 198.368C375.134 200.111 376.177 200.697 379.541 200.913C382.732 201.118 383.925 200.597 384.103 198.92C384.291 197.136 383.241 196.462 379.837 196.181ZM366.081 194.568C363.395 193.881 362.539 193.879 361.661 194.558C360.155 195.722 360.614 197.704 362.554 198.418C365.546 199.518 368.298 199.845 369.134 199.199C369.887 198.616 370.187 196.423 369.615 195.683C369.503 195.538 367.912 195.036 366.081 194.568ZM352.306 190.862C349.329 189.59 348.621 189.61 347.552 190.999C346.166 192.798 347.925 194.514 352.582 195.908C354.516 196.487 356.02 195.85 356.175 194.386C356.311 193.102 355.218 192.106 352.306 190.862ZM339.756 185.006C337.113 183.253 335.748 183.065 334.782 184.319C333.756 185.652 334.544 187.176 337.232 189.054C340.025 191.006 340.676 191.17 341.889 190.232C343.82 188.739 343.239 187.316 339.756 185.006ZM329.016 177.509C328.101 176.7 326.973 175.701 326.509 175.29C326.046 174.879 325.108 174.663 324.426 174.811C323.407 175.033 323.151 175.305 322.988 176.345C322.631 178.623 327.009 182.885 329.213 182.407C331.638 181.88 331.553 179.754 329.016 177.509ZM318.462 169.735C317.2 170.71 316.747 171.31 317.012 171.653C318.064 173.014 320.538 171.967 320.738 170.077C320.923 168.329 320.385 168.248 318.462 169.735Z" fill="#05ABC4"/>
<path fill-rule="evenodd" clip-rule="evenodd" d="M286.904 157.376C285.735 157.124 285.55 157.214 284.949 158.331C283.787 160.489 284.372 160.93 286.603 159.578C288.807 158.242 288.868 157.8 286.904 157.376ZM280.681 147.86C279.919 146.919 279.041 146.015 278.731 145.851C277.767 145.343 276.383 146.014 275.875 147.235C275.43 148.304 275.555 148.63 277.363 151.138C278.449 152.643 279.707 154.011 280.158 154.178C281.249 154.582 282.754 153.624 283.039 152.343C283.278 151.268 282.975 150.693 280.681 147.86ZM269.559 137.735C267.004 135.713 265.307 135.85 264.803 138.122L264.495 139.505L267.154 141.87C269.374 143.845 270.011 144.177 271.009 143.881C273.719 143.077 273.124 140.558 269.559 137.735ZM257.826 130.245C255.585 128.91 254.756 128.667 253.837 129.079C251.159 130.28 251.94 132.345 255.899 134.531C258.831 136.15 260.579 135.958 261.021 133.969C261.346 132.505 261.064 132.176 257.826 130.245ZM244.784 124.496C241.512 123.277 240.555 123.225 239.705 124.223C237.978 126.249 239.854 128.274 244.352 129.241C247.284 129.871 247.578 129.77 247.973 127.996C248.382 126.155 247.944 125.674 244.784 124.496ZM231.297 120.612C227.039 119.76 226.392 119.84 225.732 121.296C224.778 123.4 225.893 124.48 229.757 125.199C232.773 125.759 233.252 125.714 233.989 124.794C234.613 124.016 234.657 123.418 234.166 122.406C233.639 121.319 233.08 120.969 231.297 120.612ZM216.472 118.186C213.003 117.678 211.555 118.279 211.525 120.24C211.497 122.061 212.299 122.582 215.642 122.914C218.565 123.205 220.169 122.67 220.473 121.304C220.843 119.636 219.563 118.638 216.472 118.186ZM203.405 117.102C198.267 116.572 196.406 117.68 198.005 120.319C198.751 121.549 199.169 121.705 201.856 121.748C205.229 121.802 206.101 121.462 206.434 119.963C206.811 118.266 205.847 117.355 203.405 117.102ZM190.362 116.885C185.34 115.96 181.995 117.63 183.591 120.265C184.221 121.304 185.319 121.573 188.863 121.561C191.316 121.553 191.472 121.489 192.021 120.28C192.699 118.784 191.911 117.17 190.362 116.885ZM177.2 116.922C176.254 116.384 170.865 116.33 170.007 116.85C169.165 117.36 168.905 119.525 169.594 120.3C170.364 121.164 176.122 121.648 177.282 120.945C177.778 120.645 178.21 119.816 178.243 119.103C178.312 117.601 178.281 117.536 177.2 116.922ZM163.132 116.64C162.325 116.019 156.997 116.23 155.844 116.929C155.117 117.369 154.86 117.916 155.019 118.683C155.416 120.598 156.421 121.07 159.973 121.013C163.27 120.96 163.438 120.905 163.99 119.689C164.534 118.488 164.258 117.507 163.132 116.64ZM147.355 116.216C143.773 115.788 141.973 116.088 141.217 117.238C140.666 118.075 140.713 118.522 141.457 119.525C142.231 120.568 142.876 120.78 145.395 120.818C148.58 120.866 149.925 120.385 150.212 119.094C150.531 117.658 149.335 116.453 147.355 116.216ZM133.967 115.617C133.193 115.448 131.492 115.255 130.187 115.188C127.898 115.07 127.792 115.113 127.216 116.384C126.251 118.512 127.591 119.706 131.302 120.021C134.695 120.309 135.68 119.973 136.028 118.409C136.348 116.968 135.616 115.977 133.967 115.617ZM118.049 113.514C114.53 112.817 113.097 113.28 113.012 115.142C112.932 116.887 113.902 117.587 117.22 118.182C120.368 118.746 121.612 118.363 121.978 116.718C122.367 114.966 121.401 114.178 118.049 113.514ZM104.564 110.356C101.973 109.369 101.123 109.271 100.174 109.846C98.5463 110.832 98.7779 112.854 100.624 113.782C103.473 115.214 106.17 115.85 107.074 115.302C107.888 114.809 108.434 112.663 107.949 111.863C107.855 111.706 106.331 111.028 104.564 110.356ZM91.2972 105.116C88.4823 103.516 87.7774 103.456 86.5576 104.714C84.9778 106.345 86.5308 108.249 91.0004 110.161C92.8568 110.955 94.4235 110.492 94.7429 109.055C95.0232 107.794 94.049 106.681 91.2972 105.116ZM79.4891 97.8788C77.0614 95.8385 75.7268 95.497 74.6254 96.6338C73.4544 97.8423 74.0653 99.445 76.5239 101.615C79.0785 103.871 79.7062 104.108 81.0181 103.313C83.1056 102.048 82.6892 100.568 79.4891 97.8788ZM69.6661 89.2157C68.8485 88.308 67.8404 87.1881 67.4264 86.727C67.012 86.2661 66.1049 85.946 65.4104 86.016C64.3728 86.1209 64.0879 86.3627 63.8084 87.3774C63.1964 89.6004 67.0639 94.3302 69.3081 94.104C71.7773 93.855 71.9328 91.7329 69.6661 89.2157ZM60.0588 80.2977C58.6949 81.1242 58.1764 81.6692 58.4008 82.0395C59.2923 83.5106 61.8685 82.7505 62.2814 80.8948C62.6625 79.1791 62.1375 79.0381 60.0588 80.2977Z" fill="#05ABC4"/>
<path d="M559.603 213.993C561.501 213.911 563.212 214.138 564.737 214.673C566.26 215.175 567.56 215.936 568.638 216.958C569.75 217.977 570.622 219.241 571.254 220.749C571.886 222.256 572.242 223.959 572.324 225.857C572.414 227.956 572.162 229.851 571.568 231.545C571.007 233.238 570.168 234.692 569.053 235.907C567.971 237.122 566.644 238.079 565.073 238.781C563.535 239.481 561.833 239.871 559.968 239.951C557.937 240.039 556.123 239.766 554.528 239.134C552.966 238.501 551.626 237.608 550.509 236.455C549.425 235.3 548.583 233.952 547.983 232.409C547.383 230.867 547.046 229.23 546.971 227.498C546.89 225.6 547.115 223.855 547.647 222.264C548.211 220.639 549.035 219.235 550.118 218.054C551.234 216.839 552.594 215.879 554.198 215.176C555.803 214.473 557.604 214.079 559.603 213.993ZM559.97 235.347C561.336 235.288 562.491 235.005 563.437 234.497C564.381 233.956 565.136 233.273 565.701 232.448C566.3 231.622 566.71 230.703 566.934 229.693C567.189 228.647 567.293 227.575 567.246 226.476C567.197 225.344 567.002 224.301 566.661 223.348C566.352 222.361 565.882 221.514 565.251 220.807C564.653 220.098 563.879 219.564 562.93 219.205C562.012 218.811 560.92 218.641 559.655 218.695C558.356 218.751 557.233 219.016 556.286 219.491C555.339 219.965 554.548 220.6 553.915 221.394C553.314 222.154 552.869 223.057 552.581 224.104C552.292 225.151 552.173 226.274 552.225 227.473C552.329 229.904 553.031 231.859 554.329 233.338C555.659 234.782 557.539 235.452 559.97 235.347Z" fill="black"/>
<path d="M56.6741 76.4501C58.712 77.1928 60.4597 77.8369 61.9174 78.3823C63.3304 78.9126 64.5278 79.3446 65.5097 79.6785C66.4769 79.9825 67.2584 80.1735 67.8542 80.2516C68.4201 80.3445 68.8825 80.3025 69.2413 80.1258C69.66 79.9196 69.9903 79.534 70.2322 78.969C70.4442 78.4187 70.4471 77.9342 70.2409 77.5156C70.0642 77.1567 69.5449 76.7437 68.6831 76.2763C67.8065 75.7791 66.7736 75.2661 65.5841 74.7372C64.3947 74.2083 63.1308 73.6789 61.7923 73.1491C60.4391 72.5894 59.1901 72.0527 58.0453 71.5389C58.4573 69.9612 58.8392 68.4355 59.1909 66.9618C59.5127 65.5028 59.7667 64.1701 59.9528 62.9637C60.139 61.7574 60.2571 60.7146 60.3071 59.8353C60.3272 58.9708 60.2415 58.3442 60.05 57.9554C59.8586 57.5667 59.5022 57.3335 58.9809 57.2558C58.4449 57.1482 58.0124 57.1755 57.6835 57.3375C57.4143 57.47 57.0981 57.9973 56.7348 58.9194C56.3567 59.8116 55.9702 60.8751 55.5752 62.1101C55.1356 63.3298 54.7254 64.6094 54.3446 65.9488C53.934 67.3029 53.5615 68.5081 53.2272 69.5646C52.2159 69.1709 51.0856 68.7243 49.8364 68.2249C48.5425 67.7102 47.2931 67.2481 46.088 66.8383C44.883 66.4286 43.7967 66.109 42.8291 65.8796C41.8615 65.6501 41.1833 65.6311 40.7946 65.8226C40.4656 65.9846 40.1956 66.2662 39.9845 66.6675C39.7734 67.0687 39.7635 67.4637 39.955 67.8524C40.1465 68.2412 40.6059 68.6837 41.3334 69.18C42.031 69.691 42.9147 70.2405 43.9845 70.8283C45.0543 71.4161 46.2805 72.0198 47.6632 72.6393C49.0159 73.2735 50.4432 73.9082 51.945 74.5434C51.6098 75.7489 51.2516 77.0585 50.8705 78.4725C50.4745 79.8565 50.1311 81.1961 49.8401 82.4913C49.5343 83.7566 49.3263 84.8808 49.216 85.864C49.0611 86.8321 49.0721 87.4955 49.2488 87.8544C49.455 88.273 49.8558 88.5587 50.4511 88.7113C51.0166 88.8787 51.5087 88.8593 51.9273 88.6531C52.3161 88.4616 52.7215 87.9647 53.1438 87.1622C53.5214 86.3446 53.9298 85.3632 54.369 84.2179C54.7635 83.0575 55.1661 81.8003 55.5768 80.4462C55.9428 79.0769 56.3086 77.7449 56.6741 76.4501Z" fill="black"/>
<path d="M556.321 205.22C558.121 205.18 559.621 205.34 560.821 205.7C562.061 206.06 563.061 206.56 563.821 207.2C564.581 207.8 565.141 208.5 565.501 209.3C565.901 210.06 566.161 210.82 566.281 211.58C566.441 212.3 566.501 212.98 566.461 213.62C566.461 214.26 566.441 214.74 566.401 215.06C566.561 214.54 566.921 213.72 567.481 212.6C568.041 211.44 568.981 210.28 570.301 209.12C571.781 207.84 573.181 207.12 574.501 206.96C575.861 206.8 577.041 206.88 578.041 207.2C579.201 207.6 580.281 208.24 581.281 209.12C582.201 210.08 582.841 211.04 583.201 212C583.601 212.96 583.781 213.92 583.741 214.88C583.701 215.84 583.501 216.78 583.141 217.7C582.821 218.58 582.421 219.42 581.941 220.22C580.781 222.1 579.141 223.9 577.021 225.62C578.901 227.66 580.401 229.52 581.521 231.2C582.681 232.88 583.561 234.42 584.161 235.82C584.761 237.18 585.121 238.4 585.241 239.48C585.401 240.56 585.421 241.52 585.301 242.36C584.981 244.28 583.981 245.78 582.301 246.86C580.541 247.94 578.881 248.48 577.321 248.48C575.801 248.52 574.401 248.26 573.121 247.7C571.841 247.1 570.701 246.3 569.701 245.3C568.701 244.26 567.841 243.24 567.121 242.24C566.441 241.24 565.901 240.36 565.501 239.6C565.101 238.84 564.881 238.38 564.841 238.22C564.841 238.34 564.861 238.86 564.901 239.78C564.941 240.7 564.781 241.72 564.421 242.84C564.061 243.96 563.381 245.04 562.381 246.08C561.421 247.12 559.961 247.82 558.001 248.18C556.881 248.42 555.861 248.46 554.941 248.3C554.021 248.14 553.201 247.88 552.481 247.52C551.761 247.12 551.121 246.64 550.561 246.08C550.041 245.48 549.581 244.88 549.181 244.28C548.221 242.84 547.501 241.12 547.021 239.12C546.581 237.2 546.261 235.1 546.061 232.82C545.861 230.86 545.781 228.56 545.821 225.92C545.861 223.28 546.121 220.42 546.601 217.34C547.081 214.26 547.841 211.9 548.881 210.26C549.961 208.62 551.061 207.42 552.181 206.66C553.461 205.78 554.841 205.3 556.321 205.22ZM605.726 208.22C605.806 209.1 605.686 209.96 605.366 210.8C605.086 211.64 604.646 212.4 604.046 213.08C603.486 213.72 602.786 214.26 601.946 214.7C601.106 215.1 600.186 215.36 599.186 215.48C598.146 215.6 597.166 215.54 596.246 215.3C595.366 215.02 594.566 214.62 593.846 214.1C593.126 213.58 592.526 212.96 592.046 212.24C591.606 211.48 591.326 210.64 591.206 209.72C591.126 208.84 591.226 208 591.506 207.2C591.826 206.36 592.286 205.62 592.886 204.98C593.486 204.3 594.206 203.74 595.046 203.3C595.886 202.86 596.806 202.58 597.806 202.46C598.806 202.34 599.746 202.42 600.626 202.7C601.546 202.94 602.366 203.32 603.086 203.84C603.806 204.36 604.406 205 604.886 205.76C605.366 206.52 605.646 207.34 605.726 208.22ZM608.306 241.94C607.986 243.74 607.366 245.12 606.446 246.08C605.526 247 604.586 247.68 603.626 248.12C602.466 248.6 601.226 248.86 599.906 248.9C598.186 248.98 596.786 248.74 595.706 248.18C594.626 247.66 593.766 247.06 593.126 246.38C592.406 245.62 591.826 244.72 591.386 243.68C590.586 241.52 590.106 239.3 589.946 237.02C589.826 234.7 589.866 232.58 590.066 230.66C590.266 228.46 590.626 226.3 591.146 224.18C591.626 222.34 592.326 220.96 593.246 220.04C594.206 219.08 595.146 218.38 596.066 217.94C597.146 217.46 598.286 217.2 599.486 217.16C601.326 217.08 602.806 217.4 603.926 218.12C605.086 218.8 606.006 219.6 606.686 220.52C607.446 221.56 608.006 222.8 608.366 224.24C608.646 225.56 608.866 227.1 609.026 228.86C609.146 230.38 609.166 232.24 609.086 234.44C609.046 236.6 608.786 239.1 608.306 241.94ZM652.147 246.2C651.107 247.28 649.987 247.9 648.787 248.06C647.627 248.26 646.527 248.24 645.487 248C644.447 247.8 643.587 247.52 642.907 247.16C642.227 246.8 641.887 246.62 641.887 246.62C640.327 247.42 638.607 248.04 636.727 248.48C634.847 248.92 632.927 249.18 630.967 249.26C629.047 249.34 627.167 249.22 625.327 248.9C623.487 248.58 621.847 248.04 620.407 247.28C619.447 246.72 618.547 246.06 617.707 245.3C616.987 244.62 616.247 243.8 615.487 242.84C614.767 241.84 614.247 240.66 613.927 239.3C613.607 238.06 613.387 236.7 613.267 235.22C613.187 233.7 613.267 232.16 613.507 230.6C613.747 229.04 614.187 227.54 614.827 226.1C615.467 224.62 616.387 223.32 617.587 222.2C619.427 220.48 621.347 219.34 623.347 218.78C625.387 218.22 627.267 217.94 628.987 217.94C630.987 217.98 632.947 218.28 634.867 218.84C634.427 215.84 634.367 213.16 634.687 210.8C634.807 209.8 635.027 208.82 635.347 207.86C635.667 206.86 636.107 205.98 636.667 205.22C637.267 204.46 638.007 203.86 638.887 203.42C639.807 202.94 640.907 202.7 642.187 202.7C643.307 202.7 644.307 202.86 645.187 203.18C646.067 203.5 646.847 203.92 647.527 204.44C648.207 204.96 648.787 205.56 649.267 206.24C649.787 206.88 650.207 207.54 650.527 208.22C651.287 209.82 651.787 211.66 652.027 213.74C652.267 215.94 652.387 218.22 652.387 220.58C652.387 222.62 652.247 224.9 651.967 227.42C651.727 229.9 651.267 232.4 650.587 234.92C651.747 235.48 652.607 236.24 653.167 237.2C653.767 238.16 654.107 239.18 654.187 240.26C654.267 241.34 654.127 242.42 653.767 243.5C653.407 244.54 652.867 245.44 652.147 246.2ZM634.567 231.32C633.887 231.32 633.287 231.58 632.767 232.1C632.287 232.62 632.087 233.2 632.167 233.84C632.247 234.68 632.487 235.26 632.887 235.58C633.327 235.9 633.887 236.06 634.567 236.06C635.247 236.06 635.807 235.86 636.247 235.46C636.687 235.06 636.907 234.52 636.907 233.84C636.907 233.2 636.707 232.62 636.307 232.1C635.907 231.58 635.327 231.32 634.567 231.32ZM674.589 228.92C676.309 229.16 677.829 229.48 679.149 229.88C680.469 230.28 681.589 230.74 682.509 231.26C683.469 231.78 684.249 232.34 684.849 232.94C685.489 233.5 685.989 234.06 686.349 234.62C687.229 235.94 687.669 237.4 687.669 239C687.669 240.32 687.469 241.5 687.069 242.54C686.709 243.54 686.209 244.42 685.569 245.18C684.969 245.9 684.269 246.52 683.469 247.04C682.709 247.56 681.929 248 681.129 248.36C679.209 249.16 677.029 249.66 674.589 249.86C672.349 249.94 670.389 249.9 668.709 249.74C667.069 249.58 665.649 249.34 664.449 249.02C663.249 248.7 662.229 248.32 661.389 247.88C660.589 247.44 659.949 246.98 659.469 246.5C658.309 245.38 657.729 244.08 657.729 242.6C657.689 241.6 657.809 240.72 658.089 239.96C658.409 239.2 658.829 238.54 659.349 237.98C659.909 237.42 660.529 236.96 661.209 236.6C661.889 236.2 662.589 235.88 663.309 235.64C664.989 235.08 666.929 234.76 669.129 234.68C666.409 234.04 664.349 233.22 662.949 232.22C661.549 231.22 660.549 230.26 659.949 229.34C659.229 228.26 658.869 227.12 658.869 225.92C658.909 224.64 659.169 223.52 659.649 222.56C660.129 221.6 660.729 220.78 661.449 220.1C662.209 219.38 663.029 218.8 663.909 218.36C664.829 217.88 665.769 217.48 666.729 217.16C668.929 216.44 671.429 216.08 674.229 216.08C677.029 216.16 679.289 216.4 681.009 216.8C682.769 217.16 684.129 217.68 685.089 218.36C686.049 219 686.689 219.76 687.009 220.64C687.329 221.48 687.469 222.38 687.429 223.34C687.389 224.26 687.169 225.04 686.769 225.68C686.369 226.32 685.869 226.86 685.269 227.3C684.669 227.7 683.989 228.04 683.229 228.32C682.469 228.56 681.689 228.74 680.889 228.86C679.009 229.14 676.909 229.16 674.589 228.92Z" fill="#013563"/>
</svg>
