<svg width="139" height="136" viewBox="0 0 139 136" fill="none" xmlns="http://www.w3.org/2000/svg">
<path fill-rule="evenodd" clip-rule="evenodd" d="M86.9594 1.52476C86.4209 2.40751 82.2177 9.14305 77.6186 16.4929C31.0925 90.8462 23.0365 103.852 23.3437 104.115C23.51 104.258 31.5241 105.095 41.153 105.976C50.782 106.857 64.9114 108.17 72.5518 108.894C80.1922 109.619 86.7433 110.215 87.1094 110.219C87.6837 110.227 87.7754 110.622 87.7754 113.091C87.7754 114.666 87.6472 115.95 87.49 115.945C87.3328 115.94 85.4919 115.767 83.3986 115.562C81.3054 115.357 73.941 114.668 67.0332 114.031C60.1255 113.395 48.9076 112.361 42.1045 111.734C35.3014 111.107 27.7657 110.34 25.3585 110.03C17.4677 109.013 9.90994 106.649 3.32305 103.136C1.5651 102.199 0.0819369 101.478 0.0271318 101.534C-0.273916 101.845 1.99364 107.851 3.68689 111.227L5.6496 115.139L7.98719 115.368C9.27321 115.494 34.0455 117.137 63.037 119.019C92.0285 120.901 120.872 122.786 127.133 123.209C133.395 123.631 138.587 123.907 138.671 123.822C138.974 123.519 138.288 120.854 137.87 120.713C137.635 120.634 128.879 119.784 118.413 118.826C107.947 117.867 99.1696 117.006 98.9077 116.912C98.5876 116.798 98.432 115.855 98.432 114.03V111.318L100.43 111.54C106.25 112.186 124.042 113.68 124.187 113.535C124.368 113.353 124.139 112.864 103.844 70.1375C96.4126 54.4927 89.8329 40.6001 89.2221 39.2649C88.6112 37.9297 88.04 36.9092 87.9528 36.9962C87.8656 37.0837 87.9654 38.6915 88.1743 40.5692C88.3832 42.447 89.8325 57.9004 91.3949 74.9101C92.9576 91.9198 94.3144 106.405 94.4107 107.1C94.5793 108.32 94.5435 108.36 93.3827 108.246L92.18 108.128L90.5389 101.637C84.1252 76.2656 81.5296 47.5209 83.6091 24.8928C84.1385 19.1335 85.9284 8.45809 87.1612 3.70682C87.6784 1.71415 88.0647 0.047154 88.0198 0.00210022C87.9753 -0.0429536 87.498 0.642398 86.9594 1.52476ZM93.5795 110.855L95.0067 111.091V113.949C95.0067 116.727 94.9827 116.801 94.1503 116.577C93.6792 116.451 92.8228 116.345 92.2474 116.342L91.2008 116.337V113.473C91.2008 110.373 91.1319 110.449 93.5795 110.855ZM9.01098 119.678C14.7758 126.316 20.9741 131.421 27.2615 134.707L29.7353 136L69.5071 135.971C107.678 135.942 122.442 135.625 131.353 134.643C136.148 134.114 137.132 133.729 137.969 132.054C138.807 130.375 139.297 127.542 138.802 127.235C138.606 127.114 126.66 126.248 112.255 125.31C97.8493 124.373 82.1237 123.343 77.3092 123.02C72.4947 122.698 58.0227 121.75 45.1492 120.913C32.2758 120.077 19.3132 119.221 16.3435 119.01C13.3737 118.8 10.3039 118.628 9.52136 118.628H8.09909L9.01098 119.678Z" fill="#8BA0BD" fill-opacity="0.5"/>
</svg>
