<svg width="129" height="119" viewBox="0 0 129 119" fill="none" xmlns="http://www.w3.org/2000/svg">
<path fill-rule="evenodd" clip-rule="evenodd" d="M30.0642 0.101518C30.3526 0.154791 30.7699 0.152785 30.9915 0.0970598C31.2131 0.041335 30.9772 -0.00235352 30.4671 9.83689e-05C29.9571 0.00255026 29.7759 0.048245 30.0642 0.101518ZM28.6705 0.314386C28.83 0.376352 29.0908 0.376352 29.2501 0.314386C29.4096 0.252643 29.2791 0.202045 28.9603 0.202045C28.6416 0.202045 28.5113 0.252643 28.6705 0.314386ZM32.2682 0.321296C32.4937 0.377913 32.8067 0.374123 32.9636 0.313049C33.1206 0.251974 32.936 0.205834 32.5535 0.210292C32.171 0.21475 32.0426 0.26468 32.2682 0.321296ZM27.1058 0.612625C26.6282 0.759739 26.6078 0.794511 26.9899 0.809891C27.2449 0.820144 27.61 0.731431 27.8012 0.612625C28.2074 0.360304 27.9255 0.360304 27.1058 0.612625ZM33.3649 0.577184C33.3649 0.680164 32.7649 0.893033 32.0319 1.04995C28.7992 1.7425 23.7982 4.02075 20.6382 6.24083C13.0876 11.5454 7.55224 20.1497 5.10283 30.3888C4.44052 33.1572 4.10114 35.4237 4.31928 35.6207C4.46857 35.7558 28.4438 42.7435 32.2058 43.7485C32.7796 43.9016 35.544 44.705 38.349 45.5333C41.154 46.3618 44.075 47.2148 44.84 47.429C49.1388 48.6327 52.9996 49.74 64.1552 52.9696C70.9535 54.9376 76.6881 56.5757 76.8985 56.6098C77.2222 56.6622 77.3277 56.2757 77.5799 54.1084C78.3164 47.7837 79.9651 40.4665 81.8266 35.2621C82.9799 32.0369 85.4942 27.0041 87.1656 24.5743C88.8602 22.111 92.6257 18.529 94.6812 17.4248C97.3402 15.9965 100.317 15.1011 102.406 15.1011C102.907 15.1011 103.662 15.0346 104.084 14.9535C104.682 14.8385 103.395 14.5211 98.2593 13.5165C94.6339 12.8072 87.5991 11.425 82.6266 10.4447C77.6541 9.4644 65.1358 7.00225 54.8082 4.97298C42.5487 2.56411 35.7332 1.12819 35.1736 0.836639C34.2929 0.37769 33.3649 0.244396 33.3649 0.577184ZM25.9033 0.987764C26.0705 1.05218 26.2705 1.04416 26.3475 0.970156C26.4244 0.896153 26.2877 0.843549 26.0433 0.853133C25.7733 0.863832 25.7183 0.91666 25.9033 0.987764ZM23.2807 1.84637C22.701 2.11497 22.6817 2.14573 23.1648 2.03227C23.8218 1.87802 24.5599 1.51604 24.208 1.52116C24.0805 1.52295 23.6632 1.66917 23.2807 1.84637ZM35.7302 1.70728C36.0229 1.81896 37.2015 2.07306 38.349 2.27211C40.807 2.69807 46.347 3.84934 47.5043 4.17433C47.9498 4.2996 48.608 4.40191 48.9668 4.40191C49.3299 4.40191 49.558 4.49798 49.4805 4.61835C49.3 4.89942 50.3684 5.15531 51.043 4.99259C51.3309 4.92305 51.7222 4.96094 51.9123 5.0764C52.1659 5.23065 52.0111 5.2964 51.3309 5.3236C50.6285 5.35146 50.5583 5.38289 51.0411 5.4531C51.3917 5.50415 51.6787 5.65126 51.6787 5.7801C51.6787 5.9096 51.4197 5.96666 51.0991 5.90759C50.3837 5.77608 50.3445 5.91428 51.0282 6.15746C51.4049 6.29143 51.6673 6.21742 52.0408 5.87171C52.318 5.61493 52.5002 5.32962 52.4457 5.23778C52.2951 4.98345 53.0214 5.03806 53.1855 5.29351C53.2643 5.4161 53.2121 5.51641 53.0696 5.51641C52.927 5.51641 52.8679 5.60601 52.9384 5.71545C53.0088 5.82512 52.8021 5.97848 52.4789 6.05649C51.7375 6.23525 51.913 6.53104 52.87 6.71516C53.2754 6.79317 53.5399 6.92156 53.4576 7.00069C53.2546 7.19595 50.2149 6.39842 50.0014 6.09371C49.8883 5.93233 49.8299 5.95217 49.8276 6.15323C49.8253 6.34983 49.6822 6.40288 49.4184 6.30436C49.1952 6.22121 47.1871 5.70409 44.9559 5.15509C37.282 3.26735 34.6394 2.57681 34.4584 2.41231C34.1987 2.17649 34.515 1.50422 34.8856 1.50422C35.0572 1.50422 35.4374 1.59561 35.7302 1.70728ZM20.7799 2.88843C20.042 3.262 19.475 3.60304 19.5199 3.64628C19.5941 3.71761 22.2229 2.47718 22.4501 2.26364C22.7283 2.00218 21.9686 2.28637 20.7799 2.88843ZM32.7355 3.87208C34.2929 4.31632 35.8801 4.75721 36.2626 4.85194C37.4447 5.14461 45.7088 7.47146 46.8111 7.82208C47.3844 8.00441 48.6882 8.36684 49.7082 8.62763C51.9842 9.20962 52.6059 9.4508 52.6059 9.75194C52.6059 9.88991 52.3936 9.85737 52.0843 9.67169C51.3852 9.2522 50.3304 9.03108 49.9905 9.23303C49.7082 9.40087 48.1726 9.34626 47.9763 9.16125C47.9162 9.10486 48.0175 8.96911 48.2014 8.85989C48.3852 8.75067 48.4547 8.5835 48.356 8.48832C48.257 8.39337 48.0854 8.45667 47.9746 8.62919C47.8063 8.89088 47.7118 8.89377 47.402 8.64658C47.198 8.48386 46.963 8.4161 46.8798 8.49612C46.7965 8.57614 46.9294 8.7879 47.1751 8.96666C47.4282 9.15055 47.4962 9.29455 47.332 9.29856C47.1519 9.30302 47.0423 9.62845 47.0423 10.1581C47.0423 10.9509 46.9818 11.0274 46.1729 11.2543L45.3036 11.4981L46.2066 11.3742C46.7546 11.2989 47.0555 11.3339 46.972 11.4636C46.8918 11.5884 47.1195 11.6368 47.521 11.5802C47.8984 11.5269 48.2642 11.3945 48.3337 11.2862C48.4035 11.1776 48.7413 11.0746 49.0844 11.0572C49.555 11.0334 49.4803 10.9864 48.7809 10.866L47.8536 10.7064L48.8558 10.6747C49.6945 10.6482 49.8454 10.7068 49.7812 11.0332C49.7332 11.2768 49.4476 11.4513 49.0215 11.4981C48.3411 11.5728 47.1473 12.2034 47.686 12.2034C47.842 12.2034 47.9695 12.2986 47.9695 12.4147C47.9695 12.5437 47.7213 12.5502 47.332 12.4316C45.8194 11.9705 42.0843 10.9656 38.5808 10.0776C37.3058 9.75439 35.4281 9.25443 34.4081 8.96689C33.3881 8.67935 31.9798 8.29195 31.2785 8.10605C25.2438 6.50719 25.435 6.58699 25.5264 5.70275C25.5913 5.07529 25.7957 4.90009 27.4535 4.0504C28.4735 3.52748 29.442 3.09171 29.6059 3.08212C29.7696 3.07254 31.1779 3.42784 32.7355 3.87208ZM42.3625 3.43965C42.5297 3.50407 42.7297 3.49605 42.8067 3.42205C42.8836 3.34804 42.7469 3.29544 42.5025 3.30502C42.2325 3.31572 42.1775 3.36855 42.3625 3.43965ZM16.6159 5.29574C15.7552 5.90626 15.0511 6.45481 15.0511 6.51477C15.0511 6.57495 15.7814 6.11177 16.6739 5.48565C18.0819 4.49776 18.4772 4.16853 18.2387 4.18235C18.2067 4.18414 17.4767 4.68522 16.6159 5.29574ZM50.8137 4.77103C50.6568 4.83211 50.3438 4.8359 50.1183 4.77928C49.8927 4.72266 50.0211 4.67273 50.4036 4.66827C50.7861 4.66382 50.9707 4.70996 50.8137 4.77103ZM53.5332 6.408C53.5332 6.5306 53.4289 6.6309 53.3014 6.6309C53.1739 6.6309 53.0696 6.5306 53.0696 6.408C53.0696 6.28541 53.1739 6.1851 53.3014 6.1851C53.4289 6.1851 53.5332 6.28541 53.5332 6.408ZM58.3386 6.31973C58.2616 6.39374 58.0616 6.40176 57.8944 6.33734C57.7094 6.26624 57.7644 6.21341 58.0345 6.20271C58.2788 6.19313 58.4156 6.24573 58.3386 6.31973ZM11.7581 9.31951C10.5098 10.553 9.37109 11.7817 9.22783 12.05C9.08433 12.3182 9.36136 12.0864 9.84354 11.5347C10.3255 10.983 11.546 9.75439 12.5558 8.80417C13.5654 7.85395 14.3098 7.0767 14.2099 7.0767C14.1097 7.0767 13.0067 8.08599 11.7581 9.31951ZM59.7295 7.21133C59.6526 7.28533 59.4525 7.29336 59.2854 7.22894C59.1004 7.15784 59.1553 7.10501 59.4254 7.09431C59.6697 7.08472 59.8065 7.13733 59.7295 7.21133ZM62.0477 7.21133C61.9708 7.28533 61.7707 7.29336 61.6035 7.22894C61.4186 7.15784 61.4735 7.10501 61.7436 7.09431C61.9879 7.08472 62.1247 7.13733 62.0477 7.21133ZM25.894 9.17931C28.2818 9.84533 31.1742 10.6569 32.3217 10.9826C33.4692 11.3082 35.347 11.8169 36.4945 12.1131C37.642 12.4091 38.9981 12.7947 39.5081 12.9699C40.0181 13.1449 41.3056 13.5091 42.3692 13.7788C43.6424 14.1018 44.1967 14.333 43.992 14.4553C43.7905 14.5757 43.9261 14.6241 44.3763 14.5926C45.0382 14.5463 45.0753 14.5897 45.143 15.4911C45.2056 16.321 45.1552 16.4385 44.7373 16.4385C44.3272 16.4385 44.2604 16.5778 44.2604 17.4346C44.2604 18.1962 44.1842 18.4024 43.9361 18.3108C43.7578 18.2451 43.5429 18.2983 43.4588 18.4294C43.3693 18.5687 43.5035 18.6675 43.7831 18.6675C44.0455 18.6675 44.2604 18.7678 44.2604 18.8904C44.2604 19.0129 44.0604 19.1133 43.8158 19.1133C43.0932 19.1133 42.6379 19.3587 42.6342 19.7501C42.6321 19.96 42.5579 20.0213 42.4603 19.8934C42.3667 19.7708 42.1335 19.6357 41.9422 19.5934C39.8387 19.1264 38.4921 18.7158 38.6298 18.5832C38.7225 18.494 38.6346 18.4816 38.4343 18.5553C38.234 18.6293 37.4549 18.4938 36.7026 18.2544C35.9506 18.0148 34.2922 17.553 33.0172 17.228C31.7422 16.9032 30.0731 16.4478 29.3081 16.2165C28.543 15.9849 26.7175 15.4911 25.2512 15.1191C23.7849 14.7471 21.8029 14.2026 20.8466 13.909C19.8904 13.6157 18.7429 13.3007 18.2966 13.2095C16.682 12.8792 16.5005 12.2562 17.6758 11.0795C19.1664 9.58744 21.0534 7.9683 21.3019 7.9683C21.4399 7.9683 23.5065 8.51328 25.894 9.17931ZM54.1128 9.97439C54.1916 10.097 54.0933 10.1973 53.8946 10.1973C53.6959 10.1973 53.5332 10.097 53.5332 9.97439C53.5332 9.85179 53.6313 9.75149 53.7514 9.75149C53.8714 9.75149 54.0339 9.85179 54.1128 9.97439ZM47.7957 11.2364C47.6364 11.2984 47.3756 11.2984 47.2161 11.2364C47.0569 11.1747 47.1871 11.1241 47.5059 11.1241C47.8246 11.1241 47.9552 11.1747 47.7957 11.2364ZM50.7514 11.9805C50.7514 12.2504 50.5914 12.4325 50.3457 12.4419C49.9908 12.4557 49.9961 12.4787 50.3867 12.6258C50.8012 12.782 50.804 12.805 50.4257 12.9445C49.5566 13.2653 49.4138 13.144 49.6836 12.3148C49.966 11.4475 50.7514 11.2017 50.7514 11.9805ZM49.5923 12.1078C49.5923 12.3266 48.9423 12.8721 48.6815 12.8721C48.5449 12.8721 48.4332 12.6715 48.4332 12.4263C48.4332 12.0993 48.5878 11.9805 49.0127 11.9805C49.3315 11.9805 49.5923 12.0378 49.5923 12.1078ZM51.6787 12.9574C51.6787 13.0045 51.4698 13.0954 51.2148 13.1596C50.9595 13.2238 50.8091 13.1853 50.8807 13.0742C51.0054 12.8801 51.6787 12.7816 51.6787 12.9574ZM7.51955 14.3483C7.30048 14.67 7.2358 14.865 7.37582 14.7817C7.64334 14.6227 8.18325 13.7637 8.01541 13.7637C7.96186 13.7637 7.73885 14.0267 7.51955 14.3483ZM41.4352 14.1388C41.6024 14.2032 41.8024 14.1952 41.8794 14.1212C41.9564 14.0472 41.8196 13.9946 41.5753 14.0042C41.3052 14.0149 41.2502 14.0677 41.4352 14.1388ZM105.394 14.8853C105.602 15.0663 108.399 15.4002 108.214 15.2219C108.147 15.1579 107.444 15.0204 106.652 14.9161C105.859 14.812 105.293 14.7981 105.394 14.8853ZM46.6945 15.1011C46.7733 15.2237 46.7335 15.324 46.606 15.324C46.4785 15.324 46.3097 15.2237 46.2309 15.1011C46.1521 14.9785 46.1919 14.8782 46.3194 14.8782C46.4469 14.8782 46.6157 14.9785 46.6945 15.1011ZM6.58972 15.7698C6.39198 16.1376 6.28233 16.4385 6.34608 16.4385C6.40983 16.4385 6.6238 16.1376 6.82154 15.7698C7.01928 15.402 7.12893 15.1011 7.06518 15.1011C7.00143 15.1011 6.78746 15.402 6.58972 15.7698ZM20.8341 17.1007C23.4548 17.8207 26.5378 18.6766 27.6853 19.0025C31.1568 19.9886 33.2886 20.5752 37.074 21.5861C37.6478 21.7394 38.2535 22.0482 38.4202 22.2722C38.5866 22.4962 38.8474 22.6781 38.9997 22.6763C39.1666 22.6741 39.1384 22.5871 38.9286 22.4567C38.6279 22.27 38.6332 22.2403 38.9675 22.2372C39.5712 22.2318 40.0983 22.4826 39.9544 22.7066C39.8825 22.8183 39.7527 22.8687 39.666 22.8181C39.5791 22.7677 39.3737 22.8664 39.2093 23.0374C38.795 23.4683 39.2888 23.4556 40.1721 23.0127C41.0092 22.5929 41.3471 22.5932 41.7102 23.0138C41.9598 23.3029 41.8931 23.3305 41.2171 23.2179C40.6311 23.1205 40.5223 23.1466 40.7831 23.3225C41.0634 23.5117 41.0187 23.5507 40.5513 23.5235C38.9154 23.4279 38.6968 23.5255 38.6968 24.3514C38.6968 25.0943 38.7355 25.1315 39.5081 25.1315C39.9544 25.1315 40.3195 25.2318 40.3195 25.3544C40.3195 25.477 40.179 25.5773 40.0072 25.5773C39.7963 25.5773 39.7124 25.8236 39.7481 26.3376C39.7963 27.0302 39.7353 27.1098 39.0637 27.2308C38.6583 27.3039 37.8622 27.2702 37.2947 27.1557C35.5102 26.7959 31.4821 25.7675 29.1921 25.087C27.9809 24.727 26.5726 24.348 26.0626 24.2451C25.5526 24.1419 22.3187 23.2848 18.8762 22.3406C12.9263 20.7083 11.5738 20.178 11.5738 19.4775C11.5738 19.2136 13.3392 16.2766 13.8202 15.7401C14.2203 15.2939 14.3478 15.3186 20.8341 17.1007ZM48.2014 15.4223C48.2014 15.6574 47.7565 15.7564 47.6241 15.5504C47.5441 15.4258 47.6413 15.324 47.8399 15.324C48.0386 15.324 48.2014 15.3681 48.2014 15.4223ZM109.806 15.8429L111.253 16.327L108.183 16.3395C103.356 16.3591 99.7224 17.45 96.4706 19.856C95.0725 20.8904 92.985 22.9487 91.8525 24.4098C91.4972 24.8681 91.1506 25.2931 91.0822 25.3544C90.6619 25.7309 88.7853 29.0534 87.843 31.0896C85.1534 36.9008 83.3714 43.4454 82.1829 51.8794C81.6701 55.5162 81.3516 58.5889 81.3516 59.8951C81.3516 60.5128 81.2735 61.0183 81.1777 61.0185C81.082 61.0185 80.9888 61.2693 80.9705 61.5758C80.9519 61.882 81.0129 62.1328 81.1058 62.1328C81.2841 62.1328 81.2695 63.2533 80.8905 78.5159C80.7595 83.7874 80.5437 92.865 80.4111 98.6882C80.2782 104.511 80.068 109.647 79.9437 110.1C79.6653 111.114 78.7536 111.839 77.7565 111.839C77.3436 111.839 75.7668 111.482 74.2526 111.046C70.9489 110.094 58.9411 106.335 58.2855 106.048C58.0305 105.936 56.7787 105.536 55.5037 105.158C54.2287 104.781 52.9606 104.363 52.6859 104.229C52.4112 104.095 52.0461 104.063 51.8745 104.159C51.703 104.254 51.6416 104.249 51.7378 104.147C51.834 104.045 51.1559 103.731 50.2309 103.449C49.306 103.168 48.3405 102.839 48.0854 102.718C47.8304 102.598 46.5265 102.184 45.1877 101.798C43.8489 101.413 42.6546 101.007 42.5334 100.896C42.4124 100.785 42.1516 100.701 41.9538 100.71C41.6993 100.721 41.7296 100.781 42.0581 100.917C42.7492 101.202 40.3529 101.005 39.551 100.711C39.1921 100.579 38.7227 100.48 38.5078 100.49C37.9466 100.516 39.51 101.137 40.2676 101.189C40.6148 101.213 40.9512 101.294 41.0149 101.368C41.1652 101.544 45.1617 102.904 45.7673 102.985C46.0223 103.02 46.354 103.122 46.5044 103.212C47.1749 103.615 55.2167 106.034 55.4409 105.901C55.6006 105.806 55.6231 105.858 55.5032 106.045C55.362 106.264 55.4455 106.304 55.8382 106.206C56.1256 106.133 56.2958 106.137 56.2163 106.213C56.016 106.406 60.5328 107.858 60.9055 107.721C61.0887 107.653 61.1427 107.71 61.0432 107.865C60.9303 108.04 61.043 108.079 61.4019 107.989C61.6893 107.916 61.8648 107.915 61.7916 107.985C61.5829 108.186 66.1143 109.635 66.5024 109.492C66.6929 109.421 66.7694 109.44 66.6723 109.533C66.4532 109.744 77.18 113.212 77.5966 113.065C77.7625 113.007 77.8379 113.053 77.7639 113.168C77.69 113.283 78.0236 113.448 78.5053 113.535C78.987 113.622 79.3885 113.652 79.3976 113.602C79.4068 113.552 79.5925 113.682 79.8104 113.892C80.1844 114.252 80.8469 113.962 91.5009 108.794C108.725 100.437 115.062 97.3286 115.281 97.1275C115.453 96.9701 116.701 89.748 119.595 72.1632C119.969 69.8952 120.914 64.228 121.695 59.5694C123.872 46.6007 123.969 45.961 124.251 42.7406C124.811 36.3659 123.763 29.0369 121.674 24.7096C120.77 22.8377 119.188 20.7273 117.811 19.5591C116.289 18.2667 109.74 15.264 108.612 15.3414C108.473 15.3509 109.01 15.5767 109.806 15.8429ZM47.7377 15.9971C48.6274 16.1803 48.5762 16.2042 47.0423 16.3199C46.2694 16.3781 46.1493 16.3518 46.5786 16.2178C47.1352 16.0444 47.1373 16.0361 46.6366 16.015C46.3496 16.0027 46.115 15.8817 46.115 15.7459C46.115 15.5966 46.2749 15.5645 46.5207 15.6646C46.7439 15.7555 47.2915 15.9053 47.7377 15.9971ZM49.9038 16.1598C49.9625 16.2517 49.6818 16.344 49.28 16.3647C48.6875 16.395 48.6369 16.3665 49.0127 16.2131C49.6168 15.9668 49.774 15.9572 49.9038 16.1598ZM5.43062 17.7759C5.10747 18.3888 4.89535 18.8904 4.9591 18.8904C5.02285 18.8904 5.33929 18.3888 5.66244 17.7759C5.9856 17.1629 6.19771 16.6614 6.13396 16.6614C6.07021 16.6614 5.75378 17.1629 5.43062 17.7759ZM54.6295 17.4647C54.5525 17.5387 54.3525 17.5467 54.1853 17.4823C54.0003 17.4112 54.0553 17.3584 54.3253 17.3477C54.5697 17.3381 54.7065 17.3907 54.6295 17.4647ZM40.3195 18.4446C40.1106 18.5743 40.0819 18.6619 40.2479 18.6641C40.3997 18.6659 40.5884 18.5672 40.6672 18.4446C40.845 18.1677 40.7648 18.1677 40.3195 18.4446ZM41.324 18.5462C41.324 18.7247 41.4127 18.8181 41.521 18.7537C41.6293 18.6893 41.658 18.5433 41.5845 18.4292C41.3972 18.1376 41.324 18.1704 41.324 18.5462ZM44.2604 19.4215C44.2604 19.4686 44.0518 19.5595 43.7968 19.6237C43.5418 19.6877 43.3331 19.6493 43.3331 19.5381C43.3331 19.4271 43.5418 19.3362 43.7968 19.3362C44.0518 19.3362 44.2604 19.3747 44.2604 19.4215ZM122.963 19.7819C123.194 20.0271 123.435 20.2277 123.499 20.2277C123.562 20.2277 123.426 20.0271 123.195 19.7819C122.964 19.5368 122.723 19.3362 122.66 19.3362C122.596 19.3362 122.733 19.5368 122.963 19.7819ZM4.29216 19.9728C4.036 20.3713 3.67204 21.4434 3.86514 21.2308C4.12107 20.9488 4.6422 19.7819 4.51215 19.7819C4.4586 19.7819 4.35962 19.8678 4.29216 19.9728ZM46.8728 20.1511C46.7159 20.2121 46.4029 20.2159 46.1773 20.1593C45.9518 20.1027 46.0802 20.0528 46.4627 20.0483C46.8452 20.0439 47.0297 20.09 46.8728 20.1511ZM124.56 22.2606C127.281 27.235 128.361 32.9943 128.109 41.1774C128.009 44.4326 127.802 46.5644 127.285 49.6504C126.906 51.9184 125.696 59.1905 124.597 65.8106C123.498 72.4307 122.346 79.3517 122.036 81.1907C121.727 83.0296 120.941 87.7374 120.291 91.6527C119.044 99.1572 118.937 99.5034 117.564 100.434C117.219 100.668 112.213 103.135 106.44 105.916C99.7782 109.125 96.0019 111.061 96.102 111.217C96.1957 111.363 96.1535 111.399 95.9982 111.307C95.6414 111.095 92.2144 112.723 92.4024 113.015C92.4854 113.144 92.4386 113.179 92.2956 113.094C92.1553 113.011 89.625 114.108 86.6725 115.532C82.4495 117.569 81.0991 118.123 80.3427 118.128C79.6911 118.132 74.3381 116.509 63.7333 113.092C45.9928 107.375 11.4498 96.252 10.8965 96.0779C10.6952 96.0146 10.8436 96.2154 11.2261 96.5241C11.6084 96.8328 12.0041 97.0363 12.1054 96.9762C12.2067 96.916 12.4153 96.9626 12.5693 97.0798C12.723 97.1968 13.2429 97.3611 13.7247 97.4445C14.2064 97.5281 14.5555 97.6665 14.5006 97.7523C14.4459 97.8379 14.76 97.9335 15.1986 97.9643C15.6374 97.9952 16.2272 98.1584 16.5091 98.3269C16.7909 98.4954 17.7229 98.8104 18.5799 99.0266C19.4369 99.2428 20.096 99.4853 20.0443 99.5656C19.9928 99.6458 20.2305 99.7029 20.5724 99.6924C20.9146 99.6819 21.4505 99.8279 21.7637 100.017C22.0769 100.206 22.3377 100.328 22.3433 100.289C22.3488 100.249 22.6488 100.325 23.0097 100.457C23.3705 100.589 24.1255 100.808 24.6874 100.944C25.2493 101.08 25.6685 101.255 25.6186 101.333C25.5688 101.411 25.9093 101.501 26.3748 101.534C26.8406 101.567 27.2567 101.693 27.2993 101.814C27.3422 101.935 27.4618 101.984 27.565 101.923C27.6684 101.861 28.0451 101.957 28.4019 102.135C28.7589 102.313 29.5468 102.581 30.153 102.73C30.7595 102.88 31.2006 103.087 31.1339 103.191C31.0669 103.295 31.0982 103.359 31.2034 103.332C31.508 103.256 32.8496 103.592 35.2195 104.339C36.4307 104.721 37.5261 105.035 37.6536 105.037C37.7811 105.039 38.0242 105.167 38.1939 105.321C38.3634 105.476 38.5873 105.552 38.6914 105.49C38.7953 105.428 39.178 105.527 39.542 105.709C39.9059 105.892 40.4122 106.043 40.6672 106.046C41.0576 106.05 41.0759 106.088 40.7831 106.285C40.5126 106.467 40.5536 106.487 40.9681 106.374C41.2611 106.295 41.6263 106.318 41.7795 106.425C42.2556 106.758 43.7831 107.193 44.0075 107.059C44.1248 106.99 44.2569 107.037 44.301 107.164C44.3453 107.292 45.0062 107.553 45.7698 107.744C46.5334 107.936 47.2103 108.16 47.2741 108.242C47.3378 108.324 48.1724 108.622 49.1286 108.904C50.0849 109.186 51.0238 109.476 51.215 109.55C51.709 109.739 51.7048 109.738 52.6618 109.931C53.1389 110.026 53.4692 110.198 53.3957 110.312C53.3174 110.434 53.5237 110.457 53.896 110.367C54.3168 110.265 54.4788 110.293 54.3782 110.45C54.2855 110.594 54.6091 110.746 55.213 110.842C55.7554 110.929 56.3897 111.096 56.6227 111.214C56.8556 111.331 57.5337 111.56 58.1295 111.721C58.7253 111.883 60.2038 112.339 61.4151 112.735C62.6263 113.131 64.7649 113.83 66.1674 114.287C67.5699 114.745 69.3955 115.342 70.2242 115.614C71.053 115.886 71.8354 116.136 71.9629 116.169C72.0904 116.203 72.3512 116.294 72.5424 116.372C72.7337 116.451 74.7554 117.106 77.0353 117.829C80.6385 118.971 81.2899 119.116 82.0194 118.935C83.0979 118.668 84.8432 117.838 84.7222 117.649C84.671 117.57 84.8045 117.49 85.0187 117.473C85.5686 117.429 87.9346 116.149 87.6937 116.026C87.5843 115.97 87.6337 115.958 87.8033 115.999C87.9733 116.04 88.8396 115.723 89.7286 115.294C90.6179 114.865 91.4849 114.514 91.6555 114.514C91.8261 114.514 92.0257 114.364 92.0992 114.18C92.1725 113.996 92.3646 113.845 92.5262 113.845C92.9929 113.845 95.257 112.683 95.1411 112.502C95.0836 112.413 95.356 112.278 95.7467 112.203C96.7247 112.015 98.0625 111.382 97.9271 111.171C97.866 111.076 97.945 111.003 98.1031 111.008C98.8973 111.036 99.2172 110.929 99.0633 110.69C98.9495 110.513 99.0547 110.471 99.3973 110.557C99.6723 110.627 99.8971 110.611 99.8971 110.524C99.8971 110.436 100.309 110.19 100.813 109.976C101.488 109.69 101.695 109.489 101.602 109.209C101.517 108.953 101.542 108.918 101.68 109.1C101.888 109.376 102.987 109.24 102.807 108.961C102.753 108.877 103.172 108.676 103.737 108.516C104.303 108.355 104.765 108.134 104.765 108.025C104.765 107.916 104.928 107.827 105.127 107.827C105.325 107.827 105.428 107.734 105.355 107.62C105.281 107.505 105.344 107.34 105.493 107.251C105.662 107.15 105.702 107.186 105.599 107.347C105.508 107.488 105.516 107.604 105.618 107.604C105.821 107.604 108.289 106.45 108.474 106.269C108.538 106.207 109.099 105.925 109.72 105.644C110.341 105.362 110.786 105.072 110.71 104.999C110.634 104.926 110.411 104.995 110.213 105.152C110.016 105.31 109.795 105.382 109.722 105.312C109.65 105.242 109.925 105.019 110.333 104.816C110.792 104.588 111.008 104.551 110.9 104.721C110.597 105.191 111.763 104.785 113.249 103.903C114.002 103.456 114.435 103.153 114.212 103.23C113.174 103.587 113.037 103.598 113.575 103.283C113.893 103.096 114.337 102.995 114.56 103.06C114.783 103.124 115.269 102.969 115.639 102.716C116.009 102.462 116.4 102.255 116.508 102.255C117.026 102.257 118.668 101.224 118.564 100.961C118.5 100.8 118.554 100.734 118.687 100.813C119.033 101.019 119.578 100.512 119.961 99.6295C120.294 98.865 120.223 98.3452 119.82 98.5848C119.703 98.6544 119.673 98.5474 119.753 98.3468C119.858 98.0817 119.945 98.0559 120.071 98.2516C120.167 98.3996 120.317 97.7813 120.407 96.8772C120.557 95.3528 120.689 94.6259 121.467 90.9982C121.812 89.3898 121.962 88.2285 122.004 86.84C122.022 86.2696 122.096 85.8386 122.17 85.8822C122.39 86.0131 122.947 82.6297 122.939 81.2112C122.934 80.4054 122.999 80.0594 123.105 80.3196C123.246 80.6662 123.287 80.6214 123.325 80.0762C123.4 78.9846 123.488 78.3745 123.968 75.6182C124.096 74.8826 124.268 73.8294 124.351 73.2777C124.435 72.7261 124.646 71.5224 124.82 70.603C125.546 66.7838 125.685 65.7197 125.538 65.1125C125.442 64.7144 125.461 64.5844 125.588 64.7681C125.832 65.1181 126.179 63.1164 125.94 62.744C125.846 62.598 125.902 62.577 126.09 62.6882C126.326 62.8287 126.365 62.6185 126.274 61.7008C126.206 61.0239 126.239 60.6594 126.353 60.8322C126.481 61.0256 126.559 60.8177 126.576 60.2381C126.631 58.4044 126.795 57.363 127.053 57.2094C127.22 57.1104 127.272 56.7097 127.192 56.137C127.114 55.5791 127.157 55.2229 127.303 55.2229C127.444 55.2229 127.485 54.9525 127.404 54.5629C127.329 54.1998 127.374 53.8392 127.505 53.7616C127.641 53.6805 127.677 53.3321 127.588 52.9449C127.482 52.4772 127.513 52.3163 127.691 52.422C127.863 52.5243 127.949 52.2584 127.953 51.6139C127.956 51.0857 128.063 50.2523 128.19 49.7619C128.689 47.8452 129.051 43.3707 128.994 39.8429C128.901 34.1262 128.902 34.1326 128.685 34.4472C128.569 34.6168 128.53 34.2394 128.591 33.5319C128.648 32.8686 128.579 32.1201 128.437 31.8646C128.295 31.6096 128.125 30.9902 128.059 30.4882C127.994 29.9863 127.774 29.1524 127.571 28.6353C127.368 28.1179 127.202 27.4189 127.2 27.0819C127.199 26.7449 127.106 26.4689 126.993 26.4689C126.88 26.4689 126.788 26.3287 126.788 26.1573C126.788 25.9857 126.481 25.2835 126.105 24.597C125.73 23.9103 125.495 23.3468 125.583 23.345C125.672 23.343 125.632 23.2679 125.494 23.1778C125.357 23.0878 124.997 22.5334 124.695 21.9459C124.393 21.3583 124.01 20.7685 123.843 20.6352C123.675 20.5019 123.998 21.2332 124.56 22.2606ZM96.2961 21.5317C96.1653 21.6639 95.7244 21.3289 95.7244 21.0975C95.7244 20.9771 95.8704 21.0081 96.0487 21.1664C96.2272 21.3244 96.3385 21.4889 96.2961 21.5317ZM95.5934 21.5417C95.6641 21.6516 95.5712 21.797 95.3871 21.8647C95.1639 21.9472 95.0955 21.8808 95.1815 21.6652C95.331 21.2908 95.4158 21.2653 95.5934 21.5417ZM105.055 21.4898C104.896 21.5518 104.635 21.5518 104.476 21.4898C104.316 21.4281 104.447 21.3775 104.765 21.3775C105.084 21.3775 105.215 21.4281 105.055 21.4898ZM99.6653 22.1072C99.6653 22.1601 99.3264 22.4193 98.9119 22.683L98.1585 23.1622L98.854 22.5878C99.5673 21.9985 99.6653 21.9403 99.6653 22.1072ZM100.331 22.4487C100.029 22.6371 99.3118 23.1821 98.7381 23.6599C97.7429 24.4887 97.7482 24.4784 98.8505 23.437C99.4861 22.8366 99.989 22.2916 99.9681 22.2258C99.9472 22.1603 100.144 22.1066 100.405 22.1066C100.852 22.1066 100.847 22.1271 100.331 22.4487ZM94.3738 22.6808C94.0771 22.9186 93.9076 23.2269 93.9971 23.3659C94.1137 23.5476 94.2229 23.5336 94.3842 23.3165C94.5521 23.0909 94.5736 23.1185 94.4698 23.4261C94.3481 23.7859 94.461 23.7647 95.3586 23.259C96.6155 22.5506 97.3471 22.5015 97.3471 23.1254C97.3471 23.3706 97.4714 23.5712 97.6232 23.5712C97.7751 23.5712 97.697 23.7197 97.4494 23.9014C97.1174 24.145 97.0733 24.2787 97.2818 24.4116C97.4846 24.5411 97.2892 24.9338 96.5861 25.8089C96.0482 26.4785 95.4731 27.2769 95.3081 27.5834C94.6842 28.7421 94.2396 29.1471 93.8698 28.8938C93.5808 28.6959 93.593 28.6779 93.9429 28.7869C94.2867 28.8941 94.3353 28.8314 94.2078 28.4456C94.1084 28.1442 94.139 28.025 94.2927 28.1164C94.425 28.1951 94.592 28.1679 94.6638 28.0562C94.7357 27.9445 94.6462 27.7983 94.4651 27.7314C93.9649 27.5469 92.9641 28.9197 93.1918 29.4781C93.2917 29.7233 93.3809 29.8151 93.39 29.6825C93.3988 29.5496 93.5527 29.4408 93.7319 29.4408C93.9109 29.4408 94.0043 29.5741 93.9394 29.7368C93.8745 29.8996 93.728 29.9774 93.6137 29.9094C93.4996 29.8416 93.4025 29.9174 93.3981 30.0779C93.3934 30.2384 93.2555 30.1367 93.0912 29.8523C92.7977 29.3434 92.7833 29.3526 92.2302 30.4096C91.9207 31.0005 91.6154 31.5343 91.5516 31.5956C91.0354 32.092 90.9009 32.7143 91.1448 33.4782C91.4026 34.2862 91.4088 34.2896 91.7021 33.7814C92.0658 33.1512 92.1008 32.4872 91.7702 32.4872C91.633 32.4872 91.684 32.2694 91.8862 31.9917C92.0846 31.7193 92.2508 31.243 92.2552 30.9329L92.2636 30.3697L92.5918 30.9269C92.9101 31.4672 92.9168 31.4572 92.8095 30.5926C92.7172 29.8501 92.7381 29.7872 92.9347 30.2167C93.0643 30.5005 93.2611 30.6788 93.3721 30.6128C93.4829 30.5469 93.3686 30.8915 93.118 31.3787C92.676 32.2376 92.2884 32.6176 92.5675 31.9184C92.6525 31.7048 92.6101 31.629 92.456 31.7207C92.319 31.8022 92.2612 32.0688 92.3275 32.3136C92.3941 32.5581 92.2568 33.1737 92.0222 33.6815C91.3615 35.1125 90.941 36.2426 90.3932 38.0597C90.1162 38.9791 89.8056 39.9372 89.7033 40.1886C89.6011 40.4398 89.3939 41.2173 89.2429 41.9161C89.0923 42.6146 88.898 43.1866 88.8113 43.187C88.7248 43.1875 88.6458 43.5134 88.6358 43.9114C88.6061 45.0984 88.298 46.3286 88.0653 46.1901C87.9457 46.119 87.9058 46.206 87.9765 46.3834C88.0472 46.5606 87.989 47.4435 87.8472 48.3454C87.1267 52.9248 86.8886 55.4458 87.1767 55.4458C87.288 55.4458 87.3789 55.3152 87.3789 55.1556C87.3789 54.984 88.3407 54.5696 89.7337 54.1407C91.6133 53.5623 92.1314 53.4745 92.3013 53.7065C92.4671 53.9325 92.4933 53.9234 92.4203 53.6653C92.3586 53.4477 92.606 53.2413 93.1408 53.0646C93.9591 52.794 94.6311 52.9021 94.0986 53.2186C93.7066 53.4515 95.3016 53.9419 95.8243 53.7491C96.1431 53.6314 96.1625 53.5614 95.9177 53.4121C95.6644 53.2576 95.6671 53.2231 95.9337 53.2202C96.1493 53.2179 96.0865 53.073 95.7471 52.79L95.2353 52.3631L95.73 52.212C96.0019 52.1291 96.7282 52.0363 97.3439 52.0063C98.1998 51.9641 98.4351 52.0214 98.344 52.2497C98.2749 52.4226 98.3813 52.5481 98.5973 52.5481C98.8023 52.5481 98.9699 52.6986 98.9699 52.8825C98.9699 53.0746 98.7608 53.2168 98.478 53.2168C98.0667 53.2168 98.0333 53.2719 98.2744 53.5512C98.5069 53.8207 98.5011 53.8889 98.2447 53.9031C98.0081 53.9163 98.0011 53.9495 98.2178 54.0335C98.378 54.0957 98.4529 54.2339 98.3843 54.3407C98.3157 54.4474 98.1063 54.4782 97.9193 54.4091C97.7322 54.3402 97.579 54.3946 97.579 54.5304C97.579 54.6661 97.266 54.7771 96.8835 54.7771C96.501 54.7771 96.188 54.8774 96.188 55C96.188 55.3266 96.5348 55.2793 98.235 54.7214C99.2406 54.3913 99.5923 54.196 99.2636 54.1503C98.7362 54.0768 98.7712 53.6093 99.3461 53.0496C99.7805 52.6266 99.8971 52.7082 99.8971 53.4341C99.8971 54.0572 99.9428 54.0904 100.651 53.9829C101.458 53.8603 98.8635 54.9351 97.8108 55.1594C97.492 55.2271 97.1269 55.3593 96.9994 55.4527C96.3811 55.9063 93.0881 56.8115 92.5181 56.6847C92.0556 56.5815 91.9872 56.604 92.2471 56.773C92.5139 56.9466 92.4031 57.0001 91.7719 57.0028C91.3191 57.0045 90.8219 57.1283 90.6666 57.2776C90.4785 57.4584 89.5021 57.5515 87.747 57.5562C84.7248 57.5645 84.4176 57.424 83.6144 55.6687C82.7124 53.6974 82.7875 47.9058 83.7293 46.7866C83.9663 46.5053 83.9588 46.4784 83.6883 46.6351C83.4456 46.7757 83.3958 46.734 83.4989 46.4759C83.5757 46.2833 83.8177 45.1887 84.0365 44.0434C84.2885 42.7252 84.4906 42.1144 84.5871 42.379C84.6766 42.6242 84.7452 42.3474 84.7528 41.7101C84.76 41.1123 84.939 40.1215 85.1506 39.5085C85.3621 38.8955 85.7089 37.8731 85.921 37.2365C86.1333 36.5999 86.4076 36.139 86.5309 36.2123C86.6542 36.2854 86.692 36.2473 86.6148 36.1274C86.4683 35.8991 87.0676 33.8879 87.7278 32.3934C87.9865 31.8074 88.1731 31.6114 88.2936 31.7991C88.4216 31.9982 88.5102 31.9447 88.6001 31.6141C88.6697 31.3584 88.6319 31.2053 88.5164 31.2742C88.1439 31.4955 88.2865 31.1413 89.3252 29.263C90.5166 27.1091 91.9321 25.1518 91.6682 26.0231C91.5755 26.3296 91.2505 26.8367 90.9461 27.1499C90.6415 27.4631 90.3925 27.8268 90.3925 27.9583C90.3925 28.0898 90.2361 28.3223 90.0448 28.475C89.6475 28.7922 89.5865 29.1437 89.9289 29.1437C90.0564 29.1437 90.1607 29.0394 90.1607 28.9119C90.1607 28.6433 90.9638 27.5186 91.7399 26.6998C92.5462 25.8495 92.7564 25.4079 92.4437 25.222C92.2772 25.1231 92.2383 25.1603 92.341 25.3199C92.4319 25.4614 92.402 25.5773 92.2745 25.5773C91.8136 25.5773 91.809 25.1893 92.2643 24.7194C92.5197 24.4557 92.8489 24.2399 92.9959 24.2399C93.1429 24.2399 93.0708 24.375 92.8359 24.5402C92.5587 24.735 92.4972 24.8932 92.6607 24.9902C92.9168 25.1427 94.1017 24.1617 94.1017 23.7973C94.1017 23.3927 93.6591 23.351 93.4275 23.7337C93.2435 24.0375 93.1869 24.052 93.1813 23.7966C93.1737 23.4321 94.311 22.2626 94.6812 22.2539C94.8087 22.251 94.6703 22.4431 94.3738 22.6808ZM95.3528 22.6424C95.4184 22.7447 95.325 22.8283 95.1448 22.8283C94.9647 22.8283 94.8713 22.7447 94.9369 22.6424C95.0025 22.5403 95.0962 22.4567 95.1448 22.4567C95.1935 22.4567 95.2872 22.5403 95.3528 22.6424ZM2.79043 23.596C2.64763 23.9898 2.57136 24.3512 2.62097 24.3989C2.67058 24.4466 2.82798 24.1633 2.97078 23.7694C3.11358 23.3755 3.18985 23.0142 3.14024 22.9665C3.09063 22.9188 2.93323 23.2021 2.79043 23.596ZM12.1534 23.2456C12.5359 23.3323 14.6223 23.898 16.7898 24.5025C18.9573 25.1072 22.0196 25.9456 23.5953 26.3657C27.5189 27.4122 33.1066 28.9937 35.3354 29.6885C35.8454 29.8474 36.7193 30.1111 37.2773 30.2745L38.2922 30.5712L37.5091 30.8435C37.0786 30.9933 36.5438 31.1235 36.3206 31.1329C35.713 31.1583 35.8268 30.4865 36.4365 30.4495C36.7235 30.4321 36.5408 30.357 36.0308 30.2823C35.3813 30.1873 35.0808 30.231 35.028 30.4281C34.9865 30.5827 34.8516 30.6494 34.7282 30.5761C34.6047 30.5027 34.3531 30.5629 34.1691 30.7098C33.9737 30.8656 33.568 30.9171 33.194 30.8335C32.7297 30.7299 32.6486 30.751 32.8992 30.9109C33.0893 31.0319 33.7238 31.0923 34.3093 31.045C35.1191 30.9795 35.3741 31.0352 35.3741 31.2773C35.3741 31.4523 35.2086 31.5956 35.0066 31.5956C33.9268 31.5956 27.419 30.149 22.8171 28.8858C21.9246 28.6409 20.8292 28.3419 20.383 28.2214C17.5054 27.4446 9.25565 24.6059 9.25565 24.3926C9.25565 24.3451 9.37109 23.9881 9.51227 23.5989C9.74803 22.9485 9.83682 22.8994 10.6134 22.9897C11.0778 23.0439 11.7709 23.1589 12.1534 23.2456ZM101.634 23.3459C101.715 23.472 101.622 23.5095 101.416 23.4335C101.015 23.2853 100.941 23.1254 101.274 23.1254C101.394 23.1254 101.556 23.2246 101.634 23.3459ZM99.4335 24.0868C99.4335 24.1251 99.1206 24.4448 98.7381 24.7972C98.3556 25.1496 98.0426 25.3729 98.0426 25.2938C98.0426 25.2144 98.3284 24.8948 98.6778 24.5832C99.2949 24.0331 99.4335 23.9419 99.4335 24.0868ZM96.6517 24.6423C96.6517 24.7408 96.2784 25.2133 95.8225 25.6921C94.8451 26.7179 94.5901 27.1477 94.7324 27.529C94.8745 27.9109 95.2608 27.6485 95.2608 27.1704C95.2608 26.9575 95.678 26.3532 96.188 25.8274C97.113 24.8736 97.3223 24.4628 96.8835 24.4628C96.756 24.4628 96.6517 24.5435 96.6517 24.6423ZM2.21389 25.2517C2.13438 25.4507 2.07596 25.7309 2.08384 25.8742C2.09195 26.0173 2.19859 25.8943 2.32076 25.6007C2.44293 25.3069 2.50135 25.027 2.45058 24.9782C2.39981 24.9294 2.29317 25.0524 2.21389 25.2517ZM99.7597 25.1652C99.7027 25.2537 99.4569 25.3116 99.2133 25.294C98.6363 25.2521 98.7958 25.0043 99.3994 25.0043C99.6544 25.0043 99.8165 25.0767 99.7597 25.1652ZM33.1523 25.6573C33.4254 25.8838 34.5488 26.0189 34.4139 25.8091C34.3318 25.6816 33.9929 25.5773 33.6602 25.5773C33.3278 25.5773 33.0992 25.6134 33.1523 25.6573ZM36.0888 25.7249C36.2483 25.7869 36.5091 25.7869 36.6683 25.7249C36.8278 25.6631 36.6973 25.6125 36.3786 25.6125C36.0598 25.6125 35.9295 25.6631 36.0888 25.7249ZM97.2231 26.561C97.0071 26.8782 96.7337 27.1376 96.616 27.1376C96.4982 27.1376 96.6146 26.9181 96.8745 26.6497C97.1343 26.3815 97.3471 26.0639 97.3471 25.944C97.3471 25.8241 97.4076 25.7842 97.4816 25.8553C97.5555 25.9264 97.4392 26.244 97.2231 26.561ZM97.9601 26.569C97.9418 26.8693 97.8451 27.0364 97.7452 26.9406C97.6455 26.8447 97.6304 26.5991 97.712 26.3947C97.9195 25.8753 97.9992 25.9313 97.9601 26.569ZM38.0013 26.6733C38.0013 26.947 38.151 27.1376 38.3659 27.1376C38.582 27.1376 38.7002 26.986 38.6557 26.766C38.5431 26.2068 38.0013 26.1301 38.0013 26.6733ZM41.1839 27.4952C41.107 27.5692 40.9069 27.5772 40.7398 27.5128C40.5548 27.4417 40.6097 27.3888 40.8798 27.3781C41.1241 27.3685 41.2609 27.4212 41.1839 27.4952ZM42.343 27.7181C42.2661 27.7921 42.066 27.8001 41.8989 27.7357C41.7139 27.6646 41.7688 27.6117 42.0389 27.601C42.2832 27.5914 42.42 27.644 42.343 27.7181ZM96.0441 28.5307C95.9516 29.5946 95.5392 30.704 95.236 30.704C95.1258 30.704 95.2466 30.1893 95.5044 29.5605C96.1141 28.0736 95.9565 27.9385 95.2659 29.3559C94.9705 29.9624 94.5792 30.5139 94.3963 30.5812C94.1668 30.6659 94.2245 30.445 94.5822 29.8681C94.8674 29.4083 95.3016 28.7062 95.5473 28.3078C95.793 27.9095 96.0239 27.5834 96.0603 27.5834C96.0967 27.5834 96.0895 28.0096 96.0441 28.5307ZM1.39209 28.1592C1.40322 28.4188 1.45816 28.4717 1.53211 28.294C1.59911 28.1331 1.59076 27.9407 1.5138 27.8667C1.43683 27.7927 1.38212 27.9242 1.39209 28.1592ZM1.16027 29.0508C1.1714 29.3104 1.22634 29.3633 1.30029 29.1856C1.36729 29.0247 1.35894 28.8323 1.28198 28.7583C1.20501 28.6843 1.1503 28.8158 1.16027 29.0508ZM96.4129 29.8681C96.408 30.5201 96.3422 30.7111 96.2019 30.4811C96.0165 30.1766 96.1203 28.9208 96.3311 28.9208C96.3798 28.9208 96.4166 29.347 96.4129 29.8681ZM0.955343 30.1468C0.959979 30.5145 1.01191 30.638 1.07079 30.4211C1.12967 30.2043 1.12573 29.9034 1.06221 29.7525C0.998693 29.6015 0.950706 29.779 0.955343 30.1468ZM33.1331 29.8124C33.1331 29.935 33.3355 30.0353 33.583 30.0353C33.8306 30.0353 34.0974 29.935 34.1763 29.8124C34.2576 29.686 34.0627 29.5895 33.7263 29.5895C33.4001 29.5895 33.1331 29.6898 33.1331 29.8124ZM89.0016 30.3697C88.8352 30.5625 88.8127 30.704 88.9485 30.704C89.0779 30.704 89.2439 30.5536 89.3174 30.3697C89.3906 30.1858 89.4145 30.0353 89.3705 30.0353C89.3264 30.0353 89.1604 30.1858 89.0016 30.3697ZM94.3172 31.6513C94.3017 32.1261 94.2913 32.129 94.1197 31.7071C93.9456 31.2791 93.9315 31.282 93.7671 31.7795C93.6728 32.0646 93.5446 32.2487 93.4822 32.1887C93.316 32.0291 93.8474 31.1498 94.1098 31.1498C94.2329 31.1498 94.3261 31.3754 94.3172 31.6513ZM36.6683 31.7432C36.5091 31.8051 36.2483 31.8051 36.0888 31.7432C35.9295 31.6814 36.0598 31.6308 36.3786 31.6308C36.6973 31.6308 36.8278 31.6814 36.6683 31.7432ZM38.8127 31.8185C38.7338 31.9411 38.493 32.0343 38.2774 32.0258C37.9577 32.0129 37.9712 31.9748 38.349 31.8185C38.9694 31.5622 38.9775 31.5622 38.8127 31.8185ZM37.7066 31.9531C37.6297 32.0271 37.4296 32.0352 37.2625 31.9707C37.0775 31.8996 37.1324 31.8468 37.4025 31.8361C37.6468 31.8265 37.7836 31.8791 37.7066 31.9531ZM0.50028 32.7101C0.50028 33.1392 0.548035 33.3148 0.606222 33.1002C0.664641 32.8855 0.664641 32.5347 0.606222 32.32C0.548035 32.1054 0.50028 32.281 0.50028 32.7101ZM42.5201 32.2618C42.6013 32.388 42.5083 32.4255 42.302 32.3494C41.9005 32.2012 41.827 32.0414 42.1604 32.0414C42.2804 32.0414 42.4423 32.1406 42.5201 32.2618ZM87.8356 32.7224C87.6953 32.9745 87.6149 33.2796 87.6571 33.4009C87.699 33.5219 87.8532 33.3157 87.9997 32.9426C88.3041 32.1667 88.213 32.0443 87.8356 32.7224ZM94.2396 32.5218C94.3423 32.6811 94.3033 32.7186 94.1376 32.6198C93.8114 32.4261 93.8054 32.5177 94.0959 33.2529C94.2204 33.5674 94.2697 33.8246 94.206 33.8246C94.0015 33.8246 93.6299 32.68 93.766 32.4685C93.9389 32.1997 94.04 32.211 94.2396 32.5218ZM91.6386 32.6651C91.7014 32.7629 91.6699 32.972 91.5686 33.1296C91.4341 33.3389 91.35 33.2905 91.2577 32.9519C91.1358 32.5035 91.4047 32.3011 91.6386 32.6651ZM93.1753 33.1541C92.8943 33.659 93.0049 34.2704 93.3772 34.2704C93.4968 34.2704 93.5492 34.0448 93.4938 33.7689C93.3939 33.2714 93.3948 33.2711 93.6153 33.7461C93.7375 34.0094 93.9489 34.2911 94.0854 34.3723C94.2257 34.4556 94.3335 35.2405 94.3335 36.1782C94.3335 37.6881 94.375 37.8368 94.7971 37.8368C95.1836 37.8368 95.2608 37.9855 95.2608 38.7284C95.2608 39.4713 95.338 39.62 95.7244 39.62C96.1493 39.62 96.188 39.7686 96.188 41.4032C96.188 43.0377 96.2268 43.1864 96.6517 43.1864C97.0381 43.1864 97.1153 43.335 97.1153 44.078C97.1153 44.8209 97.1925 44.9696 97.579 44.9696C98.0039 44.9696 98.0426 45.1182 98.0426 46.7527C98.0426 48.3873 98.0813 48.5359 98.5062 48.5359C99.1203 48.5359 99.1762 49.6373 98.5642 49.6763C98.2032 49.6992 98.2012 49.7131 98.5445 49.8004C98.7568 49.8544 98.9903 50.0488 99.0633 50.232C99.1366 50.4152 99.1022 50.5093 98.987 50.4408C98.8718 50.3724 98.7427 50.3989 98.6998 50.4997C98.6286 50.6677 93.1598 52.5526 92.7662 52.5448C92.6718 52.5428 92.7513 52.4389 92.9426 52.3136C93.441 51.9871 91.6298 52.2976 90.7403 52.691C90.1742 52.9413 90.1526 52.9736 90.6244 52.864C91.5452 52.65 92.6287 52.535 92.2471 52.6914C91.152 53.141 88.7909 53.8104 88.9001 53.6403C88.971 53.53 88.9298 53.4397 88.8083 53.4397C88.6868 53.4397 88.5275 53.5902 88.4541 53.7741C88.3808 53.958 88.1685 54.1084 87.9825 54.1084C87.7097 54.1084 87.6701 53.8603 87.7783 52.8267C87.852 52.1217 88.0006 51.5116 88.1089 51.4708C88.2169 51.4301 88.2422 51.1543 88.1648 50.8579C88.0757 50.5168 88.1242 50.3191 88.2967 50.3191C88.4603 50.3191 88.5125 50.1475 88.4276 49.8901C88.2909 49.4757 88.898 45.5342 89.1618 45.1236C89.233 45.0128 89.3737 45.05 89.4741 45.2063C89.7279 45.601 90.0114 43.6455 89.8366 42.7053C89.7258 42.1091 89.7453 42.0494 89.934 42.4062C90.1313 42.7796 90.1521 42.7394 90.0617 42.1599C89.9678 41.5567 90.3198 39.9786 90.7774 38.9513C90.9763 38.5046 91.0275 38.3379 91.3205 37.1875C91.5894 36.1309 92.1425 35.0608 91.939 35.9903C91.8783 36.2687 91.9381 36.4631 92.0765 36.4361C92.2114 36.4096 92.3989 36.6387 92.4933 36.9452C92.6322 37.397 92.6683 37.4182 92.6841 37.0566C92.6947 36.8114 92.6106 36.4695 92.4968 36.2968C92.2388 35.9047 92.4423 35.3367 92.7708 35.532C92.9178 35.6194 92.9449 35.5688 92.8389 35.4041C92.7427 35.2543 92.5179 35.1854 92.3396 35.2511C92.1611 35.3171 92.0153 35.322 92.0153 35.2623C92.0153 35.0048 93.2615 32.4966 93.348 32.5799C93.4006 32.6305 93.323 32.8889 93.1753 33.1541ZM90.409 33.5721C90.1774 33.9882 90.1767 34.1476 90.4051 34.35C90.623 34.5432 90.6529 34.5374 90.5289 34.3261C90.4389 34.173 90.467 34.0475 90.5914 34.0475C90.7157 34.0475 90.9223 34.3234 91.0505 34.6605C91.1784 34.9975 91.2834 35.123 91.2839 34.9391C91.2844 34.7552 91.1531 34.2546 90.9925 33.8266L90.7004 33.0487L90.409 33.5721ZM0.232992 33.9545C0.244119 34.2142 0.299061 34.2671 0.373011 34.0894C0.440007 33.9285 0.431662 33.7361 0.354698 33.6621C0.277734 33.5881 0.223024 33.7196 0.232992 33.9545ZM92.4789 34.5064C92.4789 34.6362 92.5832 34.6805 92.7107 34.6047C92.8382 34.529 92.9426 34.4229 92.9426 34.3687C92.9426 34.3145 92.8382 34.2704 92.7107 34.2704C92.5832 34.2704 92.4789 34.3767 92.4789 34.5064ZM93.0585 34.9391C92.9797 35.0617 93.0258 35.162 93.1607 35.162C93.2956 35.162 93.4062 35.0617 93.4062 34.9391C93.4062 34.8165 93.3603 34.7162 93.304 34.7162C93.2476 34.7162 93.1373 34.8165 93.0585 34.9391ZM90.6559 35.3931C90.6197 36.0431 89.6971 36.3006 89.6971 35.6608C89.6971 35.4096 89.6224 35.3675 89.4576 35.526C89.0496 35.9183 89.4544 36.5317 90.0142 36.3694C90.7417 36.1588 90.9074 35.9426 90.7915 35.3548C90.6888 34.8341 90.6872 34.8346 90.6559 35.3931ZM0.00117243 35.5148C0.0122998 35.7745 0.0672411 35.8273 0.141192 35.6497C0.208187 35.4888 0.199842 35.2964 0.122878 35.2224C0.045914 35.1484 -0.00879582 35.2799 0.00117243 35.5148ZM0.0280638 36.6108C0.0327002 36.9786 0.084628 37.1021 0.14351 36.8852C0.202392 36.6683 0.198451 36.3674 0.134932 36.2165C0.0714137 36.0656 0.0234274 36.243 0.0280638 36.6108ZM88.7183 37.3353C88.643 37.6112 88.6759 37.8368 88.7916 37.8368C88.907 37.8368 89.0137 38.1127 89.0285 38.4498C89.0434 38.7868 89.1011 38.8971 89.1569 38.6947C89.2128 38.4923 89.1678 37.9908 89.0568 37.5802C88.8755 36.9086 88.8414 36.8841 88.7183 37.3353ZM89.979 37.3564C89.8009 37.4652 89.7469 37.7024 89.8445 37.9469C89.9449 38.1981 89.918 38.3024 89.7752 38.2175C89.6472 38.1415 89.5425 38.2253 89.5425 38.4038C89.5425 39.1951 90.1086 38.4798 90.2998 37.4467C90.3603 37.1206 90.364 37.1215 89.979 37.3564ZM86.0063 37.7438C86.0174 38.0035 86.0724 38.0563 86.1463 37.8787C86.2133 37.7178 86.205 37.5254 86.128 37.4514C86.051 37.3774 85.9963 37.5089 86.0063 37.7438ZM91.4262 38.004C91.3523 38.341 91.1937 38.791 91.0741 39.0039C90.7968 39.4963 90.7999 39.62 91.088 39.62C91.2155 39.62 91.3282 39.4445 91.3381 39.2299C91.3497 38.9847 91.4007 38.9461 91.4758 39.126C91.5417 39.2834 91.4946 39.5342 91.3715 39.6833C91.2484 39.8324 91.177 40.1297 91.2132 40.3444C91.2494 40.559 91.1837 40.7345 91.0676 40.7345C90.9512 40.7345 90.8562 40.8849 90.8562 41.0688C90.8562 41.2527 90.9605 41.4032 91.088 41.4032C91.2155 41.4032 91.3214 41.2779 91.3233 41.1245C91.3259 40.9328 91.3931 40.9464 91.5394 41.1687C91.7051 41.4206 91.7872 41.3548 91.9142 40.8689C92.0229 40.4521 92.1358 40.3384 92.2554 40.5245C92.3649 40.6948 92.4205 40.5818 92.3987 40.2327C92.379 39.9193 92.2847 39.7094 92.1887 39.7662C91.901 39.9372 91.5421 38.7446 91.6703 38.0441C91.8219 37.2167 91.6064 37.1815 91.4262 38.004ZM92.102 37.9409C92.0303 38.1208 92.0162 38.3965 92.0709 38.5538C92.1256 38.7112 92.2253 38.5639 92.2925 38.2269C92.4238 37.5686 92.3155 37.4061 92.102 37.9409ZM0.794228 38.2826C1.04923 38.388 1.41435 38.474 1.6056 38.474C1.82467 38.474 1.78201 38.4034 1.48969 38.2826C1.23469 38.1771 0.869569 38.0911 0.678318 38.0911C0.459249 38.0911 0.501903 38.1618 0.794228 38.2826ZM88.3062 39.2484C88.3062 39.4323 88.4174 39.6184 88.5537 39.6621C88.6898 39.7058 88.8199 40.2089 88.8428 40.7802C88.866 41.3515 88.9573 41.6943 89.0461 41.5416C89.2872 41.1274 88.9295 39.114 88.5959 39.007C88.4364 38.956 88.3062 39.0645 88.3062 39.2484ZM0.232992 39.527C0.244119 39.7867 0.299061 39.8395 0.373011 39.6619C0.440007 39.5009 0.431662 39.3086 0.354698 39.2346C0.277734 39.1606 0.223024 39.2921 0.232992 39.527ZM89.2406 39.2856C89.2406 39.4082 89.3417 39.659 89.4653 39.8429C89.5888 40.0268 89.6899 40.0769 89.6899 39.9543C89.6899 39.8317 89.5888 39.581 89.4653 39.3971C89.3417 39.2132 89.2406 39.163 89.2406 39.2856ZM5.96682 39.7722C6.13396 39.8366 6.33402 39.8286 6.41099 39.7546C6.48795 39.6806 6.35118 39.628 6.10684 39.6376C5.83677 39.6483 5.78183 39.7011 5.96682 39.7722ZM93.4502 40.4541C93.5005 41.0369 93.6443 41.3102 93.9278 41.3619C94.2605 41.4226 94.3335 41.2721 94.3335 40.5278C94.3335 39.7597 94.26 39.62 93.8559 39.62C93.4458 39.62 93.3884 39.7381 93.4502 40.4541ZM7.517 40.1852C7.8995 40.3538 8.4211 40.4893 8.6761 40.4866C8.9311 40.4839 8.6703 40.3395 8.09655 40.1656C6.80949 39.7758 6.6027 39.7827 7.517 40.1852ZM0.464812 40.4186C0.475939 40.6783 0.530881 40.7311 0.604831 40.5535C0.671827 40.3925 0.663482 40.2002 0.586518 40.1262C0.509553 40.0522 0.454844 40.1837 0.464812 40.4186ZM0.714946 41.4032C0.714946 41.7097 0.767568 41.8351 0.831782 41.6818C0.896228 41.5287 0.896228 41.2779 0.831782 41.1245C0.767568 40.9714 0.714946 41.0967 0.714946 41.4032ZM10.6032 41.1096C10.7704 41.174 10.9704 41.166 11.0474 41.092C11.1243 41.018 10.9876 40.9654 10.7432 40.975C10.4732 40.9857 10.4182 41.0385 10.6032 41.1096ZM11.5305 41.3325C11.6976 41.3969 11.8977 41.3889 11.9747 41.3149C12.0516 41.2409 11.9149 41.1883 11.6705 41.1979C11.4004 41.2086 11.3455 41.2614 11.5305 41.3325ZM12.5011 41.6261C12.6924 41.7449 12.9532 41.8421 13.0807 41.8421C13.2082 41.8421 13.156 41.7449 12.9648 41.6261C12.7735 41.5073 12.5127 41.4101 12.3852 41.4101C12.2577 41.4101 12.3099 41.5073 12.5011 41.6261ZM117.901 42.1276C117.837 42.2809 117.784 42.1554 117.784 41.849C117.784 41.5425 117.837 41.4172 117.901 41.5703C117.965 41.7237 117.965 41.9745 117.901 42.1276ZM90.393 42.2948C90.3522 42.6012 90.3367 43.0406 90.3585 43.2711C90.38 43.5015 90.3007 44.028 90.1821 44.4413C90.0634 44.8543 90.0557 45.1925 90.1651 45.1925C90.431 45.1925 90.6858 43.4799 90.5641 42.5119C90.4857 41.8893 90.4524 41.8467 90.393 42.2948ZM0.928451 42.4247C0.939579 42.6844 0.99452 42.7372 1.06847 42.5596C1.13547 42.3986 1.12712 42.2063 1.05016 42.1323C0.973193 42.0583 0.918483 42.1898 0.928451 42.4247ZM15.2396 42.447C15.4068 42.5114 15.6068 42.5034 15.6838 42.4294C15.7607 42.3554 15.624 42.3028 15.3796 42.3124C15.1096 42.3231 15.0546 42.3759 15.2396 42.447ZM18.0648 43.1864C18.256 43.3052 18.5168 43.4023 18.6443 43.4023C18.7718 43.4023 18.7197 43.3052 18.5284 43.1864C18.3372 43.0676 18.0764 42.9704 17.9489 42.9704C17.8214 42.9704 17.8735 43.0676 18.0648 43.1864ZM87.3789 43.1995C87.3789 43.3292 87.4832 43.3736 87.6107 43.2978C87.7382 43.222 87.8425 43.1159 87.8425 43.0618C87.8425 43.0076 87.7382 42.9635 87.6107 42.9635C87.4832 42.9635 87.3789 43.0698 87.3789 43.1995ZM89.4493 44.3838C89.2309 44.577 89.1998 44.5409 89.3153 44.2269C89.3978 44.0024 89.4808 43.6012 89.5 43.3353C89.5244 42.9949 89.564 43.041 89.634 43.4922C89.6887 43.8441 89.6055 44.2453 89.4493 44.3838ZM84.3852 43.2978C84.4093 43.72 84.7955 44.431 84.8089 44.078C84.8161 43.8941 84.7206 43.5932 84.5971 43.4093C84.4735 43.2254 84.378 43.1752 84.3852 43.2978ZM92.9412 43.5764C92.9377 44.6602 93.5147 48.5359 93.6797 48.5359C93.932 48.5359 93.9222 48.169 93.5977 45.4711C93.4465 44.2146 93.2372 43.1864 93.1327 43.1864C93.0281 43.1864 92.9419 43.3618 92.9412 43.5764ZM20.8033 44.0073C20.9704 44.0717 21.1705 44.0637 21.2474 43.9897C21.3244 43.9157 21.1876 43.8631 20.9433 43.8727C20.6732 43.8834 20.6183 43.9362 20.8033 44.0073ZM87.8608 44.2079C87.872 44.4676 87.9269 44.5204 88.0009 44.3428C88.0679 44.1818 88.0595 43.9895 87.9825 43.9155C87.9056 43.8415 87.8509 43.973 87.8608 44.2079ZM1.39209 44.4308C1.40322 44.6905 1.45816 44.7433 1.53211 44.5657C1.59911 44.4047 1.59076 44.2124 1.5138 44.1384C1.43683 44.0644 1.38212 44.1959 1.39209 44.4308ZM5.08289 44.4313C5.08289 44.8227 14.2078 87.0962 14.4938 88.0296C14.5789 88.3072 22.751 91.0143 45.9518 98.4502C63.1904 103.975 77.3736 108.496 77.4698 108.496C77.566 108.496 77.6181 98.6557 77.5857 86.629L77.5266 64.7619L74.5129 63.8839C72.8554 63.4009 70.8212 62.8131 69.9924 62.5775C66.6269 61.621 56.5821 58.7467 55.4457 58.4148L54.2287 58.0595V56.6544C54.2287 55.8816 54.1332 55.1924 54.0163 55.1231C53.8997 55.0537 49.9616 53.8913 45.2651 52.5399C40.5687 51.1887 35.8917 49.8417 34.8717 49.5466C33.8517 49.2517 31.5567 48.5952 29.7717 48.0879C27.9867 47.5808 26.3037 47.0802 26.0315 46.9759C25.6961 46.847 25.3789 46.8923 25.0463 47.1163C24.5704 47.4368 24.3269 48.0295 24.7825 47.7589C24.9072 47.6847 25.5591 47.7881 26.2313 47.9885C26.9036 48.1889 27.9229 48.4838 28.4967 48.644C29.0704 48.8041 32.9824 49.9549 37.1899 51.2014C41.3974 52.4478 46.6431 53.9878 48.8467 54.6238L52.8533 55.7802L52.8264 62.3C52.8116 65.8857 52.714 68.8198 52.6096 68.8198C52.4253 68.8198 46.9444 67.2307 44.1445 66.3656C43.3795 66.1291 41.3453 65.5418 39.624 65.0603C37.9028 64.5789 34.721 63.6623 32.5535 63.0235C30.386 62.3849 27.7259 61.6103 26.6421 61.3023L24.6717 60.7421V55.1703V49.5985L15.0637 46.8381C9.7791 45.3202 5.37174 44.078 5.26928 44.078C5.16681 44.078 5.08289 44.2369 5.08289 44.4313ZM21.7739 44.3009C21.9652 44.4197 22.226 44.5168 22.3535 44.5168C22.481 44.5168 22.4288 44.4197 22.2376 44.3009C22.0463 44.182 21.7855 44.0849 21.658 44.0849C21.5305 44.0849 21.5827 44.182 21.7739 44.3009ZM1.64222 45.4153C1.64222 45.7218 1.69485 45.8473 1.75906 45.694C1.82351 45.5408 1.82351 45.2901 1.75906 45.1367C1.69485 44.9836 1.64222 45.1089 1.64222 45.4153ZM95.6931 45.3179C95.2675 45.7272 95.392 46.7527 95.8674 46.7527C96.087 46.7527 96.188 46.4717 96.188 45.8611C96.188 44.8483 96.185 44.845 95.6931 45.3179ZM84.17 45.6382C84.17 45.9447 84.2227 46.0702 84.2869 45.9169C84.3513 45.7637 84.3513 45.513 84.2869 45.3596C84.2227 45.2065 84.17 45.3318 84.17 45.6382ZM87.1654 45.7682C87.1765 46.0279 87.2315 46.0807 87.3054 45.9031C87.3724 45.7421 87.3641 45.5498 87.2871 45.4758C87.2101 45.4018 87.1554 45.5333 87.1654 45.7682ZM89.2334 46.1955C89.2334 46.502 89.2736 46.7527 89.3222 46.7527C89.3711 46.7527 89.4611 46.502 89.5221 46.1955C89.583 45.889 89.5429 45.6382 89.433 45.6382C89.3234 45.6382 89.2334 45.889 89.2334 46.1955ZM90.4292 46.3069C90.4292 46.6134 90.4818 46.7389 90.546 46.5856C90.6105 46.4324 90.6105 46.1817 90.546 46.0283C90.4818 45.8752 90.4292 46.0005 90.4292 46.3069ZM1.87404 46.5298C1.87404 46.8363 1.92667 46.9618 1.99088 46.8085C2.05533 46.6553 2.05533 46.4046 1.99088 46.2512C1.92667 46.0981 1.87404 46.2234 1.87404 46.5298ZM28.4533 46.2363C28.6205 46.3007 28.8205 46.2927 28.8975 46.2187C28.9745 46.1447 28.8377 46.0921 28.5934 46.1017C28.3233 46.1124 28.2683 46.1652 28.4533 46.2363ZM89.845 46.4184C89.7717 46.6023 89.8128 46.7527 89.9361 46.7527C90.0597 46.7527 90.1607 46.6023 90.1607 46.4184C90.1607 46.2345 90.1197 46.084 90.0696 46.084C90.0195 46.084 89.9185 46.2345 89.845 46.4184ZM30.0761 46.6821C30.2432 46.7465 30.4433 46.7385 30.5202 46.6645C30.5972 46.5905 30.4604 46.5379 30.2161 46.5475C29.946 46.5582 29.8911 46.611 30.0761 46.6821ZM31.974 47.1985C32.1652 47.3173 32.4782 47.4092 32.6694 47.4023C32.8987 47.3942 32.8593 47.3249 32.5535 47.1985C31.9163 46.9353 31.5502 46.9353 31.974 47.1985ZM84.17 47.4214C84.17 47.7279 84.2227 47.8534 84.2869 47.7001C84.3513 47.5469 84.3513 47.2962 84.2869 47.1428C84.2227 46.9897 84.17 47.115 84.17 47.4214ZM108.368 47.2135C108.442 47.3278 108.345 47.4214 108.154 47.4214C107.962 47.4214 107.435 47.6319 106.981 47.8893C106.522 48.1494 106.156 48.2484 106.156 48.1122C106.156 47.9774 106.287 47.8657 106.446 47.8639C106.606 47.8619 106.892 47.7616 107.084 47.641C107.364 47.4638 107.373 47.3851 107.128 47.2329C106.923 47.106 107.055 47.0378 107.529 47.0249C107.917 47.0144 108.295 47.0991 108.368 47.2135ZM2.08755 47.5514C2.09868 47.8111 2.15362 47.8639 2.22757 47.6862C2.29456 47.5253 2.28622 47.333 2.20926 47.2589C2.13229 47.1849 2.07758 47.3165 2.08755 47.5514ZM28.1149 47.9633C29.2436 48.2939 30.1183 48.6115 30.0582 48.669C29.9984 48.7265 29.1397 48.5197 28.1503 48.2089C27.1607 47.8984 26.2142 47.6443 26.0466 47.6443C25.8792 47.6443 25.6669 47.5271 25.5746 47.3835C25.468 47.2177 25.5261 47.1664 25.7348 47.2427C25.9151 47.3087 26.9861 47.633 28.1149 47.9633ZM106.388 47.3954C106.388 47.5037 106.187 47.6428 105.942 47.7045C105.629 47.7832 105.532 47.7246 105.619 47.5077C105.754 47.17 106.388 47.0773 106.388 47.3954ZM111.14 47.6443C111.062 47.7669 110.769 47.8572 110.489 47.8449C110.016 47.8244 110.021 47.8104 110.561 47.6443C110.88 47.5463 111.173 47.456 111.212 47.4437C111.251 47.4315 111.219 47.5217 111.14 47.6443ZM87.2952 47.9785C87.2217 48.1621 87.2562 48.5384 87.3715 48.8143C87.5537 49.2499 87.5834 49.206 87.5961 48.4802C87.6116 47.594 87.5138 47.4306 87.2952 47.9785ZM34.7125 48.0195C34.8796 48.0839 35.0797 48.0759 35.1566 48.0019C35.2336 47.9279 35.0968 47.8753 34.8525 47.8848C34.5824 47.8955 34.5275 47.9484 34.7125 48.0195ZM2.31937 48.443C2.3305 48.7027 2.38544 48.7555 2.45939 48.5778C2.52638 48.4169 2.51804 48.2245 2.44108 48.1505C2.36411 48.0765 2.3094 48.2081 2.31937 48.443ZM24.601 48.6474C24.6056 49.0152 24.6575 49.1387 24.7164 48.9218C24.7753 48.7049 24.7713 48.404 24.7078 48.2531C24.6443 48.1022 24.5963 48.2796 24.601 48.6474ZM36.2626 48.4325C36.6451 48.601 37.1146 48.7357 37.3058 48.7319C37.4971 48.7281 37.2884 48.5897 36.8422 48.4245C35.7837 48.0326 35.3674 48.0384 36.2626 48.4325ZM101.346 48.8743C101.569 48.9597 101.752 48.9434 101.753 48.8384C101.753 48.7334 102.144 48.6322 102.622 48.6137C103.256 48.589 103.365 48.6269 103.027 48.7544C102.595 48.9169 102.603 48.9365 103.143 49.0361C103.461 49.095 103.253 49.1048 102.679 49.0582C101.665 48.9755 101.652 48.9824 102.215 49.3038C102.642 49.5472 102.691 49.6366 102.403 49.6426C102.187 49.6469 101.946 49.5501 101.868 49.4275C101.652 49.0916 101.285 49.1601 101.425 49.5102C101.492 49.6783 101.369 49.8811 101.153 49.9612C100.654 50.1453 99.8971 49.9221 99.8971 49.5909C99.8971 49.4113 99.9774 49.4155 100.175 49.6059C100.504 49.9215 101.056 49.9612 101.056 49.6689C101.056 49.5566 100.769 49.364 100.419 49.2407C100.068 49.1177 99.9377 49.0074 100.129 48.996C100.438 48.9773 100.438 48.9501 100.129 48.7506C99.8608 48.5776 99.9138 48.5484 100.361 48.6226C100.68 48.6757 101.123 48.7889 101.346 48.8743ZM104.649 48.7588C104.571 48.8814 104.402 48.9817 104.274 48.9817C104.147 48.9817 104.107 48.8814 104.186 48.7588C104.265 48.6362 104.433 48.5359 104.561 48.5359C104.688 48.5359 104.728 48.6362 104.649 48.7588ZM107.315 48.6369C107.315 48.8872 104.495 49.8843 103.862 49.8577C103.657 49.8493 104.012 49.6935 104.649 49.5116C105.287 49.3297 106.122 49.0381 106.504 48.8636C107.29 48.5047 107.315 48.4976 107.315 48.6369ZM86.9336 49.1117C86.9447 49.3714 86.9996 49.4242 87.0736 49.2465C87.1406 49.0856 87.1322 48.8932 87.0553 48.8192C86.9783 48.7452 86.9236 48.8768 86.9336 49.1117ZM32.5535 49.3005C33.191 49.471 33.504 49.6119 33.249 49.6134C32.7554 49.6163 30.7704 49.0417 31.1626 49.0094C31.2901 48.9989 31.916 49.13 32.5535 49.3005ZM88.5563 49.3346C88.5674 49.5943 88.6224 49.6471 88.6963 49.4694C88.7633 49.3085 88.755 49.1161 88.678 49.0421C88.601 48.9681 88.5463 49.0997 88.5563 49.3346ZM100.781 49.134C100.948 49.1984 101.148 49.1904 101.225 49.1164C101.302 49.0424 101.165 48.9898 100.921 48.9993C100.651 49.01 100.596 49.0629 100.781 49.134ZM41.0149 49.8733C41.2062 49.9921 41.5192 50.084 41.7104 50.0771C41.9397 50.069 41.9003 49.9997 41.5945 49.8733C40.9572 49.6101 40.5912 49.6101 41.0149 49.8733ZM105.693 49.8733C105.501 49.9921 105.241 50.0893 105.113 50.0893C104.986 50.0893 105.038 49.9921 105.229 49.8733C105.42 49.7545 105.681 49.6573 105.809 49.6573C105.936 49.6573 105.884 49.7545 105.693 49.8733ZM36.1467 50.3376C37.5581 50.8191 36.9138 50.7614 35.1035 50.2442C34.466 50.0621 34.1531 49.9108 34.4081 49.9081C34.6631 49.9052 35.4455 50.0985 36.1467 50.3376ZM103.454 50.0405C103.513 50.1326 103.232 50.2246 102.83 50.2454C102.238 50.2757 102.187 50.2471 102.563 50.0938C103.167 49.8475 103.324 49.8379 103.454 50.0405ZM106.504 50.0962C105.867 50.3595 105.501 50.3595 105.924 50.0962C106.116 49.9774 106.429 49.8856 106.62 49.8925C106.849 49.9005 106.81 49.9698 106.504 50.0962ZM2.78301 50.4491C2.79414 50.7088 2.84908 50.7616 2.92303 50.5839C2.99002 50.423 2.98168 50.2306 2.90471 50.1566C2.82775 50.0826 2.77304 50.2141 2.78301 50.4491ZM96.5001 50.349C96.807 50.5204 97.0006 50.5186 97.1839 50.3423C97.3705 50.1629 97.2546 50.098 96.756 50.1029C96.1565 50.1089 96.125 50.1393 96.5001 50.349ZM97.6135 50.4587C96.9975 50.717 96.673 50.7326 96.0466 50.534C95.6122 50.396 95.1272 50.3336 94.9689 50.3951C94.8108 50.4564 94.8898 50.5164 95.1448 50.5278C95.3998 50.5394 95.765 50.649 95.9562 50.7716C96.2038 50.9301 96.0035 50.9635 95.2608 50.8875C94.4176 50.8013 94.3509 50.8171 94.913 50.9693C95.468 51.12 95.5058 51.1632 95.1006 51.1844C94.8212 51.1989 94.5282 51.311 94.4494 51.4336C94.2769 51.702 95.076 51.7341 95.3883 51.4713C95.5093 51.3694 96.2606 51.1028 97.0574 50.8788C97.8544 50.6548 98.5062 50.3871 98.5062 50.2839C98.5062 50.1807 98.48 50.1045 98.4483 50.1145C98.4165 50.1243 98.0407 50.2792 97.6135 50.4587ZM43.2898 50.4714C43.4569 50.5358 43.657 50.5278 43.734 50.4538C43.8109 50.3798 43.6742 50.3272 43.4298 50.3367C43.1597 50.3474 43.1048 50.4003 43.2898 50.4714ZM101.636 50.542C101.557 50.6646 101.348 50.7649 101.172 50.7649C100.996 50.7649 100.778 50.8797 100.688 51.0201C100.575 51.1962 100.714 51.2404 101.138 51.1626C101.475 51.1004 101.752 51.1361 101.752 51.2417C101.752 51.3471 101.517 51.4321 101.23 51.4303C100.687 51.4267 99.9461 51.0808 100.136 50.919C100.222 50.8454 101.374 50.4185 101.707 50.3367C101.747 50.3272 101.715 50.4194 101.636 50.542ZM37.8854 50.7649C37.9642 50.8875 37.9181 50.9878 37.7831 50.9878C37.6482 50.9878 37.5377 50.8875 37.5377 50.7649C37.5377 50.6423 37.5835 50.542 37.6399 50.542C37.6962 50.542 37.8066 50.6423 37.8854 50.7649ZM3.01483 51.3407C3.02596 51.6004 3.0809 51.6532 3.15485 51.4755C3.22184 51.3146 3.2135 51.1222 3.13653 51.0482C3.05957 50.9742 3.00486 51.1057 3.01483 51.3407ZM39.6048 51.3536C39.8373 51.5464 38.7779 51.4042 38.4649 51.2005C38.2111 51.0353 38.3047 51.0146 38.8127 51.1238C39.1952 51.206 39.5517 51.3095 39.6048 51.3536ZM99.8971 51.1048C99.8971 51.2693 99.0014 51.5747 98.0426 51.7372C97.3798 51.8496 97.4436 51.7967 98.3903 51.4486C99.6563 50.9831 99.8971 50.9281 99.8971 51.1048ZM46.5353 51.363C46.7024 51.4274 46.9025 51.4194 46.9794 51.3454C47.0564 51.2714 46.9196 51.2188 46.6753 51.2283C46.4052 51.239 46.3503 51.2919 46.5353 51.363ZM119.895 51.792C119.865 52.0239 119.781 52.615 119.709 53.1054C119.638 53.5957 119.432 55.3009 119.254 56.8947C118.899 60.0518 118.34 64.4634 117.983 66.9251C117.859 67.7833 117.702 69.0371 117.636 69.7114C117.453 71.5668 117.078 74.5188 116.463 78.9617C116.158 81.1684 115.798 84.0772 115.664 85.4257C115.529 86.7743 115.309 88.4057 115.175 89.051C115.041 89.6965 114.961 90.4989 114.998 90.8344C115.034 91.1699 115.003 91.5445 114.928 91.6671C114.853 91.7895 114.716 92.4916 114.623 93.2272C114.531 93.9628 114.368 94.7218 114.261 94.9137C114.155 95.1056 113.493 95.4504 112.791 95.68C112.089 95.9094 111.566 96.1775 111.629 96.2756C111.692 96.3739 111.565 96.3881 111.346 96.3075C111.055 96.1998 110.999 96.2397 111.138 96.4559C111.259 96.6434 111.238 96.6975 111.081 96.6044C110.945 96.5237 110.314 96.7087 109.679 97.0156C109.043 97.3225 108.408 97.5737 108.267 97.5737C108.126 97.5737 108.011 97.6582 108.011 97.7614C108.011 97.8646 107.589 98.0704 107.075 98.2188C106.559 98.367 105.386 98.822 104.467 99.2297C103.547 99.6373 101.752 100.395 100.477 100.913C99.2017 101.431 97.7934 102.03 97.3471 102.244C96.2824 102.755 94.2343 103.66 93.0005 104.166C92.4588 104.388 92.0153 104.655 92.0153 104.759C92.0153 104.864 91.885 104.929 91.7255 104.904C91.3947 104.853 90.8998 105.017 89.5812 105.613C89.0712 105.845 88.3409 106.146 87.9584 106.285C87.279 106.53 87.275 106.54 87.7846 106.728C88.0716 106.834 88.3062 106.972 88.3062 107.034C88.3062 107.096 88.0386 107.05 87.7115 106.93C86.9815 106.663 86.8529 106.658 87.0105 106.903C87.078 107.008 86.8617 107.044 86.5302 106.983C86.0846 106.901 85.9567 106.953 86.0397 107.182C86.1013 107.353 85.9323 107.615 85.6641 107.764C85.1787 108.033 85.1789 108.034 85.7135 108.042C86.1611 108.049 86.2383 108.152 86.1771 108.663C86.1164 109.171 85.9847 109.282 85.4084 109.308C84.7477 109.339 84.7447 109.335 85.3505 109.238C86.204 109.1 86.2599 108.273 85.4156 108.273C85.0023 108.273 84.8806 108.18 84.9768 107.939C85.0503 107.755 85.0519 107.604 84.9805 107.604C84.6654 107.604 83.6698 108.139 83.6698 108.309C83.6698 108.572 83.9932 108.542 84.2957 108.251C84.4814 108.072 84.5414 108.163 84.5159 108.585C84.4742 109.279 84.3383 109.306 83.7926 108.726C83.4231 108.334 83.377 107.733 83.351 102.986C83.335 100.071 83.3883 98.3873 83.4693 99.2455C83.5555 100.16 83.593 99.299 83.5604 97.1663C83.5295 95.1646 83.581 93.6463 83.6746 93.7923C83.8919 94.13 84.2345 81.9276 84.0449 80.6127C83.9551 79.9906 83.9753 79.7937 84.1 80.0762C84.2196 80.3474 84.3564 78.3396 84.4494 74.9495C84.6946 65.9923 84.881 62.4275 85.0785 62.9129C85.1975 63.2049 85.2668 63.2435 85.2798 63.0244C85.2974 62.7273 85.3245 62.7273 85.5243 63.0244C85.6875 63.2673 85.7501 63.2789 85.7527 63.067C85.7545 62.9065 85.8387 62.8242 85.9393 62.8842C86.0401 62.9439 86.4314 62.8561 86.8086 62.6885C87.186 62.5211 88.4337 62.0688 89.5812 61.6834C90.7287 61.298 92.111 60.8308 92.653 60.6452C93.2298 60.4477 93.5754 60.2096 93.4864 60.0712C93.3958 59.9303 93.4451 59.9007 93.609 59.9981C93.8872 60.1632 96.0012 59.5821 97.6949 58.8749C98.2049 58.6618 98.7265 58.4621 98.854 58.4311C99.3341 58.3141 100.749 57.8315 101.868 57.4035C102.505 57.1597 103.34 56.8866 103.722 56.797C104.105 56.7074 104.389 56.5097 104.354 56.3577C104.319 56.2057 104.4 56.1464 104.534 56.226C104.909 56.4493 106.184 56.1145 106.007 55.839C105.915 55.6966 105.962 55.6647 106.123 55.7601C106.352 55.8965 107.275 55.6161 109.749 54.6583C110.004 54.5596 110.63 54.3516 111.14 54.1962C113.813 53.3815 115.195 52.8421 115.032 52.677C114.932 52.5758 115.084 52.5622 115.371 52.6469C115.703 52.7449 115.893 52.7077 115.893 52.5446C115.893 52.4035 116.023 52.3299 116.182 52.3812C116.342 52.4324 117.15 52.1984 117.979 51.8611C119.649 51.1818 119.976 51.1699 119.895 51.792ZM40.7831 51.6565C41.2069 51.9198 40.8409 51.9198 40.2036 51.6565C39.8978 51.5301 39.8584 51.4608 40.0877 51.4528C40.2789 51.4459 40.5919 51.5377 40.7831 51.6565ZM100.342 52.0223C100.395 52.0662 100.134 52.1039 99.762 52.1057C99.2402 52.1083 99.1651 52.1585 99.4335 52.3252C99.7381 52.5145 99.7358 52.5417 99.4143 52.5448C98.9244 52.5492 98.7432 52.3491 98.8941 51.9706C98.9787 51.7588 99.2137 51.7047 99.6315 51.801C99.9688 51.8785 100.288 51.9782 100.342 52.0223ZM101.225 51.7912C101.148 51.8652 100.948 51.8732 100.781 51.8088C100.596 51.7377 100.651 51.6848 100.921 51.6741C101.165 51.6646 101.302 51.7172 101.225 51.7912ZM48.8535 52.0317C49.0206 52.0961 49.2207 52.0881 49.2976 52.0141C49.3746 51.9401 49.2378 51.8875 48.9935 51.897C48.7234 51.9077 48.6685 51.9606 48.8535 52.0317ZM3.26496 52.5481C3.26496 52.8546 3.31759 52.9801 3.3818 52.8267C3.44624 52.6736 3.44624 52.4229 3.3818 52.2695C3.31759 52.1164 3.26496 52.2416 3.26496 52.5481ZM42.9854 52.3252L43.4491 52.5167L42.9854 52.529C42.7304 52.5359 42.3653 52.444 42.174 52.3252C41.865 52.1331 41.865 52.1106 42.174 52.1215C42.3653 52.1282 42.7304 52.2198 42.9854 52.3252ZM90.3925 52.3252C90.2013 52.444 90.1491 52.5412 90.2766 52.5412C90.4041 52.5412 90.6649 52.444 90.8562 52.3252C91.0474 52.2064 91.0996 52.1092 90.9721 52.1092C90.8446 52.1092 90.5838 52.2064 90.3925 52.3252ZM102.679 52.3252C102.988 52.5174 102.988 52.5412 102.679 52.5412C102.488 52.5412 102.175 52.444 101.984 52.3252C101.675 52.1331 101.675 52.1092 101.984 52.1092C102.175 52.1092 102.488 52.2064 102.679 52.3252ZM104.418 52.3252C103.966 52.5118 103.966 52.5171 104.406 52.5325C104.748 52.5443 104.793 52.6108 104.59 52.8062C104.387 53.0015 104.235 52.995 103.964 52.7788C103.426 52.3497 103.532 52.1005 104.244 52.1179C104.809 52.132 104.828 52.1554 104.418 52.3252ZM50.4762 52.4775C50.6433 52.5419 50.8434 52.5339 50.9204 52.4599C50.9973 52.3859 50.8606 52.3332 50.6162 52.3428C50.3462 52.3535 50.2912 52.4064 50.4762 52.4775ZM105.63 52.4599C105.553 52.5339 105.353 52.5419 105.186 52.4775C105.001 52.4064 105.056 52.3535 105.326 52.3428C105.57 52.3332 105.707 52.3859 105.63 52.4599ZM102.166 58.1656L86.0049 63.9898L85.8904 64.9003C85.8273 65.4009 85.5081 74.2864 85.181 84.6456C84.8539 95.0048 84.5231 104.258 84.4459 105.208C84.3293 106.642 84.3634 106.936 84.6471 106.936C84.936 106.936 89.172 105.127 95.4926 102.305C96.3213 101.935 99.4509 100.558 102.447 99.2462C107.163 97.181 113.364 94.4376 113.504 94.3551C113.568 94.3172 113.747 93.204 113.899 91.8898C113.97 91.2768 114.289 88.6689 114.608 86.0944C115.33 80.2792 116.172 73.3261 117.052 65.9221C117.423 62.7959 117.94 58.5655 118.201 56.5213C118.738 52.3083 118.737 52.3223 118.501 52.3332C118.405 52.3377 111.054 54.9623 102.166 58.1656ZM37.164 52.7666C36.5074 53.0216 35.7494 53.9794 35.5649 54.7867C35.3562 55.7004 35.8166 56.8871 36.6375 57.5511L37.3292 58.1108L37.0754 59.8947C36.7845 61.9378 36.9778 62.5786 37.8854 62.5786C38.7577 62.5786 39.0111 61.8702 38.8409 59.9078L38.6933 58.2069L39.4119 57.6962C41.256 56.3851 41.0275 53.6646 39.0046 52.8522C38.1501 52.5089 37.862 52.4955 37.164 52.7666ZM44.4922 52.771C44.916 53.0343 44.55 53.0343 43.9127 52.771C43.6069 52.6446 43.5675 52.5753 43.7968 52.5673C43.988 52.5604 44.301 52.6522 44.4922 52.771ZM89.4219 52.7004C89.5891 52.7648 89.7891 52.7568 89.8661 52.6828C89.943 52.6087 89.8063 52.5561 89.5619 52.5657C89.2919 52.5764 89.2369 52.6293 89.4219 52.7004ZM95.363 52.8896C95.7344 53.1598 95.7478 53.2168 95.44 53.2168C95.2348 53.2168 94.9279 53.2505 94.7582 53.2917C94.5882 53.333 94.5217 53.3265 94.6103 53.2772C94.6986 53.2282 94.7137 53.0441 94.6434 52.868C94.4809 52.4607 94.7858 52.4699 95.363 52.8896ZM103.706 52.9685C103.834 53.1673 103.094 53.4377 102.447 53.4288C102.242 53.4259 102.337 53.2933 102.679 53.1054C103.366 52.7278 103.536 52.705 103.706 52.9685ZM46.115 53.2168C46.5809 53.3604 46.6037 53.3965 46.2309 53.4018C45.9759 53.4054 45.5586 53.3223 45.3036 53.2168C44.7129 52.9727 45.3224 52.9727 46.115 53.2168ZM89.0016 53.2168C89.0016 53.3394 89.0997 53.4397 89.2198 53.4397C89.3399 53.4397 89.5024 53.3394 89.5812 53.2168C89.66 53.0942 89.5617 52.9939 89.363 52.9939C89.1644 52.9939 89.0016 53.0942 89.0016 53.2168ZM53.4899 53.3691C53.657 53.4335 53.8571 53.4255 53.934 53.3515C54.011 53.2774 53.8742 53.2248 53.6299 53.2344C53.3598 53.2451 53.3049 53.298 53.4899 53.3691ZM93.0735 53.5915C93.5052 53.6738 93.5376 53.7915 93.4048 54.7871C93.3239 55.3945 93.3346 55.8916 93.4287 55.8916C94.0643 55.8916 94.3335 55.5553 94.3335 54.7611C94.3335 53.8579 93.8745 53.4081 93.0158 53.47C92.6723 53.4948 92.6829 53.5173 93.0735 53.5915ZM95.6616 53.5743C95.5846 53.6484 95.3845 53.6564 95.2174 53.592C95.0324 53.5209 95.0874 53.468 95.3574 53.4573C95.6018 53.4477 95.7385 53.5003 95.6616 53.5743ZM116.256 57.0777C116.051 58.6935 115.731 61.2691 115.545 62.8015C115.36 64.3339 114.793 68.9981 114.286 73.1663C113.779 77.3345 113.196 82.1993 112.991 83.9769C112.787 85.7545 112.443 88.5428 112.228 90.1728L111.836 93.1369L109.518 94.1449C108.243 94.6992 106.626 95.4107 105.924 95.7261C105.223 96.0413 103.971 96.5925 103.143 96.9507C100.582 98.0583 100.334 98.1669 97.1153 99.5861C95.3941 100.345 93.412 101.217 92.7107 101.524C92.0095 101.83 89.9896 102.728 88.2222 103.518C86.4549 104.308 84.9803 104.923 84.9452 104.886C84.91 104.849 85.0697 99.5018 85.2997 93.0043C85.5297 86.5068 85.8454 77.4292 86.0012 72.8319C86.191 67.2298 86.3695 64.4206 86.542 64.3141C86.8105 64.1478 90.1681 62.9337 104.881 57.6826C109.726 55.9534 114.316 54.3008 115.081 54.0101C116.242 53.569 116.485 53.536 116.55 53.8108C116.593 53.9921 116.461 55.4621 116.256 57.0777ZM48.2014 53.8855C48.6251 54.1488 48.2591 54.1488 47.6218 53.8855C47.316 53.7591 47.2766 53.6898 47.5059 53.6818C47.6971 53.6749 48.0101 53.7667 48.2014 53.8855ZM55.8081 54.0378C55.9752 54.1022 56.1753 54.0942 56.2522 54.0201C56.3292 53.9461 56.1924 53.8935 55.9481 53.9031C55.678 53.9138 55.6231 53.9667 55.8081 54.0378ZM3.71029 54.4613C3.72142 54.7209 3.77636 54.7738 3.85031 54.5961C3.9173 54.4352 3.90896 54.2428 3.83199 54.1688C3.75503 54.0948 3.70032 54.2263 3.71029 54.4613ZM49.94 54.3313C50.0188 54.4539 49.9727 54.5542 49.8378 54.5542C49.7029 54.5542 49.5923 54.4539 49.5923 54.3313C49.5923 54.2087 49.6382 54.1084 49.6945 54.1084C49.7508 54.1084 49.8612 54.2087 49.94 54.3313ZM89.9289 54.3347C89.6199 54.5299 89.6199 54.5785 89.9289 54.7738C90.1202 54.8944 90.381 54.9931 90.5085 54.9931C90.636 54.9931 90.5838 54.8944 90.3925 54.7738C90.0835 54.5785 90.0835 54.5299 90.3925 54.3347C90.5838 54.2141 90.636 54.1153 90.5085 54.1153C90.381 54.1153 90.1202 54.2141 89.9289 54.3347ZM96.188 54.3244C96.188 54.443 96.3445 54.4824 96.5358 54.412C96.727 54.3413 96.8835 54.2442 96.8835 54.196C96.8835 54.1479 96.727 54.1084 96.5358 54.1084C96.3445 54.1084 96.188 54.2056 96.188 54.3244ZM50.9204 54.6888C50.8434 54.7628 50.6433 54.7709 50.4762 54.7065C50.2912 54.6354 50.3462 54.5825 50.6162 54.5718C50.8606 54.5622 50.9973 54.6148 50.9204 54.6888ZM88.7698 54.7831C88.7698 54.9768 89.6697 55.3234 89.8137 55.1852C89.8584 55.142 89.6419 54.992 89.3324 54.8516C89.0229 54.7111 88.7698 54.6804 88.7698 54.7831ZM88.0743 55.2229C88.2656 55.3417 88.5264 55.4389 88.6539 55.4389C88.7814 55.4389 88.7292 55.3417 88.538 55.2229C88.3467 55.1041 88.0859 55.0069 87.9584 55.0069C87.8309 55.0069 87.8831 55.1041 88.0743 55.2229ZM3.94211 55.5758C3.95323 55.8354 4.00818 55.8883 4.08213 55.7106C4.14912 55.5497 4.14078 55.3573 4.06381 55.2833C3.98685 55.2093 3.93214 55.3408 3.94211 55.5758ZM53.0067 55.3575C52.9298 55.4315 52.7297 55.4396 52.5626 55.3752C52.3776 55.3041 52.4325 55.2512 52.7026 55.2405C52.9469 55.2309 53.0837 55.2835 53.0067 55.3575ZM60.7196 55.4458C60.9109 55.5646 61.2238 55.6564 61.4151 55.6495C61.6443 55.6415 61.6049 55.5722 61.2992 55.4458C60.6619 55.1826 60.2959 55.1826 60.7196 55.4458ZM4.17393 56.4674C4.18505 56.727 4.24 56.7799 4.31395 56.6022C4.38094 56.4413 4.3726 56.2489 4.29563 56.1749C4.21867 56.1009 4.16396 56.2324 4.17393 56.4674ZM84.3652 56.3374C84.3652 56.46 84.4758 56.5603 84.6107 56.5603C84.7456 56.5603 84.7918 56.46 84.713 56.3374C84.6341 56.2148 84.5238 56.1145 84.4675 56.1145C84.4111 56.1145 84.3652 56.2148 84.3652 56.3374ZM66.1674 57.0061C66.8047 57.2693 67.1707 57.2693 66.7469 57.0061C66.5557 56.8873 66.2427 56.7955 66.0515 56.8024C65.8222 56.8104 65.8616 56.8797 66.1674 57.0061ZM4.42406 57.4519C4.42406 57.7584 4.47668 57.8839 4.5409 57.7305C4.60534 57.5774 4.60534 57.3266 4.5409 57.1733C4.47668 57.0201 4.42406 57.1454 4.42406 57.4519ZM67.399 57.3812C67.5662 57.4457 67.7662 57.4376 67.8432 57.3636C67.9202 57.2896 67.7834 57.237 67.5391 57.2466C67.269 57.2573 67.2141 57.3101 67.399 57.3812ZM69.9491 58.0499C70.1162 58.1144 70.3163 58.1063 70.3932 58.0323C70.4702 57.9583 70.3334 57.9057 70.0891 57.9153C69.819 57.926 69.7641 57.9788 69.9491 58.0499ZM96.188 58.232C95.8693 58.4072 95.5042 58.5506 95.3767 58.5506C95.2492 58.5506 95.4056 58.4072 95.7244 58.232C96.0432 58.0569 96.4083 57.9135 96.5358 57.9135C96.6633 57.9135 96.5068 58.0569 96.188 58.232ZM4.63757 58.4734C4.64869 58.7331 4.70364 58.7859 4.77759 58.6083C4.84458 58.4474 4.83624 58.255 4.75927 58.181C4.68231 58.107 4.6276 58.2385 4.63757 58.4734ZM74.0493 59.2351C74.6865 59.4983 75.0526 59.4983 74.6288 59.2351C74.4376 59.1163 74.1246 59.0245 73.9333 59.0314C73.7041 59.0394 73.7435 59.1087 74.0493 59.2351ZM93.638 59.2351C93.638 59.3577 93.4553 59.4564 93.2323 59.4546C92.8855 59.4518 92.8772 59.4197 93.1744 59.2351C93.6118 58.9632 93.638 58.9632 93.638 59.2351ZM4.86939 59.5879C4.88051 59.8476 4.93545 59.9004 5.00941 59.7228C5.0764 59.5619 5.06806 59.3695 4.99109 59.2955C4.91413 59.2215 4.85942 59.353 4.86939 59.5879ZM92.5932 59.4555C92.6743 59.5817 92.5814 59.6191 92.3751 59.5431C91.9736 59.3949 91.9001 59.2351 92.2334 59.2351C92.3535 59.2351 92.5153 59.3343 92.5932 59.4555ZM95.3767 59.458C94.7394 59.7212 94.3734 59.7212 94.7971 59.458C94.9884 59.3392 95.3013 59.2474 95.4926 59.2543C95.7218 59.2623 95.6824 59.3316 95.3767 59.458ZM92.3767 60.0275C92.8009 60.3545 92.7935 60.359 92.2471 60.1089C91.5375 59.7839 91.4061 59.6809 91.7005 59.6809C91.825 59.6809 92.1291 59.8369 92.3767 60.0275ZM90.4948 60.4539C90.2474 60.634 89.8362 60.7809 89.5812 60.7805C89.1713 60.7798 89.1848 60.7426 89.6971 60.461C90.4906 60.0248 91.0922 60.0195 90.4948 60.4539ZM5.10121 60.7024C5.11233 60.9621 5.16727 61.0149 5.24123 60.8373C5.30822 60.6764 5.29988 60.484 5.22291 60.41C5.14595 60.336 5.09124 60.4675 5.10121 60.7024ZM89.3334 61.2196C89.2724 61.2782 89.0424 61.1453 88.8222 60.9244C88.4399 60.5406 88.4448 60.5357 88.9332 60.8177C89.2142 60.9802 89.3943 61.1609 89.3334 61.2196ZM87.9995 61.1997C87.7547 61.2463 87.6276 61.4079 87.6979 61.5836C87.7667 61.7568 87.6248 61.9462 87.3671 62.0249C87.1186 62.1007 86.9152 62.2763 86.9152 62.4152C86.9152 62.5978 86.845 62.6002 86.6621 62.4243C86.5186 62.2864 86.016 62.2313 85.503 62.2975C84.2553 62.4584 84.3597 62.0641 85.6402 61.7786C86.4611 61.5954 86.6834 61.607 86.6834 61.8323C86.6834 61.9975 86.8332 62.0635 87.0372 61.9883C87.3084 61.8883 87.3293 61.7866 87.1264 61.5517C86.9185 61.3107 86.9788 61.2033 87.4104 61.0466C87.7118 60.9372 88.0628 60.9088 88.1903 60.9835C88.3178 61.0582 88.2318 61.1554 87.9995 61.1997ZM90.6244 61.0183C90.6244 61.1409 90.52 61.2412 90.3925 61.2412C90.265 61.2412 90.1607 61.1409 90.1607 61.0183C90.1607 60.8957 90.265 60.7954 90.3925 60.7954C90.52 60.7954 90.6244 60.8957 90.6244 61.0183ZM5.33303 61.594C5.34415 61.8537 5.39909 61.9065 5.47304 61.7289C5.54004 61.568 5.5317 61.3756 5.45473 61.3016C5.37777 61.2276 5.32306 61.3591 5.33303 61.594ZM5.58316 62.5786C5.58316 62.8851 5.63578 63.0106 5.7 62.8572C5.76444 62.7041 5.76444 62.4533 5.7 62.3C5.63578 62.1468 5.58316 62.2721 5.58316 62.5786ZM84.3024 62.4903C84.2254 62.5643 84.0254 62.5723 83.8582 62.5079C83.6732 62.4368 83.7282 62.384 83.9983 62.3733C84.2426 62.3637 84.3794 62.4163 84.3024 62.4903ZM83.1327 63.0663C83.0587 63.2439 83.0038 63.1911 82.9926 62.9314C82.9827 62.6965 83.0374 62.565 83.1143 62.639C83.1913 62.713 83.1996 62.9053 83.1327 63.0663ZM82.9108 66.5908L82.8878 68.2625L82.7341 66.4793C82.6495 65.4986 82.6312 66.5518 82.6936 68.8198C82.7557 71.0878 82.8097 73.0689 82.8132 73.222C82.8169 73.3754 82.9129 73.5006 83.0267 73.5006C83.1403 73.5006 83.1642 73.6085 83.0793 73.7407C82.9945 73.8727 82.8946 74.2988 82.857 74.688C82.7532 75.7711 82.2693 78.4432 82.0551 79.1181C81.9499 79.4494 81.9534 79.7503 82.0626 79.7868C82.3115 79.87 81.7997 84.1998 81.541 84.1998C81.2612 84.1998 81.3027 75.562 81.5834 75.3953C81.9024 75.2056 81.8757 74.4489 81.5463 74.3432C81.3583 74.283 81.3469 74.1377 81.5088 73.8597C81.6446 73.6264 81.7109 71.9765 81.6696 69.8594C81.6311 67.8778 81.6803 66.5072 81.7793 66.8137C81.9543 67.3564 81.9631 67.3513 82.1189 66.6186C82.207 66.2049 82.2789 65.2436 82.2789 64.4826C82.2789 63.7214 82.357 63.0226 82.4527 62.9296C82.6978 62.6916 82.9379 64.6114 82.9108 66.5908ZM83.6018 63.969C83.5464 64.2463 83.4989 64.072 83.4964 63.5816C83.4938 63.0913 83.5393 62.8643 83.5972 63.0774C83.6552 63.2905 83.6573 63.6917 83.6018 63.969ZM5.79667 63.6001C5.80779 63.8598 5.86273 63.9126 5.93668 63.735C6.00368 63.574 5.99534 63.3817 5.91837 63.3077C5.84141 63.2337 5.7867 63.3652 5.79667 63.6001ZM81.9749 64.3061C81.9167 64.5205 81.869 64.3451 81.869 63.916C81.869 63.4869 81.9167 63.3115 81.9749 63.5259C82.0334 63.7403 82.0334 64.0916 81.9749 64.3061ZM84.342 64.765C84.3214 65.5039 84.3001 65.5311 84.1334 65.0305L83.9477 64.4732L83.9248 65.012C83.912 65.3082 83.8427 65.4939 83.7708 65.4248C83.5601 65.2222 83.9317 63.6848 84.1589 63.8197C84.2723 63.887 84.3548 64.3125 84.342 64.765ZM6.0563 64.4732C6.0563 64.7184 6.13999 65.1698 6.24199 65.4763C6.38897 65.9176 6.42768 65.9408 6.42768 65.5877C6.42768 65.3425 6.34399 64.8912 6.24199 64.5847C6.09502 64.1433 6.0563 64.1202 6.0563 64.4732ZM83.3698 65.9778C83.3144 66.2537 83.2692 66.0279 83.2692 65.4763C83.2692 64.9246 83.3144 64.6988 83.3698 64.9747C83.425 65.2507 83.425 65.7018 83.3698 65.9778ZM83.8334 67.761C83.778 68.0369 83.7328 67.8111 83.7328 67.2595C83.7328 66.7078 83.778 66.482 83.8334 66.7579C83.8886 67.0339 83.8886 67.485 83.8334 67.761ZM84.2869 67.0923C84.2227 67.2456 84.17 67.1202 84.17 66.8137C84.17 66.5072 84.2227 66.3819 84.2869 66.535C84.3513 66.6884 84.3513 66.9392 84.2869 67.0923ZM6.75084 67.5938C6.75547 67.9616 6.8074 68.0851 6.86628 67.8682C6.92516 67.6513 6.92122 67.3504 6.8577 67.1995C6.79419 67.0486 6.7462 67.226 6.75084 67.5938ZM83.3596 67.9839C83.2954 68.1372 83.2428 68.0117 83.2428 67.7053C83.2428 67.3988 83.2954 67.2735 83.3596 67.4266C83.424 67.58 83.424 67.8308 83.3596 67.9839ZM82.0869 69.9342L82.1129 71.8289L82.283 70.2686C82.3767 69.4104 82.3651 68.5579 82.2571 68.374C82.1398 68.1738 82.0716 68.7995 82.0869 69.9342ZM6.95576 68.7268C6.96689 68.9865 7.02183 69.0393 7.09578 68.8617C7.16278 68.7007 7.15443 68.5084 7.07747 68.4344C7.00051 68.3604 6.9458 68.4919 6.95576 68.7268ZM83.5914 69.7671C83.5272 69.9204 83.4746 69.7949 83.4746 69.4885C83.4746 69.182 83.5272 69.0567 83.5914 69.2098C83.6559 69.3632 83.6559 69.6139 83.5914 69.7671ZM7.18758 69.6184C7.19871 69.8781 7.25365 69.9309 7.3276 69.7533C7.3946 69.5923 7.38625 69.4 7.30929 69.326C7.23232 69.252 7.17762 69.3835 7.18758 69.6184ZM7.43772 70.603C7.43772 70.9094 7.49034 71.0349 7.55455 70.8816C7.619 70.7284 7.619 70.4777 7.55455 70.3243C7.49034 70.1712 7.43772 70.2965 7.43772 70.603ZM84.0173 72.219C83.9438 73.1563 83.973 73.4298 84.1065 73.0548C84.3446 72.3868 84.2169 75.2098 83.8909 77.8193C83.7706 78.7847 83.7189 80.2893 83.7766 81.1628L83.8812 82.751L83.6723 81.3021C83.2808 78.5883 83.2142 77.8037 83.4266 78.4044C83.5974 78.8877 83.6266 78.8357 83.6466 78.0143C83.6593 77.4934 83.5655 77.067 83.438 77.067C83.3104 77.067 83.2061 76.8664 83.2061 76.6212C83.2061 76.376 83.3104 76.1754 83.438 76.1754C83.5655 76.1754 83.6698 76.3928 83.6698 76.6584C83.6698 76.9239 83.7354 77.0784 83.8154 77.0013C83.8956 76.9241 83.8439 76.4139 83.7008 75.8672C83.4175 74.7859 83.5998 70.8259 83.9327 70.8259C84.0393 70.8259 84.0773 71.4529 84.0173 72.219ZM7.65122 71.6245C7.66235 71.8842 7.71729 71.937 7.79124 71.7593C7.85824 71.5984 7.84989 71.4061 7.77293 71.3321C7.69596 71.258 7.64126 71.3896 7.65122 71.6245ZM83.3596 72.4419C83.2954 72.5952 83.2428 72.4697 83.2428 72.1632C83.2428 71.8568 83.2954 71.7315 83.3596 71.8846C83.424 72.038 83.424 72.2887 83.3596 72.4419ZM7.88304 72.5161C7.89417 72.7758 7.94911 72.8286 8.02306 72.6509C8.09006 72.49 8.08171 72.2977 8.00475 72.2236C7.92778 72.1497 7.87308 72.2812 7.88304 72.5161ZM8.13318 73.5006C8.13318 73.8071 8.1858 73.9326 8.25001 73.7793C8.31446 73.6261 8.31446 73.3754 8.25001 73.222C8.1858 73.0689 8.13318 73.1942 8.13318 73.5006ZM83.7328 74.3922C83.7328 74.9439 83.778 75.1697 83.8334 74.8938C83.8886 74.6178 83.8886 74.1667 83.8334 73.8907C83.778 73.6148 83.7328 73.8406 83.7328 74.3922ZM8.365 74.6151C8.365 74.9216 8.41762 75.0471 8.48183 74.8938C8.54628 74.7406 8.54628 74.4899 8.48183 74.3365C8.41762 74.1834 8.365 74.3086 8.365 74.6151ZM8.5785 75.6367C8.58963 75.8964 8.64457 75.9492 8.71852 75.7715C8.78552 75.6106 8.77717 75.4182 8.70021 75.3442C8.62324 75.2702 8.56853 75.4017 8.5785 75.6367ZM123.701 76.2173C123.627 76.395 123.572 76.3422 123.561 76.0825C123.551 75.8475 123.606 75.716 123.683 75.79C123.76 75.864 123.768 76.0564 123.701 76.2173ZM8.82864 76.6212C8.82864 76.9277 8.88126 77.0532 8.94547 76.8998C9.00992 76.7467 9.00992 76.496 8.94547 76.3426C8.88126 76.1895 8.82864 76.3147 8.82864 76.6212ZM9.06324 77.7357C9.06695 77.9196 9.15365 78.3208 9.25565 78.6273C9.40494 79.0753 9.44249 79.0972 9.44806 78.7388C9.45177 78.4936 9.3653 78.0924 9.25565 77.8472C9.13348 77.5741 9.05906 77.5309 9.06324 77.7357ZM83.4208 81.6922C83.4303 82.0907 83.3336 82.4166 83.2061 82.4166C83.0691 82.4166 82.9861 81.7107 83.0033 80.6891C83.0302 79.0963 83.0469 79.0399 83.218 79.9647C83.32 80.5164 83.4113 81.2936 83.4208 81.6922ZM9.50578 79.6489C9.51691 79.9085 9.57185 79.9614 9.6458 79.7837C9.7128 79.6228 9.70445 79.4304 9.62749 79.3564C9.55052 79.2824 9.49581 79.4139 9.50578 79.6489ZM9.75591 80.6334C9.75591 80.9399 9.80854 81.0654 9.87275 80.912C9.9372 80.7589 9.9372 80.5081 9.87275 80.3548C9.80854 80.2017 9.75591 80.3269 9.75591 80.6334ZM9.96942 81.655C9.98055 81.9146 10.0355 81.9675 10.1094 81.7898C10.1764 81.6289 10.1681 81.4365 10.0911 81.3625C10.0142 81.2885 9.95945 81.42 9.96942 81.655ZM10.46 83.6425C10.4646 84.0103 10.5165 84.1338 10.5754 83.9169C10.6343 83.7001 10.6303 83.3991 10.5668 83.2482C10.5033 83.0973 10.4553 83.2748 10.46 83.6425ZM83.7071 84.646C83.7505 85.3818 83.7147 85.9837 83.628 85.9834C83.5411 85.9832 83.4368 86.2086 83.3962 86.4845C83.3554 86.7605 83.3206 86.1586 83.319 85.1471C83.3156 83.0227 83.591 82.6671 83.7071 84.646ZM10.6649 84.7756C10.676 85.0352 10.7309 85.0881 10.8049 84.9104C10.8719 84.7495 10.8635 84.5571 10.7866 84.4831C10.7096 84.4091 10.6549 84.5406 10.6649 84.7756ZM81.2804 85.7001C81.2215 85.917 81.1696 85.7935 81.165 85.4257C81.1603 85.058 81.2083 84.8805 81.2718 85.0314C81.3354 85.1823 81.3393 85.4832 81.2804 85.7001ZM10.8967 85.89C10.9078 86.1497 10.9628 86.2025 11.0367 86.0249C11.1037 85.864 11.0954 85.6716 11.0184 85.5976C10.9414 85.5236 10.8867 85.6551 10.8967 85.89ZM11.1285 86.7816C11.1396 87.0413 11.1946 87.0941 11.2685 86.9165C11.3355 86.7556 11.3272 86.5632 11.2502 86.4892C11.1733 86.4152 11.1186 86.5467 11.1285 86.7816ZM121.842 87.1532C121.777 87.3066 121.725 87.1811 121.725 86.8746C121.725 86.5681 121.777 86.4428 121.842 86.596C121.906 86.7493 121.906 87.0001 121.842 87.1532ZM81.2906 90.2738C81.2438 90.9173 81.2055 90.3908 81.2055 89.1036C81.2055 87.8163 81.2438 87.2898 81.2906 87.9334C81.3374 88.5769 81.3374 89.6303 81.2906 90.2738ZM11.3787 87.7662C11.3787 88.0727 11.4313 88.1982 11.4955 88.0448C11.5599 87.8917 11.5599 87.6409 11.4955 87.4876C11.4313 87.3344 11.3787 87.4597 11.3787 87.7662ZM83.5056 91.4844L83.2826 93.4501L83.2887 90.5524C83.2938 88.2278 83.3378 87.8391 83.5119 88.5867C83.6478 89.17 83.6454 90.2535 83.5056 91.4844ZM121.385 90.1581C121.326 90.375 121.274 90.2515 121.27 89.8837C121.265 89.5159 121.313 89.3385 121.377 89.4894C121.44 89.6403 121.444 89.9412 121.385 90.1581ZM81.2579 94.5109C81.273 95.6105 81.2264 95.9118 81.1114 95.4562C80.8144 94.2788 80.8726 92.8583 81.2164 92.8949C81.2269 92.896 81.2456 93.6233 81.2579 94.5109ZM18.2533 94.1596C18.4204 94.224 18.6205 94.216 18.6974 94.142C18.7744 94.068 18.6376 94.0154 18.3933 94.025C18.1232 94.0357 18.0683 94.0885 18.2533 94.1596ZM19.6875 94.5408C19.6875 94.5889 19.8493 94.6881 20.0473 94.7612C20.2536 94.8372 20.3466 94.7998 20.2655 94.6736C20.1294 94.4616 19.6875 94.3602 19.6875 94.5408ZM23.8169 95.9428C23.9841 96.0072 24.1841 95.9992 24.2611 95.9252C24.3381 95.8512 24.2013 95.7986 23.957 95.8082C23.6869 95.8189 23.6319 95.8717 23.8169 95.9428ZM25.483 96.4593C25.6743 96.5781 25.9351 96.6752 26.0626 96.6752C26.1901 96.6752 26.1379 96.5781 25.9467 96.4593C25.7554 96.3404 25.4946 96.2433 25.3671 96.2433C25.2396 96.2433 25.2918 96.3404 25.483 96.4593ZM81.2857 97.9638C81.2327 98.3008 81.1893 98.0251 81.1893 97.3508C81.1893 96.6766 81.2327 96.4008 81.2857 96.7379C81.3388 97.0749 81.3388 97.6268 81.2857 97.9638ZM28.8444 97.5737C29.0994 97.6792 29.4645 97.7652 29.6558 97.7652C29.8748 97.7652 29.8322 97.6946 29.5399 97.5737C29.2849 97.4683 28.9198 97.3823 28.7285 97.3823C28.5094 97.3823 28.5521 97.4529 28.8444 97.5737ZM30.7836 98.1397C31.2125 98.3189 31.6297 98.4618 31.7109 98.4575C32.0125 98.4413 30.6853 97.8125 30.3512 97.8134C30.16 97.8138 30.3545 97.9607 30.7836 98.1397ZM33.4808 99.0197C33.9908 99.2118 34.6167 99.3868 34.8717 99.4082C35.1267 99.4296 35.3875 99.511 35.4513 99.5894C35.6112 99.7858 37.8265 100.491 37.9403 100.382C37.9909 100.333 37.6341 100.172 37.1475 100.023C36.6609 99.875 36.1565 99.6269 36.0269 99.4722C35.8971 99.3175 35.3755 99.1358 34.8678 99.069C34.3599 99.0019 33.6315 98.8848 33.249 98.8086C32.7283 98.705 32.7867 98.758 33.4808 99.0197ZM36.5524 99.5045C36.7119 99.5665 36.9727 99.5665 37.132 99.5045C37.2915 99.4427 37.1609 99.3922 36.8422 99.3922C36.5234 99.3922 36.3932 99.4427 36.5524 99.5045ZM37.7695 99.8337C37.7695 99.9392 38.0303 100.026 38.349 100.026C38.6678 100.026 38.9286 99.9871 38.9286 99.9403C38.9286 99.8932 38.6678 99.8067 38.349 99.7481C38.0303 99.6895 37.7695 99.7281 37.7695 99.8337ZM39.2763 100.249C39.3551 100.371 39.4655 100.471 39.5218 100.471C39.5781 100.471 39.624 100.371 39.624 100.249C39.624 100.126 39.5134 100.026 39.3785 100.026C39.2436 100.026 39.1975 100.126 39.2763 100.249ZM40.0909 100.564C40.2411 100.708 40.3978 100.708 40.5481 100.564C40.698 100.419 40.6197 100.344 40.3195 100.344C40.0193 100.344 39.9409 100.419 40.0909 100.564ZM42.8695 101.586C42.8695 101.848 42.6912 101.848 42.0581 101.586C41.6474 101.416 41.6671 101.393 42.232 101.379C42.5825 101.37 42.8695 101.463 42.8695 101.586ZM117.284 101.697C116.965 101.873 116.6 102.016 116.472 102.016C116.345 102.016 116.501 101.873 116.82 101.697C117.139 101.522 117.504 101.379 117.631 101.379C117.759 101.379 117.602 101.522 117.284 101.697ZM45.4508 102.357C45.8799 102.536 46.1124 102.687 45.9678 102.692C45.8229 102.696 45.3535 102.554 44.9246 102.375C44.4955 102.196 44.263 102.045 44.4076 102.04C44.5525 102.036 45.0219 102.178 45.4508 102.357ZM82.1963 102.589C82.1527 103.315 81.8152 103.315 81.8152 102.589C81.8152 102.282 81.9084 102.032 82.0225 102.032C82.1365 102.032 82.2149 102.282 82.1963 102.589ZM83.1829 102.422C83.1702 102.636 83.0877 103.062 82.9994 103.367C82.7738 104.146 82.4768 103.588 82.6565 102.723C82.8083 101.994 83.2224 101.756 83.1829 102.422ZM47.9067 102.835C47.8298 102.909 47.6297 102.917 47.4625 102.853C47.2776 102.782 47.3325 102.729 47.6026 102.718C47.8469 102.708 47.9837 102.761 47.9067 102.835ZM52.0795 104.618C52.0025 104.692 51.8024 104.7 51.6353 104.636C51.4503 104.565 51.5052 104.512 51.7753 104.501C52.0197 104.492 52.1564 104.544 52.0795 104.618ZM82.9131 105.598C83.3501 105.598 83.1139 105.887 82.6199 105.956C82.3758 105.991 82.2879 105.804 82.3104 105.3C82.334 104.775 82.3676 104.723 82.4425 105.097C82.4977 105.372 82.7096 105.598 82.9131 105.598ZM109.402 105.474C109.402 105.528 109.297 105.634 109.17 105.71C109.042 105.785 108.938 105.741 108.938 105.611C108.938 105.482 109.042 105.375 109.17 105.375C109.297 105.375 109.402 105.419 109.402 105.474ZM107.199 106.49C107.121 106.612 106.932 106.711 106.78 106.709C106.614 106.707 106.643 106.619 106.852 106.49C107.297 106.213 107.377 106.213 107.199 106.49ZM89.2958 106.636C89.1389 106.697 88.8259 106.701 88.6003 106.644C88.3748 106.588 88.5032 106.538 88.8857 106.533C89.2682 106.529 89.4528 106.575 89.2958 106.636ZM89.813 107.381C89.9943 107.663 89.6873 107.663 89.2334 107.381C88.9337 107.195 88.94 107.165 89.2777 107.162C89.4933 107.16 89.7342 107.259 89.813 107.381Z" fill="#A52A2A" fill-opacity="0.52"/>
</svg>
