<svg width="62" height="65" viewBox="0 0 62 65" fill="none" xmlns="http://www.w3.org/2000/svg">
<path fill-rule="evenodd" clip-rule="evenodd" d="M31.4504 0.0355641C30.9542 0.144677 30.6029 0.384522 30.3523 0.785493C30.1145 1.16574 30.0993 1.43572 30.0993 5.2885C30.0993 9.80486 30.1065 9.84963 30.9104 10.3189C31.425 10.6194 32.3502 10.6035 32.7876 10.2867C33.5408 9.74153 33.5731 9.53653 33.5731 5.29308C33.5731 1.85144 33.5477 1.36527 33.348 0.978285C32.984 0.272611 32.1826 -0.125435 31.4504 0.0355641ZM8.00611 7.32273C7.26625 7.76847 6.98664 8.72149 7.3769 9.46735C7.54315 9.78515 12.2279 14.3168 13.2209 15.1204C14.0468 15.7887 15.403 15.4907 15.8591 14.5406C16.3535 13.5109 16.122 13.1263 13.5374 10.6839C9.80508 7.15678 9.70047 7.07335 9.01323 7.07399C8.65012 7.07424 8.25741 7.17127 8.00611 7.32273ZM53.2956 7.5772C53.0341 7.63939 52.4623 8.06681 51.7515 8.73154C51.1305 9.31207 49.8227 10.5356 48.8451 11.4506C47.8674 12.3656 46.9843 13.2686 46.8828 13.4575C46.624 13.9386 46.6536 14.6938 46.9502 15.1744C47.4217 15.9387 48.4253 16.1929 49.2342 15.7529C49.4592 15.6305 50.9163 14.313 52.4722 12.8249C55.635 9.80028 55.7603 9.62085 55.3869 8.65434C55.0475 7.77585 54.2303 7.35503 53.2956 7.5772ZM29.4559 13.0415C26.9601 13.3423 24.2377 14.4033 21.7017 16.0633C19.632 17.4184 17.4013 19.9801 16.1484 22.4409C15.5705 23.5757 14.884 25.5796 14.573 27.0394C14.2525 28.5432 14.2525 31.8941 14.573 33.3979C15.3004 36.8118 16.5788 39.2664 19.1569 42.1993C20.8417 44.1161 21.6702 45.2361 22.2888 46.433L22.8146 47.4504L22.9047 49.456C22.986 51.2686 23.0276 51.5281 23.3368 52.1525C23.7204 52.9275 24.2264 53.4045 25.0811 53.7972C25.6432 54.0555 25.84 54.0633 31.8364 54.0633H38.0126L38.6891 53.7611C39.0612 53.5949 39.5462 53.2557 39.7667 53.0072C40.4698 52.216 40.567 51.8337 40.6026 49.7216C40.6333 47.8965 40.6548 47.7533 41.0141 46.97C41.5444 45.8139 42.2155 44.8769 44.1592 42.5783C46.9193 39.3142 47.9842 37.4434 48.7922 34.4395C49.1777 33.0064 49.1922 32.8567 49.198 30.2822C49.2035 27.8965 49.172 27.4828 48.9024 26.4035C48.0515 22.9969 46.4575 20.2255 43.8814 17.6745C42.0914 15.9018 38.792 14.1038 36.0826 13.4247C34.7437 13.0891 34.2563 13.0312 32.4154 12.9892C31.2477 12.9625 29.9159 12.9861 29.4559 13.0415ZM35.3749 16.8044C36.7062 17.1582 38.4584 17.9529 39.7076 18.7697C42.4531 20.5648 44.5188 23.5096 45.4194 26.9122C45.7731 28.2492 45.907 31.1428 45.6759 32.4614C45.2331 34.9885 43.9544 37.4625 41.8177 39.9261C40.1016 41.9049 39.8528 42.2173 39.1671 43.2537C37.5826 45.6486 37.1633 46.831 37.1152 49.04L37.0804 50.6296L31.8581 50.6628C26.9524 50.6941 26.6282 50.6823 26.5125 50.4685C26.4447 50.3433 26.3886 49.6417 26.3877 48.9091C26.3859 47.204 26.2421 46.5932 25.4752 45.0341C24.7469 43.5535 23.7808 42.1811 22.2503 40.4538C20.3224 38.2779 19.5357 37.0959 18.7367 35.1759C18.0036 33.4138 17.8089 32.3409 17.8259 30.1551C17.8422 28.0509 18.0936 26.7957 18.8948 24.8183C19.6736 22.896 21.5427 20.4926 23.2407 19.2302C25.0205 17.9069 27.6869 16.7862 29.7776 16.4828C31.1859 16.2784 34.0051 16.4404 35.3749 16.8044ZM0.800456 25.7626C-0.367117 26.4661 -0.227378 28.355 1.02383 28.7809C1.72188 29.0184 8.73813 29.0042 9.31999 28.7638C10.5178 28.2692 10.6108 26.448 9.47323 25.7626C9.0885 25.5306 8.80272 25.5142 5.13685 25.5142C1.47097 25.5142 1.18519 25.5306 0.800456 25.7626ZM52.5268 25.7626C51.3892 26.448 51.4822 28.2692 52.68 28.7638C53.2619 29.0042 60.2781 29.0184 60.9762 28.7809C62.2274 28.355 62.3671 26.4661 61.1995 25.7626C60.8148 25.5306 60.529 25.5142 56.8632 25.5142C53.1973 25.5142 52.9115 25.5306 52.5268 25.7626ZM26.4321 55.8886C25.5144 56.185 24.6074 57.0493 24.254 57.964C24.071 58.4375 24.0408 58.8899 24.0748 60.6427L24.116 62.7517L24.6321 63.4943C25.005 64.0311 25.3439 64.3428 25.8545 64.6185L26.5608 65H31.8364C37.0093 65 37.1221 64.9947 37.6354 64.723C38.2612 64.392 39.0501 63.5592 39.3439 62.9195C39.5134 62.5506 39.5566 62.0414 39.5566 60.4128C39.5567 58.3909 39.5526 58.3611 39.1694 57.6205C38.7393 56.7893 37.974 56.1241 37.2052 55.9131C36.68 55.7689 26.8717 55.7466 26.4321 55.8886ZM36.0182 60.4218V61.63H31.772H27.5258V60.4218V59.2137H31.772H36.0182V60.4218Z" fill="black"/>
</svg>
