<svg width="42" height="50" viewBox="0 0 42 50" fill="none" xmlns="http://www.w3.org/2000/svg">
<path d="M41.298 25.8274L22.548 0.827383C21.7584 -0.227617 20.2417 -0.227617 19.4521 0.827383L0.702131 25.8274C0.432248 26.1864 0.255099 26.6317 0.192223 27.1093C0.129347 27.5868 0.183454 28.076 0.347964 28.5174C0.681297 29.4199 1.42713 29.9999 2.25005 29.9999H6.41671V47.4999C6.41671 48.1629 6.63621 48.7988 7.02691 49.2676C7.41761 49.7365 7.94751 49.9999 8.50005 49.9999H14.75C15.3026 49.9999 15.8325 49.7365 16.2232 49.2676C16.6139 48.7988 16.8334 48.1629 16.8334 47.4999V37.4999H25.1667V47.4999C25.1667 48.1629 25.3862 48.7988 25.7769 49.2676C26.1676 49.7365 26.6975 49.9999 27.25 49.9999H33.5C34.0526 49.9999 34.5825 49.7365 34.9732 49.2676C35.3639 48.7988 35.5834 48.1629 35.5834 47.4999V29.9999H39.7501C40.1535 30.0019 40.5488 29.8631 40.8876 29.6002C41.2265 29.3374 41.4943 28.9619 41.6584 28.5196C41.8225 28.0773 41.8757 27.5872 41.8118 27.1092C41.7478 26.6311 41.5692 26.1858 41.298 25.8274Z" fill="#006917"/>
</svg>
