<svg width="20" height="20" viewBox="0 0 20 20" fill="none" xmlns="http://www.w3.org/2000/svg">
<path d="M19.471 3.23775L10.2408 0.037598C10.0842 -0.0125327 9.91673 -0.0125327 9.76011 0.037598L0.539572 3.23775H0.520343L0.424195 3.28776H0.41458L0.318433 3.34776C0.318433 3.35776 0.308818 3.35776 0.299204 3.36776L0.222286 3.43776L0.154982 3.51777C0.154982 3.52777 0.145368 3.52777 0.145368 3.53777L0.0876792 3.62777C0.0876792 3.63777 0.0876792 3.63777 0.0780645 3.64777L0.0396055 3.73778L0.0107614 3.84778V3.87778C0.00127778 3.91697 -0.00197017 3.95751 0.00114661 3.99779V11.9982C0.00114661 12.2104 0.0821849 12.4139 0.226434 12.5639C0.370683 12.7139 0.566327 12.7982 0.770326 12.7982C0.974325 12.7982 1.16997 12.7139 1.31422 12.5639C1.45847 12.4139 1.53951 12.2104 1.53951 11.9982V5.10784L4.77006 6.2279C4.16314 7.23834 3.84317 8.40664 3.84704 9.59806C3.8474 10.6816 4.11223 11.7473 4.61673 12.6954C5.12122 13.6434 5.84887 14.4427 6.73146 15.0183C4.89736 15.74 3.33156 17.0499 2.26061 18.7585C2.15145 18.938 2.11447 19.155 2.15763 19.3626C2.20079 19.5703 2.32064 19.752 2.49136 19.8686C2.57514 19.9263 2.66911 19.9662 2.76781 19.9859C2.86651 20.0055 2.96798 20.0047 3.06636 19.9833C3.16473 19.9619 3.25804 19.9204 3.34089 19.8612C3.42373 19.802 3.49447 19.7264 3.54899 19.6385C4.24714 18.52 5.20304 17.6007 6.32978 16.9643C7.45651 16.3279 8.71832 15.9945 10.0005 15.9945C11.2826 15.9945 12.5444 16.3279 13.6712 16.9643C14.7979 17.6007 15.7538 18.52 16.452 19.6385C16.5222 19.7494 16.6178 19.8404 16.7303 19.9033C16.8428 19.9661 16.9685 19.9989 17.0962 19.9986C17.2435 20.0002 17.3878 19.9548 17.5096 19.8686C17.6803 19.752 17.8002 19.5703 17.8433 19.3626C17.8865 19.155 17.8495 18.938 17.7403 18.7585C16.6694 17.0499 15.1036 15.74 13.2695 15.0183C14.1521 14.4427 14.8797 13.6434 15.3842 12.6954C15.8887 11.7473 16.1536 10.6816 16.1539 9.59806C16.1578 8.40664 15.8378 7.23834 15.2309 6.2279L19.471 4.75783C19.6249 4.70522 19.7589 4.60342 19.8539 4.46694C19.9489 4.33046 20 4.16628 20 3.99779C20 3.8293 19.9489 3.66512 19.8539 3.52864C19.7589 3.39216 19.6249 3.29036 19.471 3.23775ZM14.6156 9.59806C14.6156 10.8712 14.1293 12.0921 13.2638 12.9923C12.3983 13.8926 11.2245 14.3983 10.0005 14.3983C8.77648 14.3983 7.60262 13.8926 6.73713 12.9923C5.87163 12.0921 5.3854 10.8712 5.3854 9.59806C5.38726 8.57374 5.70021 7.57622 6.27957 6.74792L9.76011 7.95798C9.91624 8.0114 10.0847 8.0114 10.2408 7.95798L13.7214 6.74792C14.3007 7.57622 14.6137 8.57374 14.6156 9.59806ZM13.7214 5.06784H13.7118L10.0005 6.3579L6.28919 5.06784H6.27957L3.20285 3.99779L10.0005 1.63768L16.7981 3.99779L13.7214 5.06784Z" fill="#FAFAFA"/>
</svg>
