<svg width="20" height="20" viewBox="0 0 20 20" fill="none" xmlns="http://www.w3.org/2000/svg">
<path d="M18.4615 0H1.53846C1.13044 0 0.739122 0.191558 0.450605 0.532533C0.162087 0.873508 0 1.33597 0 1.81818V18.1818C0 18.664 0.162087 19.1265 0.450605 19.4675C0.739122 19.8084 1.13044 20 1.53846 20H2.82692C2.97258 20.0005 3.11529 19.9515 3.23803 19.8588C3.36078 19.7661 3.45839 19.6337 3.51923 19.4773C3.89561 18.5464 4.48723 17.7604 5.2257 17.2101C5.96416 16.6599 6.81932 16.3679 7.69231 16.3679C8.56529 16.3679 9.42045 16.6599 10.1589 17.2101C10.8974 17.7604 11.489 18.5464 11.8654 19.4773C11.9262 19.6337 12.0238 19.7661 12.1466 19.8588C12.2693 19.9515 12.412 20.0005 12.5577 20H18.4615C18.8696 20 19.2609 19.8084 19.5494 19.4675C19.8379 19.1265 20 18.664 20 18.1818V1.81818C20 1.33597 19.8379 0.873508 19.5494 0.532533C19.2609 0.191558 18.8696 0 18.4615 0ZM5.38462 11.8182C5.38462 11.2788 5.51996 10.7515 5.77353 10.303C6.0271 9.85449 6.38752 9.50493 6.80919 9.29851C7.23087 9.09209 7.69487 9.03808 8.14252 9.14331C8.59017 9.24854 9.00136 9.50829 9.32409 9.88971C9.64683 10.2711 9.86662 10.7571 9.95566 11.2861C10.0447 11.8152 9.999 12.3635 9.82434 12.8619C9.64967 13.3602 9.35389 13.7861 8.97439 14.0858C8.5949 14.3855 8.14873 14.5455 7.69231 14.5455C7.08105 14.5425 6.49555 14.2542 6.06332 13.7433C5.63109 13.2325 5.38715 12.5406 5.38462 11.8182ZM18.4615 18.1818H13.0192C12.3772 16.8764 11.4102 15.8368 10.25 15.2045C10.8323 14.5918 11.2433 13.7844 11.4284 12.8893C11.6136 11.9942 11.5642 11.0538 11.2868 10.1926C11.0094 9.33148 10.5171 8.5903 9.87519 8.06735C9.23325 7.54439 8.47198 7.26435 7.69231 7.26435C6.91263 7.26435 6.15137 7.54439 5.50943 8.06735C4.86749 8.5903 4.3752 9.33148 4.09781 10.1926C3.82042 11.0538 3.77103 11.9942 3.95619 12.8893C4.14135 13.7844 4.55232 14.5918 5.13462 15.2045C3.97443 15.8368 3.00742 16.8764 2.36538 18.1818H1.53846V1.81818H18.4615V18.1818ZM3.07692 6.36364V4.54545C3.07692 4.30435 3.15797 4.07312 3.30223 3.90263C3.44648 3.73214 3.64214 3.63636 3.84615 3.63636H16.1538C16.3579 3.63636 16.5535 3.73214 16.6978 3.90263C16.842 4.07312 16.9231 4.30435 16.9231 4.54545V15.4545C16.9231 15.6956 16.842 15.9269 16.6978 16.0974C16.5535 16.2679 16.3579 16.3636 16.1538 16.3636H14.6154C14.4114 16.3636 14.2157 16.2679 14.0715 16.0974C13.9272 15.9269 13.8462 15.6956 13.8462 15.4545C13.8462 15.2134 13.9272 14.9822 14.0715 14.8117C14.2157 14.6412 14.4114 14.5455 14.6154 14.5455H15.3846V5.45454H4.61538V6.36364C4.61538 6.60474 4.53434 6.83597 4.39008 7.00646C4.24582 7.17695 4.05017 7.27273 3.84615 7.27273C3.64214 7.27273 3.44648 7.17695 3.30223 7.00646C3.15797 6.83597 3.07692 6.60474 3.07692 6.36364Z" fill="white"/>
</svg>
