<svg width="42" height="50" viewBox="0 0 42 50" fill="none" xmlns="http://www.w3.org/2000/svg">
<path d="M41.1312 25.7912L22.3812 0.79125C21.5916 -0.26375 20.075 -0.26375 19.2854 0.79125L0.535383 25.7912C0.2655 26.1502 0.088351 26.5956 0.0254751 27.0731C-0.0374007 27.5507 0.0167057 28.0399 0.181216 28.4812C0.514549 29.3837 1.26038 29.9637 2.0833 29.9637H6.24997V47.4637C6.24997 48.1268 6.46946 48.7627 6.86016 49.2315C7.25086 49.7004 7.78077 49.9637 8.3333 49.9637H14.5833C15.1358 49.9637 15.6657 49.7004 16.0564 49.2315C16.4471 48.7627 16.6666 48.1268 16.6666 47.4637V37.4637H25V47.4637C25 48.1268 25.2195 48.7627 25.6102 49.2315C26.0009 49.7004 26.5308 49.9637 27.0833 49.9637H33.3333C33.8858 49.9637 34.4157 49.7004 34.8064 49.2315C35.1971 48.7627 35.4166 48.1268 35.4166 47.4637V29.9637H39.5833C39.9868 29.9658 40.382 29.827 40.7209 29.5641C41.0597 29.3013 41.3275 28.9258 41.4916 28.4835C41.6557 28.0412 41.709 27.5511 41.645 27.0731C41.581 26.595 41.4025 26.1496 41.1312 25.7912Z" fill="#013563"/>
</svg>
